AnnotationMono_ExtraBlack[slnt=-15].ufo
<glyph name="exclam" format="2">
  <advance width="500.0"/>
  <unicode hex="0021"/>
  <outline>
    <contour>
      <point x="363.9131089981226" y="608" type="curve" smooth="yes"/>
      <point x="446.9131089981226" y="608"/>
      <point x="435.21352005798735" y="573.6666666666666"/>
      <point x="426.1455585290138" y="546.6666666666666" type="curve" smooth="yes"/>
      <point x="409.54553385592874" y="494.6666666666667"/>
      <point x="380.33609576954257" y="418"/>
      <point x="366.8565915086889" y="382" type="curve" smooth="yes"/>
      <point x="340.96937975670585" y="314"/>
      <point x="323.97705023820754" y="268"/>
      <point x="318.6898631593096" y="252" type="curve" smooth="yes"/>
      <point x="300.03000784478746" y="196.66666666666666"/>
      <point x="292.8943149898576" y="177.5"/>
      <point x="247.5609816565243" y="177.5" type="curve" smooth="yes"/>
      <point x="201.22764832319092" y="177.5"/>
      <point x="204.809923165506" y="198.33333333333334"/>
      <point x="214.62447901840738" y="253" type="curve" smooth="yes"/>
      <point x="214.934739224523" y="261"/>
      <point x="231.00144290081727" y="339"/>
      <point x="235.85659150868887" y="382" type="curve" smooth="yes"/>
      <point x="240.2155753573113" y="402"/>
      <point x="254.20578789377308" y="489.6666666666667"/>
      <point x="263.8122251956804" y="546.6666666666666" type="curve" smooth="yes"/>
      <point x="268.48381643547253" y="567.8333333333334"/>
      <point x="274.9131089981226" y="608"/>
    </contour>
    <component base="period"/>
  </outline>
</glyph>
<glyph name="numbersign" format="2">
  <advance width="500.0"/>
  <unicode hex="0023"/>
  <outline>
    <contour>
      <point x="364.44259475416254" y="605" type="curve" smooth="yes"/>
      <point x="424.1092614208292" y="605"/>
      <point x="414.14258241762" y="579"/>
      <point x="401.24770018413534" y="557" type="curve" smooth="yes"/>
      <point x="392.69256391280624" y="540"/>
      <point x="310.16043908598226" y="385"/>
      <point x="251.95397711098985" y="276" type="curve" smooth="yes"/>
      <point x="223.48472071970923" y="222"/>
      <point x="162.4744111674235" y="110"/>
      <point x="143.36413862476533" y="76" type="curve" smooth="yes"/>
      <point x="111.89488223348471" y="22"/>
      <point x="105.12435565298213" y="-7"/>
      <point x="35.45768898631547" y="-7" type="curve" smooth="yes"/>
      <point x="8.457688986315468" y="-7"/>
      <point x="5.770526580502562" y="29"/>
      <point x="31.75644347017859" y="70" type="curve" smooth="yes"/>
      <point x="56.742360359854615" y="111"/>
      <point x="117.3603650667271" y="229"/>
      <point x="179.71042058116845" y="346" type="curve" smooth="yes"/>
      <point x="275.6733260263394" y="525"/>
      <point x="277.5489703733573" y="532"/>
      <point x="297.8553953387221" y="563" type="curve" smooth="yes"/>
      <point x="318.6977186889491" y="596"/>
      <point x="348.44259475416254" y="605"/>
    </contour>
    <contour>
      <point x="516.7759280874959" y="605" type="curve" smooth="yes"/>
      <point x="538.7759280874959" y="605"/>
      <point x="557.5541251495001" y="588"/>
      <point x="546.855395338722" y="563" type="curve" smooth="yes"/>
      <point x="533.5489703733573" y="532"/>
      <point x="526.6733260263394" y="525"/>
      <point x="430.7104205811685" y="346" type="curve" smooth="yes"/>
      <point x="368.3603650667271" y="229"/>
      <point x="306.4744111674235" y="110"/>
      <point x="284.75644347017857" y="70" type="curve" smooth="yes"/>
      <point x="260.69872981077805" y="25"/>
      <point x="226.79102231964882" y="-7"/>
      <point x="188.7910223196488" y="-7" type="curve" smooth="yes"/>
      <point x="132.12435565298213" y="-7"/>
      <point x="150.50257738807144" y="28"/>
      <point x="177.82824023990307" y="74" type="curve" smooth="yes"/>
      <point x="226.06802321168627" y="157"/>
      <point x="256.48472071970923" y="222"/>
      <point x="284.95397711098985" y="276" type="curve" smooth="yes"/>
      <point x="342.42838827841337" y="386"/>
      <point x="426.156665527944" y="538"/>
      <point x="433.7118017992731" y="555" type="curve" smooth="yes"/>
      <point x="444.6066840327578" y="577"/>
      <point x="461.1092614208292" y="605"/>
    </contour>
    <contour>
      <point x="109.4476261648802" y="401" type="curve" smooth="yes"/>
      <point x="121.77328901671184" y="447"/>
      <point x="136.2023513763445" y="452.3333333333333"/>
      <point x="165.2023513763445" y="452.3333333333333" type="curve" smooth="yes"/>
      <point x="217.2023513763445" y="452.3333333333333"/>
      <point x="322.9997863248156" y="450.3333333333333"/>
      <point x="334.99978632481555" y="450.3333333333333" type="curve" smooth="yes"/>
      <point x="367.99978632481555" y="450.3333333333333"/>
      <point x="480.4703005687756" y="453.3333333333333"/>
      <point x="511.9344021839134" y="451.3333333333333" type="curve" smooth="yes"/>
      <point x="534.6664529914823" y="450.3333333333333"/>
      <point x="547.7732890167118" y="447"/>
      <point x="535.1796769724491" y="400" type="curve" smooth="yes"/>
      <point x="529.5527439313955" y="379"/>
      <point x="507.104443685296" y="358.6666666666667"/>
      <point x="471.83649449286486" y="357.6666666666667" type="curve" smooth="yes"/>
      <point x="424.56854530043375" y="356.6666666666667"/>
      <point x="390.7646977231404" y="353.6666666666667"/>
      <point x="313.56854530043375" y="356.6666666666667" type="curve" smooth="yes"/>
      <point x="282.83649449286486" y="357.6666666666667"/>
      <point x="153.30059610800265" y="355.6666666666667"/>
      <point x="136.10444368529602" y="358.6666666666667" type="curve" smooth="yes"/>
      <point x="109.1762404550205" y="362.6666666666667"/>
      <point x="105.16043908598223" y="385"/>
    </contour>
    <contour>
      <point x="35.85778767865566" y="201" type="curve" smooth="yes"/>
      <point x="40.144974757553626" y="217"/>
      <point x="59.93302096580874" y="242.33333333333334"/>
      <point x="88.93302096580874" y="242.33333333333334" type="curve" smooth="yes"/>
      <point x="140.93302096580874" y="242.33333333333334"/>
      <point x="230.06378924761316" y="240.33333333333334"/>
      <point x="242.06378924761316" y="240.33333333333334" type="curve" smooth="yes"/>
      <point x="275.06378924761316" y="240.33333333333334"/>
      <point x="394.20097015823984" y="243.33333333333334"/>
      <point x="425.66507177337763" y="241.33333333333334" type="curve" smooth="yes"/>
      <point x="448.3971225809465" y="240.33333333333334"/>
      <point x="456.68087314241586" y="219"/>
      <point x="451.58983848622455" y="200" type="curve" smooth="yes"/>
      <point x="438.72827724953066" y="152"/>
      <point x="420.83511327476026" y="148.66666666666666"/>
      <point x="385.5671640823291" y="147.66666666666666" type="curve" smooth="yes"/>
      <point x="338.299214889898" y="146.66666666666666"/>
      <point x="246.23383074899579" y="147.66666666666666"/>
      <point x="208.96588155656465" y="146.66666666666666" type="curve" smooth="yes"/>
      <point x="177.96588155656465" y="146.66666666666666"/>
      <point x="77.03126569746686" y="145.66666666666666"/>
      <point x="59.83511327476024" y="148.66666666666666" type="curve" smooth="yes"/>
      <point x="32.90691004448473" y="152.66666666666666"/>
      <point x="24.60392159654851" y="159"/>
    </contour>
  </outline>
</glyph>
<glyph name="dollar" format="2">
  <advance width="500.0"/>
  <unicode hex="0024"/>
  <outline>
    <contour>
      <point x="376.78875334514044" y="615.0" type="curve" smooth="yes"/>
      <point x="452.78875334514044" y="615.0"/>
      <point x="487.8413122283981" y="604.0"/>
      <point x="518.4823283797757" y="584.0" type="curve" smooth="yes"/>
      <point x="542.1951413008777" y="568.0"/>
      <point x="579.4222675353212" y="545.8333333333334"/>
      <point x="537.2720311640325" y="498.0" type="curve" smooth="yes"/>
      <point x="489.8626054141889" y="447.33333333333337"/>
      <point x="470.93612044262767" y="470.0"/>
      <point x="456.3476631745078" y="479.0" type="curve" smooth="yes"/>
      <point x="441.29510429125014" y="490.0"/>
      <point x="426.24254540799245" y="501.0"/>
      <point x="345.24254540799245" y="501.0" type="curve" smooth="yes"/>
      <point x="291.5758787413258" y="501.0"/>
      <point x="264.01604809988874" y="497.6666666666667"/>
      <point x="247.76046375906728" y="437.0" type="curve" smooth="yes"/>
      <point x="223.109138055404" y="345.0"/>
      <point x="230.59568387141974" y="360.5"/>
      <point x="311.59568387141974" y="360.5" type="curve" smooth="yes"/>
      <point x="396.92901720475305" y="360.5"/>
      <point x="430.37067461901285" y="341"/>
      <point x="459.38796404374796" y="302.5" type="curve" smooth="yes"/>
      <point x="478.95397711098985" y="276"/>
      <point x="474.5757553759006" y="241.0"/>
      <point x="460.6423973694822" y="189.0" type="curve" smooth="yes"/>
      <point x="444.5654458236148" y="129.0"/>
      <point x="417.5077321642143" y="84.0"/>
      <point x="378.66540881398726" y="51.0" type="curve" smooth="yes"/>
      <point x="334.4833395016046" y="13.0"/>
      <point x="269.5884572681199" y="-9.0"/>
      <point x="192.5884572681199" y="-9.0" type="curve" smooth="yes"/>
      <point x="125.5884572681199" y="-9.0"/>
      <point x="70.23462819564031" y="27.0"/>
      <point x="46.14874831559185" y="64.0" type="curve" smooth="yes"/>
      <point x="32.77568135664543" y="85.0"/>
      <point x="-1.9666173204965673" y="104.0"/>
      <point x="51.27614176268031" y="154.66666666666666" type="curve" smooth="yes"/>
      <point x="99.42317181955787" y="200.0"/>
      <point x="126.78747896462802" y="180.83333333333331"/>
      <point x="138.57208865545454" y="168.83333333333331" type="curve" smooth="yes"/>
      <point x="171.85412095820965" y="128.83333333333331"/>
      <point x="202.49599623894434" y="118.16666666666666"/>
      <point x="230.49599623894434" y="118.16666666666666" type="curve" smooth="yes"/>
      <point x="288.4959962389443" y="118.16666666666666"/>
      <point x="296.902614397699" y="106.0"/>
      <point x="326.4075389708244" y="127.16666666666666" type="curve" smooth="yes"/>
      <point x="334.55668600973854" y="130.83333333333334"/>
      <point x="348.6955851790795" y="152.5"/>
      <point x="356.73406095201324" y="182.5" type="curve" smooth="yes"/>
      <point x="363.1648415703602" y="206.5"/>
      <point x="361.58279693106255" y="220.5"/>
      <point x="359.0238254189826" y="226.5" type="curve" smooth="yes"/>
      <point x="355.2240432854576" y="235.33333333333334"/>
      <point x="336.5135775494095" y="244.5"/>
      <point x="289.5135775494095" y="244.5" type="curve" smooth="yes"/>
      <point x="134.91229502364504" y="243.5"/>
      <point x="95.69415880609532" y="298.6666666666667"/>
      <point x="133.2963621439295" y="439.0" type="curve" smooth="yes"/>
      <point x="171.1665146741949" y="580.3333333333334"/>
      <point x="271.4554200118071" y="615.0"/>
    </contour>
    <contour>
      <point x="412.7413492380257" y="682.0" type="curve" smooth="yes"/>
      <point x="418.7413492380257" y="682"/>
      <point x="441.5977556985767" y="674"/>
      <point x="432.75543234834964" y="641" type="curve" smooth="yes"/>
      <point x="402.1374276414772" y="523"/>
      <point x="400.9220373323037" y="511"/>
      <point x="341.65270692176796" y="301" type="curve" smooth="yes"/>
      <point x="284.7231224733878" y="96"/>
      <point x="291.8141571295791" y="115"/>
      <point x="249.94228634059948" y="-45" type="curve" smooth="yes"/>
      <point x="239.7602170282168" y="-83"/>
      <point x="225.06148721743875" y="-108"/>
      <point x="196.06148721743875" y="-108.0" type="curve" smooth="yes"/>
      <point x="146.06148721743875" y="-108"/>
      <point x="149.95636945092343" y="-86"/>
      <point x="161.87690219969727" y="-44.0" type="curve" smooth="yes"/>
      <point x="163.81793068761732" y="-38"/>
      <point x="190.42311013684525" y="70.0"/>
      <point x="249.96038973981211" y="281.0" type="curve" smooth="yes"/>
      <point x="320.7515354248862" y="534.0"/>
      <point x="325.3194969538598" y="561"/>
      <point x="345.0823530528607" y="636.0" type="curve" smooth="yes"/>
      <point x="353.72211135155885" y="667"/>
      <point x="364.0092984304568" y="683"/>
    </contour>
  </outline>
</glyph>
<glyph name="percent" format="2">
  <advance width="500.0"/>
  <unicode hex="0025"/>
  <outline>
    <contour>
      <point x="554.2528549602782" y="613" type="curve" smooth="yes"/>
      <point x="602.4665270107374" y="606.3333333333334"/>
      <point x="540.0079172123521" y="474"/>
      <point x="525.7014922469873" y="443" type="curve" smooth="yes"/>
      <point x="487.7296584676353" y="361"/>
      <point x="421.72450369149243" y="305"/>
      <point x="355.5616722655766" y="282" type="curve" smooth="yes"/>
      <point x="173.68087314241586" y="219"/>
      <point x="142.1013442084771" y="131"/>
      <point x="111.91412011995155" y="37" type="curve" smooth="yes"/>
      <point x="97.39230484541326" y="-6"/>
      <point x="82.24871130596429" y="-14"/>
      <point x="30.516660498395403" y="-13" type="curve" smooth="yes"/>
      <point x="-6.287187078897965" y="-16"/>
      <point x="1.0384757729336798" y="30"/>
      <point x="17.828240239903078" y="74" type="curve" smooth="yes"/>
      <point x="51.211616751135246" y="165"/>
      <point x="92.52319649264292" y="252"/>
      <point x="210.5283512687858" y="308" type="curve" smooth="yes"/>
      <point x="359.5527439313955" y="379"/>
      <point x="422.25319200088785" y="422.6666666666667"/>
      <point x="462.1032475153292" y="539.6666666666666" type="curve" smooth="yes"/>
      <point x="488.54943077939214" y="601.6666666666666"/>
      <point x="482.00007821054567" y="615.1666666666666"/>
    </contour>
    <contour>
      <point x="316.7241666508828" y="495.3333333333333" type="curve" smooth="yes"/>
      <point x="305.3985037990511" y="449.3333333333333"/>
      <point x="282.75061461281643" y="394.6666666666667"/>
      <point x="257.5877831869006" y="371.6666666666667" type="curve" smooth="yes"/>
      <point x="233.15700256855365" y="347.6666666666667"/>
      <point x="204.94161225938018" y="335.6666666666667"/>
      <point x="175.94161225938018" y="335.6666666666667" type="curve" smooth="yes"/>
      <point x="148.2095614518113" y="336.6666666666667"/>
      <point x="129.08520579882918" y="343.6666666666667"/>
      <point x="118.56854530043377" y="356.6666666666667" type="curve" smooth="yes"/>
      <point x="104.6595799566251" y="375.6666666666667"/>
      <point x="107.57541833529092" y="431.3333333333333"/>
      <point x="124.45621745845165" y="494.3333333333333" type="curve" smooth="yes"/>
      <point x="134.1023883859721" y="530.3333333333334"/>
      <point x="147.80111819675014" y="555.3333333333334"/>
      <point x="174.57164477725271" y="584.3333333333334" type="curve" smooth="yes"/>
      <point x="195.73447620316853" y="607.3333333333334"/>
      <point x="223.0216632820665" y="623.3333333333334"/>
      <point x="255.75371408963537" y="622.3333333333334" type="curve" smooth="yes"/>
      <point x="283.48576489720426" y="621.3333333333334"/>
      <point x="305.07422216532416" y="612.3333333333334"/>
      <point x="314.25113670156395" y="594.3333333333334" type="curve" smooth="yes"/>
      <point x="323.7485593134925" y="566.3333333333334"/>
      <point x="328.7818803102833" y="540.3333333333334"/>
    </contour>
    <contour>
      <point x="242.56540066873526" y="484.1666666666667" type="curve" smooth="yes"/>
      <point x="246.8525877476332" y="500.1666666666667"/>
      <point x="246.31434217771695" y="505"/>
      <point x="243.18998652473482" y="512" type="curve" smooth="yes"/>
      <point x="240.9938341020282" y="515"/>
      <point x="238.190845654092" y="521.3333333333334"/>
      <point x="227.690845654092" y="521.3333333333334" type="curve" smooth="yes"/>
      <point x="222.190845654092" y="521.3333333333334"/>
      <point x="216.79768167932156" y="518"/>
      <point x="211.45793571716595" y="513" type="curve" smooth="yes"/>
      <point x="204.85024056257922" y="507"/>
      <point x="199.70664702313022" y="499"/>
      <point x="195.15151075180114" y="482" type="curve" smooth="yes"/>
      <point x="190.32842528804093" y="464"/>
      <point x="189.7207301334542" y="458"/>
      <point x="191.38098417129856" y="453" type="curve" smooth="yes"/>
      <point x="193.50533982428072" y="446"/>
      <point x="197.51089332374585" y="441.6666666666667"/>
      <point x="206.17755999041253" y="441.6666666666667" type="curve" smooth="yes"/>
      <point x="216.01089332374585" y="441.6666666666667"/>
      <point x="226.77328901671183" y="447"/>
      <point x="230.11303497886746" y="452" type="curve" smooth="yes"/>
      <point x="236.25662851831646" y="460"/>
      <point x="236.22393644786536" y="460.5"/>
    </contour>
    <contour>
      <point x="433.8491963850842" y="107.66666666666667" type="curve" smooth="yes"/>
      <point x="422.5235335332526" y="61.66666666666667"/>
      <point x="407.0209561451811" y="33.66666666666667"/>
      <point x="381.85812471926533" y="10.666666666666668" type="curve" smooth="yes"/>
      <point x="357.4273441009184" y="-13.333333333333332"/>
      <point x="329.2119537917449" y="-25.333333333333332"/>
      <point x="300.2119537917449" y="-25.333333333333332" type="curve" smooth="yes"/>
      <point x="272.479902984176" y="-24.333333333333332"/>
      <point x="253.35554733119386" y="-17.333333333333332"/>
      <point x="242.83888683279847" y="-4.333333333333332" type="curve" smooth="yes"/>
      <point x="228.9299214889898" y="14.666666666666668"/>
      <point x="224.70044806949235" y="43.66666666666667"/>
      <point x="241.58124719265308" y="106.66666666666667" type="curve" smooth="yes"/>
      <point x="251.2274181201735" y="142.66666666666666"/>
      <point x="272.07145972911485" y="194.33333333333334"/>
      <point x="298.8419863096174" y="223.33333333333334" type="curve" smooth="yes"/>
      <point x="320.0048177355332" y="246.33333333333334"/>
      <point x="347.29200481443115" y="262.3333333333333"/>
      <point x="380.02405562200005" y="261.3333333333333" type="curve" smooth="yes"/>
      <point x="407.75610642956894" y="260.3333333333333"/>
      <point x="429.34456369768884" y="251.33333333333334"/>
      <point x="438.52147823392863" y="233.33333333333334" type="curve" smooth="yes"/>
      <point x="448.0189008458572" y="205.33333333333334"/>
      <point x="445.90691004448473" y="152.66666666666666"/>
    </contour>
    <contour>
      <point x="367.2256998614592" y="124" type="curve" smooth="yes"/>
      <point x="371.5128869403572" y="140"/>
      <point x="370.85263290251277" y="145"/>
      <point x="367.72827724953066" y="152" type="curve" smooth="yes"/>
      <point x="365.53212482682403" y="155"/>
      <point x="362.13981998141077" y="161"/>
      <point x="352.13981998141077" y="161" type="curve" smooth="yes"/>
      <point x="346.13981998141077" y="161"/>
      <point x="341.3359724041174" y="158"/>
      <point x="335.99622644196177" y="153" type="curve" smooth="yes"/>
      <point x="329.38853128737503" y="147"/>
      <point x="324.24493774792603" y="139"/>
      <point x="319.689801476597" y="122" type="curve" smooth="yes"/>
      <point x="314.8667160128368" y="104"/>
      <point x="314.25902085825004" y="98"/>
      <point x="315.9192748960944" y="93" type="curve" smooth="yes"/>
      <point x="318.04363054907657" y="86"/>
      <point x="321.70388458692094" y="81"/>
      <point x="330.70388458692094" y="81" type="curve" smooth="yes"/>
      <point x="340.70388458692094" y="81"/>
      <point x="351.31157974150767" y="87"/>
      <point x="354.6513257036633" y="92" type="curve" smooth="yes"/>
      <point x="360.79491924311225" y="100"/>
      <point x="360.79491924311225" y="100"/>
    </contour>
  </outline>
</glyph>
<glyph name="ampersand" format="2">
  <advance width="500.0"/>
  <unicode hex="0026"/>
  <outline>
    <contour>
      <point x="151.3496116362395" y="532.5" type="curve" smooth="yes"/>
      <point x="185.55412514950015" y="588"/>
      <point x="237.9849057678471" y="612"/>
      <point x="291.98490576784707" y="612.0" type="curve" smooth="yes"/>
      <point x="414.98490576784707" y="612"/>
      <point x="470.99257624934876" y="566.0"/>
      <point x="452.23613277917013" y="496.0" type="curve" smooth="yes"/>
      <point x="433.47968930899157" y="426.0"/>
      <point x="307.72450369149243" y="305"/>
      <point x="239.934739224523" y="261.0" type="curve" smooth="yes"/>
      <point x="162.5372796029669" y="211"/>
      <point x="132.1013442084771" y="131"/>
      <point x="149.35005551444135" y="117" type="curve" smooth="yes"/>
      <point x="175.72312247338778" y="96"/>
      <point x="250.4410901706327" y="136"/>
      <point x="281.21161675113524" y="165" type="curve" smooth="yes"/>
      <point x="324.4654828332424" y="207"/>
      <point x="319.3936860635179" y="203"/>
      <point x="348.86294245479854" y="257" type="curve" smooth="yes"/>
      <point x="363.09757065043885" y="284"/>
      <point x="372.7963004612169" y="309"/>
      <point x="399.81553834768374" y="324" type="curve" smooth="yes"/>
      <point x="418.7629794644261" y="335"/>
      <point x="444.351436732546" y="326"/>
      <point x="452.86809723094143" y="313" type="curve" smooth="yes"/>
      <point x="461.3847577293368" y="300"/>
      <point x="457.8821803412654" y="272"/>
      <point x="439.96806022131386" y="235.0" type="curve" smooth="yes"/>
      <point x="408.819311905722" y="171"/>
      <point x="378.20646197499235" y="109"/>
      <point x="300.4692563912806" y="54" type="curve" smooth="yes"/>
      <point x="237.67949192431124" y="10"/>
      <point x="148.739951492088" y="-12.166666666666666"/>
      <point x="99.24871130596429" y="-14.0" type="curve" smooth="yes"/>
      <point x="10.432897600383505" y="-17.666666666666668"/>
      <point x="-1.4256258422040702" y="32"/>
      <point x="17.062868435543393" y="101" type="curve" smooth="yes"/>
      <point x="31.264175634392892" y="154"/>
      <point x="73.29028655571689" y="243.66666666666666"/>
      <point x="127.09928890915315" y="302.6666666666667" type="curve" smooth="yes"/>
      <point x="179.9082912625894" y="361.6666666666667"/>
      <point x="296.3918609672114" y="409.5"/>
      <point x="309.52137139633646" y="458.5" type="curve" smooth="yes"/>
      <point x="313.0940272954181" y="471.83333333333337"/>
      <point x="321.24254540799245" y="501"/>
      <point x="299.41883101789256" y="508.5" type="curve" smooth="yes"/>
      <point x="268.79768167932156" y="518"/>
      <point x="221.97459621556135" y="500"/>
      <point x="239.43354305455622" y="442.0" type="curve" smooth="yes"/>
      <point x="255.23223585570673" y="389"/>
      <point x="289.2937230731455" y="281.0"/>
      <point x="328.3411271802603" y="214.0" type="curve" smooth="yes"/>
      <point x="348.2308546376021" y="180.0"/>
      <point x="404.5795289339388" y="88.0"/>
      <point x="423.93335800641836" y="52.0" type="curve" smooth="yes"/>
      <point x="428.52181527453826" y="43.0"/>
      <point x="447.2346281956403" y="27.0"/>
      <point x="434.94744111674237" y="11.0" type="curve" smooth="yes"/>
      <point x="422.66025403784437" y="-5.0"/>
      <point x="340.5166604983954" y="-13.0"/>
      <point x="314.60769515458674" y="6.0" type="curve" smooth="yes"/>
      <point x="289.69872981077805" y="25.0"/>
      <point x="207.5706005997577" y="185.0"/>
      <point x="198.85778767865565" y="201.0" type="curve" smooth="yes"/>
      <point x="167.934739224523" y="261.0"/>
      <point x="135.480947161671" y="375.0"/>
      <point x="129.98352454974244" y="403.0" type="curve" smooth="yes"/>
      <point x="120.38098417129858" y="453.0"/>
      <point x="127.36690106097461" y="494"/>
    </contour>
  </outline>
</glyph>
<glyph name="quotesingle" format="2">
  <advance width="500.0"/>
  <unicode hex="0027"/>
  <outline>
    <contour>
      <point x="302.98352454974247" y="403" type="curve" smooth="yes"/>
      <point x="271.6501912164091" y="403"/>
      <point x="255.59763233315147" y="414"/>
      <point x="265.63610810608515" y="444" type="curve" smooth="yes"/>
      <point x="276.7463806487433" y="478"/>
      <point x="279.10536449736577" y="498"/>
      <point x="296.52206200538876" y="563" type="curve" smooth="yes"/>
      <point x="300.27335069942444" y="577"/>
      <point x="318.7759280874959" y="605"/>
      <point x="363.1092614208292" y="605" type="curve" smooth="yes"/>
      <point x="400.44259475416254" y="605"/>
      <point x="411.8874584828335" y="588"/>
      <point x="405.1887286720554" y="563" type="curve" smooth="yes"/>
      <point x="389.9156247034814" y="506"/>
      <point x="380.07330135325435" y="473"/>
      <point x="365.4989271954584" y="441" type="curve" smooth="yes"/>
      <point x="355.06814657711146" y="417"/>
      <point x="339.54014887676834" y="403.8333333333333"/>
    </contour>
  </outline>
</glyph>
<glyph name="parenleft" format="2">
  <advance width="500.0"/>
  <unicode hex="0028"/>
  <outline>
    <contour>
      <point x="93.97321499745671" y="291" type="curve" smooth="yes"/>
      <point x="185.87978800133178" y="634"/>
      <point x="424.6631398394789" y="673.0"/>
      <point x="505.5977556985767" y="674.0" type="curve" smooth="yes"/>
      <point x="542.8657048910078" y="675.0"/>
      <point x="562.6208288257944" y="666.0"/>
      <point x="544.9306286258752" y="604.3333333333334" type="curve" smooth="yes"/>
      <point x="535.028474634211" y="568.0"/>
      <point x="512.3912937235843" y="565.0"/>
      <point x="480.1233445311532" y="564.0" type="curve" smooth="yes"/>
      <point x="452.8553953387221" y="563.0"/>
      <point x="285.24770018413534" y="557"/>
      <point x="214.77706257475006" y="294" type="curve" smooth="yes"/>
      <point x="144.03847577293368" y="30"/>
      <point x="277.75128869403574" y="14.0"/>
      <point x="357.75128869403574" y="14.0" type="curve" smooth="yes"/>
      <point x="379.75128869403574" y="14.0"/>
      <point x="381.26153656360884" y="-4.0"/>
      <point x="371.7286142901403" y="-38.333333333333336" type="curve" smooth="yes"/>
      <point x="356.9858552069634" y="-89.0"/>
      <point x="331.3390553531033" y="-99.5"/>
      <point x="284.54482671904333" y="-95.0" type="curve" smooth="yes"/>
      <point x="196.825601169119" y="-84.0"/>
      <point x="1.7986928011504943" y="-53"/>
    </contour>
  </outline>
</glyph>
<glyph name="asterisk" format="2">
  <advance width="500.0"/>
  <unicode hex="002A"/>
  <outline>
    <contour>
      <point x="331.3126239190027" y="486.3333333333333" type="curve" smooth="yes"/>
      <point x="347.3126239190027" y="486.3333333333333"/>
      <point x="380.0750196119686" y="491.6666666666667"/>
      <point x="372.3044930314661" y="462.6666666666667" type="curve" smooth="yes"/>
      <point x="366.14166160555027" y="439.6666666666667"/>
      <point x="354.31513962436145" y="384.3333333333333"/>
      <point x="327.40101950440993" y="347.3333333333333" type="curve"/>
      <point x="360.5830888167926" y="385.3333333333333"/>
      <point x="415.0202820639618" y="414.3333333333333"/>
      <point x="427.36002802611745" y="419.3333333333333" type="curve" smooth="yes"/>
      <point x="457.3074691428598" y="430.3333333333333"/>
      <point x="465.05532131946694" y="407"/>
      <point x="469.3040326254312" y="393" type="curve" smooth="yes"/>
      <point x="473.5527439313955" y="379"/>
      <point x="475.6864883245936" y="344.6666666666667"/>
      <point x="447.39930124569565" y="328.6666666666667" type="curve" smooth="yes"/>
      <point x="423.9159617440911" y="315.6666666666667"/>
      <point x="373.59373540968795" y="307"/>
      <point x="331.7180910626701" y="300" type="curve"/>
      <point x="368.91424348537674" y="297"/>
      <point x="406.85996634340484" y="289.3333333333333"/>
      <point x="424.3766268418002" y="276.3333333333333" type="curve" smooth="yes"/>
      <point x="449.82149057047116" y="259.3333333333333"/>
      <point x="431.7526699121404" y="223"/>
      <point x="418.1975336408113" y="206" type="curve" smooth="yes"/>
      <point x="404.91034656191334" y="190"/>
      <point x="382.46204631581384" y="169.66666666666666"/>
      <point x="364.40948743255615" y="180.66666666666666" type="curve" smooth="yes"/>
      <point x="350.82103016443625" y="189.66666666666666"/>
      <point x="315.3889916934099" y="216.66666666666666"/>
      <point x="302.30311181336145" y="253.66666666666666" type="curve"/>
      <point x="306.5851441161165" y="213.66666666666666"/>
      <point x="290.9547745576344" y="155.33333333333334"/>
      <point x="284.1316890938742" y="137.33333333333334" type="curve" smooth="yes"/>
      <point x="274.7009084755272" y="113.33333333333334"/>
      <point x="249.45689153967095" y="113.66666666666667"/>
      <point x="230.45689153967095" y="113.66666666666667" type="curve" smooth="yes"/>
      <point x="213.45689153967095" y="113.66666666666667"/>
      <point x="186.5701401937228" y="115.33333333333334"/>
      <point x="191.26887000450088" y="140.33333333333334" type="curve" smooth="yes"/>
      <point x="194.62785385312333" y="160.33333333333334"/>
      <point x="208.18642664188098" y="214.66666666666666"/>
      <point x="233.63644514669477" y="253.66666666666666" type="curve"/>
      <point x="200.72232502674325" y="216.66666666666666"/>
      <point x="150.82103016443625" y="189.66666666666666"/>
      <point x="132.40948743255615" y="180.66666666666666" type="curve" smooth="yes"/>
      <point x="108.46204631581381" y="169.66666666666666"/>
      <point x="96.91034656191331" y="190"/>
      <point x="92.19753364081127" y="206" type="curve" smooth="yes"/>
      <point x="87.75266991214036" y="223"/>
      <point x="89.15482390380448" y="259.3333333333333"/>
      <point x="123.70996017513357" y="276.3333333333333" type="curve" smooth="yes"/>
      <point x="148.19329967673815" y="289.3333333333333"/>
      <point x="190.24757681871012" y="297"/>
      <point x="229.05142439600348" y="300" type="curve"/>
      <point x="190.92706874302132" y="307"/>
      <point x="145.2492950774244" y="315.6666666666667"/>
      <point x="128.732634579029" y="328.6666666666667" type="curve" smooth="yes"/>
      <point x="109.01982165792697" y="344.6666666666667"/>
      <point x="129.5527439313955" y="379"/>
      <point x="141.3040326254312" y="393" type="curve" smooth="yes"/>
      <point x="153.05532131946694" y="407"/>
      <point x="173.30746914285982" y="430.3333333333333"/>
      <point x="197.36002802611745" y="419.3333333333333" type="curve" smooth="yes"/>
      <point x="207.02028206396182" y="414.3333333333333"/>
      <point x="243.91642215012592" y="385.3333333333333"/>
      <point x="258.73435283774324" y="347.3333333333333" type="curve"/>
      <point x="252.52411730471266" y="391.3333333333333"/>
      <point x="273.7621820177816" y="455.6666666666667"/>
      <point x="278.7096231345239" y="466.6666666666667" type="curve" smooth="yes"/>
      <point x="290.21220052259537" y="494.6666666666667"/>
      <point x="316.3126239190027" y="486.3333333333333"/>
    </contour>
  </outline>
</glyph>
<glyph name="plus" format="2">
  <advance width="500.0"/>
  <unicode hex="002B"/>
  <outline>
    <contour>
      <point x="82.65270692176793" y="301" type="curve" smooth="yes"/>
      <point x="86.93989400066589" y="317"/>
      <point x="111.86363306385086" y="361.5"/>
      <point x="140.86363306385084" y="361.5" type="curve" smooth="yes"/>
      <point x="192.86363306385084" y="361.5"/>
      <point x="252.8277346789886" y="359.5"/>
      <point x="264.8277346789886" y="359.5" type="curve" smooth="yes"/>
      <point x="297.8277346789886" y="359.5"/>
      <point x="426.13158225628194" y="362.5"/>
      <point x="457.59568387141974" y="360.5" type="curve" smooth="yes"/>
      <point x="480.3277346789886" y="359.5"/>
      <point x="483.47579238552817" y="319"/>
      <point x="478.3847577293368" y="300" type="curve" smooth="yes"/>
      <point x="473.0257738807144" y="280"/>
      <point x="445.441780779685" y="240.5"/>
      <point x="410.17383158725386" y="239.5" type="curve" smooth="yes"/>
      <point x="362.90588239482275" y="238.5"/>
      <point x="261.67383158725386" y="239.5"/>
      <point x="224.40588239482275" y="238.5" type="curve" smooth="yes"/>
      <point x="193.40588239482275" y="238.5"/>
      <point x="121.63793320239165" y="237.5"/>
      <point x="104.441780779685" y="240.5" type="curve" smooth="yes"/>
      <point x="77.5135775494095" y="244.5"/>
      <point x="78.63346903530109" y="286"/>
    </contour>
    <contour>
      <point x="334.4386978306991" y="498" type="curve" smooth="yes"/>
      <point x="350.4386978306991" y="498"/>
      <point x="389.4553583290945" y="485"/>
      <point x="382.68483174859193" y="456" type="curve" smooth="yes"/>
      <point x="373.6271180891914" y="411"/>
      <point x="344.1719448082348" y="316"/>
      <point x="341.9565544990613" y="304" type="curve" smooth="yes"/>
      <point x="339.2052658050256" y="290"/>
      <point x="307.319311905722" y="171"/>
      <point x="296.74493774792603" y="139" type="curve" smooth="yes"/>
      <point x="289.58210632201025" y="116"/>
      <point x="246.3308176279745" y="102"/>
      <point x="227.3308176279745" y="102" type="curve" smooth="yes"/>
      <point x="207.3308176279745" y="102"/>
      <point x="172.38595389930362" y="119"/>
      <point x="180.7641756343929" y="154" type="curve" smooth="yes"/>
      <point x="192.35778767865565" y="201"/>
      <point x="213.18602791855875" y="275"/>
      <point x="222.10014803851027" y="312" type="curve" smooth="yes"/>
      <point x="230.40657300387508" y="343"/>
      <point x="255.93354305455622" y="442"/>
      <point x="263.75662851831646" y="460" type="curve" smooth="yes"/>
      <point x="275.2592059063879" y="488"/>
      <point x="319.4386978306991" y="498"/>
    </contour>
  </outline>
</glyph>
<glyph name="comma" format="2">
  <advance width="500.0"/>
  <unicode hex="002C"/>
  <anchor x="216.97011552063776" y="63.33333333333333" name="center"/>
  <outline>
    <contour>
      <point x="294.57139804640224" y="64.33333333333333" type="curve" smooth="yes"/>
      <point x="283.5119661282874" y="0.666666666666667"/>
      <point x="265.0946396939247" y="-38.833333333333336"/>
      <point x="237.05851110604505" y="-75.66666666666667" type="curve" smooth="yes"/>
      <point x="197.56852877260073" y="-128.5"/>
      <point x="152.0986434549804" y="-157"/>
      <point x="55.812315505439585" y="-163.66666666666666" type="curve" smooth="yes"/>
      <point x="32.54436631300847" y="-164.66666666666666"/>
      <point x="22.31638094920787" y="-151.83333333333334"/>
      <point x="22.133053784145787" y="-138.83333333333334" type="curve" smooth="yes"/>
      <point x="20.73691369798169" y="-109.83333333333333"/>
      <point x="23.393332495075242" y="-91.83333333333333"/>
      <point x="45.67090063073978" y="-83.33333333333333" type="curve" smooth="yes"/>
      <point x="86.85680518387329" y="-68.33333333333334"/>
      <point x="139.095038417247" y="-99.16666666666666"/>
      <point x="163.25512393478655" y="-9" type="curve"/>
      <point x="132.25512393478655" y="-9"/>
      <point x="124.22180293799573" y="17"/>
      <point x="137.70857895702892" y="67.33333333333333" type="curve" smooth="yes"/>
      <point x="153.33894851551108" y="125.66666666666666"/>
      <point x="182.62613559440905" y="141.66666666666666"/>
      <point x="234.95946892774236" y="141.66666666666666" type="curve" smooth="yes"/>
      <point x="293.2928022610757" y="141.66666666666666"/>
      <point x="304.11245120740733" y="122.33333333333333"/>
    </contour>
  </outline>
</glyph>
<glyph name="hyphen" format="2">
  <advance width="500.0"/>
  <unicode hex="002D"/>
  <outline>
    <contour>
      <point x="82.38475772933681" y="300" type="curve" smooth="yes"/>
      <point x="94.71042058116845" y="346"/>
      <point x="111.59568387141974" y="360.5"/>
      <point x="140.59568387141974" y="360.5" type="curve" smooth="yes"/>
      <point x="192.59568387141974" y="360.5"/>
      <point x="280.0597854865575" y="358.5"/>
      <point x="292.0597854865575" y="358.5" type="curve" smooth="yes"/>
      <point x="325.0597854865575" y="358.5"/>
      <point x="425.86363306385084" y="361.5"/>
      <point x="457.3277346789886" y="359.5" type="curve" smooth="yes"/>
      <point x="480.0597854865575" y="358.5"/>
      <point x="491.2463189660307" y="348"/>
      <point x="478.1168085369057" y="299" type="curve" smooth="yes"/>
      <point x="464.45139972291844" y="248"/>
      <point x="444.90588239482275" y="238.5"/>
      <point x="409.63793320239165" y="237.5" type="curve" smooth="yes"/>
      <point x="362.3699840099605" y="236.5"/>
      <point x="288.63793320239165" y="237.5"/>
      <point x="251.36998400996052" y="236.5" type="curve" smooth="yes"/>
      <point x="220.36998400996052" y="236.5"/>
      <point x="121.10203481752939" y="235.5"/>
      <point x="103.90588239482275" y="238.5" type="curve" smooth="yes"/>
      <point x="76.97767916454725" y="242.5"/>
      <point x="70.05909487750516" y="254"/>
    </contour>
  </outline>
</glyph>
<glyph name="period" format="2">
  <advance width="500.0"/>
  <unicode hex="002E"/>
  <anchor x="216.97011552063776" y="63.33333333333333" name="center"/>
  <outline>
    <contour>
      <point x="295.3034488539711" y="63.33333333333333" type="curve" smooth="yes"/>
      <point x="276.7256381787466" y="-6"/>
      <point x="254.31409544686647" y="-15"/>
      <point x="195.98076211353316" y="-15" type="curve" smooth="yes"/>
      <point x="136.64742878019982" y="-15"/>
      <point x="121.13076828180442" y="-2"/>
      <point x="138.63678218730442" y="63.33333333333333" type="curve" smooth="yes"/>
      <point x="155.6068977079422" y="126.66666666666666"/>
      <point x="178.62613559440905" y="141.66666666666666"/>
      <point x="237.95946892774236" y="141.66666666666666" type="curve" smooth="yes"/>
      <point x="295.2928022610757" y="141.66666666666666"/>
      <point x="312.54151356704" y="127.66666666666666"/>
    </contour>
  </outline>
</glyph>
<glyph name="slash" format="2">
  <advance width="500.0"/>
  <unicode hex="002F"/>
  <outline>
    <contour>
      <point x="563.6310766953675" y="648" type="curve" smooth="yes"/>
      <point x="593.7394007762939" y="628.5"/>
      <point x="590.9434538835197" y="614.3333333333334"/>
      <point x="581.2695154586736" y="600" type="curve" smooth="yes"/>
      <point x="501.31027673394874" y="493.1666666666667"/>
      <point x="491.1874091366634" y="484"/>
      <point x="341.6168085369057" y="299" type="curve" smooth="yes"/>
      <point x="195.38595389930362" y="119"/>
      <point x="210.67314097820156" y="135"/>
      <point x="98.62435565298213" y="-7" type="curve" smooth="yes"/>
      <point x="71.51408311032397" y="-41"/>
      <point x="48.49633327955398" y="-72.16666666666667"/>
      <point x="3.1384387633061124" y="-48" type="curve" smooth="yes"/>
      <point x="-35.86860279185588" y="-27.5"/>
      <point x="-29.303847577293368" y="-3"/>
      <point x="-5.801270189221931" y="25" type="curve" smooth="yes"/>
      <point x="-1.4615242270663202" y="30"/>
      <point x="73.26159824632146" y="126"/>
      <point x="224.10014803851027" y="312" type="curve" smooth="yes"/>
      <point x="404.5848687582195" y="534"/>
      <point x="423.23573405584796" y="556.3333333333334"/>
      <point x="474.2361944618828" y="626" type="curve" smooth="yes"/>
      <point x="516.2174169814508" y="680.6666666666666"/>
      <point x="533.8082214346248" y="664.8333333333334"/>
    </contour>
  </outline>
</glyph>
<glyph name="zero" format="2">
  <advance width="500.0"/>
  <unicode hex="0030"/>
  <anchor x="200.0" y="0.0" name="bottom"/>
  <anchor x="360.7695154586736" y="600.0" name="top"/>
  <outline>
    <contour>
      <point x="364.78875334514044" y="615.0" type="curve" smooth="yes"/>
      <point x="454.78875334514044" y="615.0"/>
      <point x="489.3810458540112" y="583.0"/>
      <point x="502.08870399897035" y="511.0" type="curve" smooth="yes"/>
      <point x="511.4950919547076" y="464.0"/>
      <point x="510.34634363911573" y="400.0"/>
      <point x="483.8193735884346" y="301.0" type="curve" smooth="yes"/>
      <point x="458.6321494999091" y="207.0"/>
      <point x="433.1436552221616" y="138.0"/>
      <point x="397.2820939854677" y="90.0" type="curve" smooth="yes"/>
      <point x="340.9179553607024" y="14.0"/>
      <point x="279.71281292110206" y="-16.0"/>
      <point x="196.71281292110203" y="-16.0" type="curve" smooth="yes"/>
      <point x="119.71281292110203" y="-16.0"/>
      <point x="92.24487606521345" y="9.0"/>
      <point x="65.37438649433844" y="58.0" type="curve" smooth="yes"/>
      <point x="38.503896923463465" y="107.0"/>
      <point x="47.74367989524665" y="190.0"/>
      <point x="77.48604025510127" y="301.0" type="curve" smooth="yes"/>
      <point x="108.83609576954262" y="418.0"/>
      <point x="149.4681835867391" y="495.0"/>
      <point x="203.59769401586408" y="544.0" type="curve" smooth="yes"/>
      <point x="252.6554076752646" y="589.0"/>
      <point x="291.78875334514044" y="615.0"/>
    </contour>
    <contour>
      <point x="332.0989518685435" y="493" type="curve" smooth="yes"/>
      <point x="307.0989518685435" y="493"/>
      <point x="272.93612044262767" y="470"/>
      <point x="247.1655938621251" y="441" type="curve" smooth="yes"/>
      <point x="225.1989148589159" y="415"/>
      <point x="202.99760766006642" y="362"/>
      <point x="187.18860530663017" y="303" type="curve" smooth="yes"/>
      <point x="172.1834505304873" y="247"/>
      <point x="161.17829575434445" y="191"/>
      <point x="170.47956594356637" y="166" type="curve" smooth="yes"/>
      <point x="178.12058209494393" y="146"/>
      <point x="195.54620793714798" y="114"/>
      <point x="231.54620793714798" y="114" type="curve" smooth="yes"/>
      <point x="269.546207937148" y="114"/>
      <point x="297.9769885554949" y="138"/>
      <point x="324.8911086754465" y="175" type="curve" smooth="yes"/>
      <point x="345.1975336408113" y="206"/>
      <point x="361.2552473002118" y="251"/>
      <point x="375.18860530663017" y="303" type="curve" smooth="yes"/>
      <point x="390.46170927520416" y="360"/>
      <point x="395.78737212703584" y="406"/>
      <point x="391.4861019378139" y="431" type="curve" smooth="yes"/>
      <point x="385.06047609560983" y="463"/>
      <point x="365.0989518685435" y="493"/>
    </contour>
    <contour>
      <point x="157.5372796029669" y="211" type="line"/>
      <point x="383.8117647896455" y="477" type="line"/>
      <point x="402.768134240569" y="391" type="line"/>
      <point x="181.1013442084771" y="131" type="line"/>
    </contour>
  </outline>
</glyph>
<glyph name="one" format="2">
  <advance width="500.0"/>
  <unicode hex="0031"/>
  <anchor x="226.0" y="0" name="bottom"/>
  <anchor x="386.7695154586736" y="600" name="top"/>
  <outline>
    <contour>
      <point x="263.9309656664848" y="414" type="curve"/>
      <point x="248.25147374217357" y="404"/>
      <point x="244.7155753573113" y="402"/>
      <point x="221.65167927210598" y="386.83333333333337" type="curve" smooth="yes"/>
      <point x="191.56064461591464" y="367.83333333333337"/>
      <point x="187.22089865375904" y="362.83333333333337"/>
      <point x="172.07730511431004" y="354.83333333333337" type="curve" smooth="yes"/>
      <point x="140.25421965054983" y="336.83333333333337"/>
      <point x="132.5016731038347" y="373.8333333333333"/>
      <point x="127.58222968743546" y="376" type="curve" smooth="yes"/>
      <point x="95.7794714425167" y="417.1666666666667"/>
      <point x="109.62007653402944" y="431.5"/>
      <point x="163.4002220577654" y="468" type="curve" smooth="yes"/>
      <point x="212.24254540799248" y="501"/>
      <point x="216.04639298528585" y="504"/>
      <point x="227.18998652473482" y="512" type="curve" smooth="yes"/>
      <point x="258.0848687582195" y="534"/>
      <point x="321.33873484032665" y="576"/>
      <point x="346.2336170738114" y="598" type="curve" smooth="yes"/>
      <point x="366.78875334514044" y="615"/>
      <point x="416.98490576784707" y="612"/>
      <point x="423.4656678813802" y="597" type="curve" smooth="yes"/>
      <point x="428.75027757220676" y="585"/>
      <point x="418.20653665048485" y="554.9803501972127"/>
      <point x="413.656665527944" y="538" type="curve" smooth="yes"/>
      <point x="394.16817125019656" y="469"/>
      <point x="402.4027994458369" y="496"/>
      <point x="356.5834875401149" y="325" type="curve" smooth="yes"/>
      <point x="335.14755214562507" y="245"/>
      <point x="326.9926214042284" y="210.83333333333331"/>
      <point x="300.7423603598546" y="111" type="curve"/>
      <point x="182.01030955228575" y="112" type="line"/>
      <point x="188.4323303567564" y="137.83333333333331"/>
      <point x="223" y="265"/>
      <point x="233.9565544990613" y="304" type="curve" smooth="yes"/>
      <point x="244" y="340"/>
      <point x="254.10606044862834" y="377.3329545474111"/>
    </contour>
    <contour>
      <point x="23.414979249308686" y="46.33333333333333" type="curve" smooth="yes"/>
      <point x="38.598766820405636" y="103"/>
      <point x="62.27035806019773" y="124.16666666666666"/>
      <point x="91.0742056374911" y="127.16666666666666" type="curve" smooth="yes"/>
      <point x="113.61010402235334" y="129.16666666666666"/>
      <point x="159.5742056374911" y="127.16666666666666"/>
      <point x="200.11010402235334" y="129.16666666666666" type="curve" smooth="yes"/>
      <point x="237.64600240721558" y="131.16666666666666"/>
      <point x="336.61010402235337" y="129.16666666666666"/>
      <point x="384.3421548299222" y="128.16666666666666" type="curve" smooth="yes"/>
      <point x="416.0742056374911" y="127.16666666666666"/>
      <point x="426.0628684355434" y="101"/>
      <point x="412.218826826602" y="49.33333333333333" type="curve" smooth="yes"/>
      <point x="407.1277921704107" y="30.333333333333332"/>
      <point x="387.2679491924311" y="1"/>
      <point x="360.0" y="0" type="curve" smooth="yes"/>
      <point x="305.46410161513774" y="-2"/>
      <point x="244.26794919243113" y="1"/>
      <point x="190.0" y="0" type="curve" smooth="yes"/>
      <point x="167.0" y="0"/>
      <point x="102.46410161513776" y="-2"/>
      <point x="51.0" y="0" type="curve" smooth="yes"/>
      <point x="19.267949192431125" y="1"/>
      <point x="18.323944593117353" y="27.333333333333332"/>
    </contour>
  </outline>
</glyph>
<glyph name="two" format="2">
  <advance width="500.0"/>
  <unicode hex="0032"/>
  <anchor x="200.0" y="0.0" name="bottom"/>
  <anchor x="360.7695154586736" y="600.0" name="top"/>
  <outline>
    <contour>
      <point x="14.414979249308686" y="46.33333333333333" type="curve" smooth="yes"/>
      <point x="49" y="174"/>
      <point x="200.06550750632744" y="259"/>
      <point x="259.39117035815906" y="305" type="curve" smooth="yes"/>
      <point x="344.0758170586132" y="371"/>
      <point x="389.0273236191238" y="393.8333333333333"/>
      <point x="389.7207301334542" y="458" type="curve" smooth="yes"/>
      <point x="389.33014354675527" y="482.6666666666667"/>
      <point x="381.51198265612044" y="485.83333333333337"/>
      <point x="325.1786493227871" y="485.83333333333337" type="curve" smooth="yes"/>
      <point x="285.1786493227871" y="485.83333333333337"/>
      <point x="216.55961696625266" y="453.6666666666667"/>
      <point x="183.59293796304348" y="427.6666666666667" type="curve" smooth="yes"/>
      <point x="163.3057508841455" y="411.6666666666667"/>
      <point x="141.87840678322715" y="425"/>
      <point x="133.8258478999695" y="436" type="curve" smooth="yes"/>
      <point x="98.93142607251968" y="483.6666666666667"/>
      <point x="126.69554002419996" y="507.6666666666667"/>
      <point x="163.8887163355129" y="537" type="curve" smooth="yes"/>
      <point x="203.19514130087768" y="568"/>
      <point x="277.71695657541596" y="611"/>
      <point x="355.71695657541596" y="611" type="curve" smooth="yes"/>
      <point x="444.71695657541596" y="611"/>
      <point x="545.528474634211" y="568"/>
      <point x="522.0540634667875" y="458" type="curve" smooth="yes"/>
      <point x="493.5779340406497" y="329.3333333333333"/>
      <point x="405.5967115210817" y="274.6666666666667"/>
      <point x="346.27104866925004" y="228.66666666666666" type="curve" smooth="yes"/>
      <point x="260.94366755870413" y="164"/>
      <point x="229.53212482682403" y="155"/>
      <point x="208.56544582361482" y="129" type="curve"/>
      <point x="211.89862931267513" y="129"/>
      <point x="215.2311388873335" y="128.98169981026552"/>
      <point x="218.61010402235334" y="129.16666666666666" type="curve" smooth="yes"/>
      <point x="256.1460024072156" y="131.16666666666666"/>
      <point x="337.61010402235337" y="129.16666666666666"/>
      <point x="385.3421548299222" y="128.16666666666666" type="curve" smooth="yes"/>
      <point x="417.0742056374911" y="127.16666666666666"/>
      <point x="427.0628684355434" y="101"/>
      <point x="413.218826826602" y="49.33333333333333" type="curve" smooth="yes"/>
      <point x="403.2153903091735" y="12"/>
      <point x="388.2679491924311" y="1"/>
      <point x="361.0" y="0" type="curve" smooth="yes"/>
      <point x="306.46410161513774" y="-2"/>
      <point x="235.26794919243113" y="1"/>
      <point x="181.0" y="0" type="curve" smooth="yes"/>
      <point x="158.0" y="0"/>
      <point x="93.46410161513776" y="-2"/>
      <point x="42.0" y="0" type="curve" smooth="yes"/>
      <point x="15.230212228275548" y="0.8436198446190311"/>
      <point x="8" y="21"/>
    </contour>
  </outline>
</glyph>
<glyph name="three" format="2">
  <advance width="500.0"/>
  <unicode hex="0033"/>
  <anchor x="200.0" y="0.0" name="bottom"/>
  <anchor x="360.7695154586736" y="600.0" name="top"/>
  <outline>
    <contour>
      <point x="322.2026884169542" y="262" type="curve"/>
      <point x="429.9398940006659" y="317" type="line"/>
      <point x="452.18860530663017" y="303"/>
      <point x="482.1642126440205" y="232"/>
      <point x="448.9244296722373" y="149" type="curve" smooth="yes"/>
      <point x="391.87564434701784" y="7"/>
      <point x="268.7846096908265" y="-12"/>
      <point x="188.32050807568876" y="-10" type="curve" smooth="yes"/>
      <point x="87.85640646055103" y="-8"/>
      <point x="58.287187078897965" y="16"/>
      <point x="21.80900235343624" y="59" type="curve" smooth="yes"/>
      <point x="11.02439266260971" y="71"/>
      <point x="-23.473029949318853" y="99"/>
      <point x="22.780836132788302" y="141" type="curve" smooth="yes"/>
      <point x="66.37444817705106" y="188"/>
      <point x="83.76675302246433" y="182"/>
      <point x="96.675718366273" y="163" type="curve" smooth="yes"/>
      <point x="117.17314097820156" y="135"/>
      <point x="160.79491924311228" y="100"/>
      <point x="228.09321332094052" y="107.33333333333333" type="curve" smooth="yes"/>
      <point x="292.546207937148" y="114"/>
      <point x="310.2528384324452" y="127.83333333333333"/>
      <point x="337.8727299183368" y="169.33333333333334" type="curve" smooth="yes"/>
      <point x="374.82767299627596" y="229.5"/>
      <point x="324.22576154417186" y="254"/>
    </contour>
    <contour>
      <point x="302.087721504188" y="241.66666666666666" type="curve" smooth="yes"/>
      <point x="279.48002634960125" y="235.66666666666666"/>
      <point x="238.92019570816416" y="232.33333333333334"/>
      <point x="235.91103717096564" y="294.5" type="curve" smooth="yes"/>
      <point x="234.4144736883942" y="331.8333333333333"/>
      <point x="274.00550834458556" y="350.8333333333333"/>
      <point x="289.30059610800265" y="355.6666666666667" type="curve" smooth="yes"/>
      <point x="373.5112920470681" y="381.3333333333333"/>
      <point x="407.32327051189804" y="408"/>
      <point x="410.44081481273565" y="456.3333333333333" type="curve" smooth="yes"/>
      <point x="412.7592059063879" y="488"/>
      <point x="367.0989518685435" y="493"/>
      <point x="329.0989518685435" y="493" type="curve" smooth="yes"/>
      <point x="289.0989518685435" y="493"/>
      <point x="220.01581789687128" y="462.83333333333337"/>
      <point x="187.0491388936621" y="436.83333333333337" type="curve" smooth="yes"/>
      <point x="166.76195181476413" y="420.83333333333337"/>
      <point x="158.75553918594187" y="415.83333333333337"/>
      <point x="137.2820488305881" y="445.1666666666667" type="curve" smooth="yes"/>
      <point x="102.3876270031383" y="492.8333333333333"/>
      <point x="150.94127521877053" y="526"/>
      <point x="164.8887163355129" y="537" type="curve" smooth="yes"/>
      <point x="204.19514130087768" y="568"/>
      <point x="278.71695657541596" y="611"/>
      <point x="356.71695657541596" y="611" type="curve" smooth="yes"/>
      <point x="445.71695657541596" y="611"/>
      <point x="547.0643730190733" y="570"/>
      <point x="523.5899618516497" y="460" type="curve" smooth="yes"/>
      <point x="504.45529664638184" y="355"/>
      <point x="438.6620956619839" y="273.6666666666667"/>
    </contour>
  </outline>
</glyph>
<glyph name="four" format="2">
  <advance width="500.0"/>
  <unicode hex="0034"/>
  <anchor x="221.0" y="0.0" name="bottom"/>
  <anchor x="381.7695154586736" y="600.0" name="top"/>
  <outline>
    <contour>
      <point x="478.44900738298486" y="610" type="line"/>
      <point x="484.44900738298486" y="610"/>
      <point x="511.47208051020255" y="602"/>
      <point x="502.6297571599755" y="569" type="curve" smooth="yes"/>
      <point x="474.83483791686325" y="469"/>
      <point x="483.0694661125035" y="496"/>
      <point x="437.25015420678153" y="325" type="curve" smooth="yes"/>
      <point x="415.81421881229176" y="245"/>
      <point x="387.07185845243714" y="134"/>
      <point x="365.6359230579473" y="54" type="curve" smooth="yes"/>
      <point x="355.45385374556463" y="16"/>
      <point x="355.9217906014532" y="-9"/>
      <point x="300.2551239347866" y="-9" type="curve" smooth="yes"/>
      <point x="221.5884572681199" y="-9"/>
      <point x="244.49616475924915" y="23"/>
      <point x="254.07053891704507" y="55" type="curve" smooth="yes"/>
      <point x="255.6782340716318" y="61"/>
      <point x="309.8932873401956" y="263.3333333333333"/>
      <point x="321.3433058450094" y="302.3333333333333" type="curve" smooth="yes"/>
      <point x="315.18047441909357" y="279.3333333333333"/>
      <point x="382.34640532182834" y="530"/>
      <point x="391.45667786448655" y="564" type="curve"/>
    </contour>
    <contour>
      <point x="52.451399722918424" y="248" type="curve" smooth="yes"/>
      <point x="57.81038357154088" y="268"/>
      <point x="83.9381757419516" y="298.3333333333333"/>
      <point x="112.74202331924496" y="301.3333333333333" type="curve" smooth="yes"/>
      <point x="135.2779217041072" y="303.3333333333333"/>
      <point x="208.74202331924496" y="301.3333333333333"/>
      <point x="249.2779217041072" y="303.3333333333333" type="curve" smooth="yes"/>
      <point x="286.81382008896946" y="305.3333333333333"/>
      <point x="398.2779217041072" y="303.3333333333333"/>
      <point x="446.0099725116761" y="302.3333333333333" type="curve" smooth="yes"/>
      <point x="477.74202331924494" y="301.3333333333333"/>
      <point x="490.1868870479159" y="284.3333333333333"/>
      <point x="481.2552473002118" y="251" type="curve" smooth="yes"/>
      <point x="471.2518107827832" y="213.66666666666666"/>
      <point x="451.39196780480364" y="184.33333333333334"/>
      <point x="424.1240186123725" y="183.33333333333334" type="curve" smooth="yes"/>
      <point x="369.5881202275103" y="181.33333333333334"/>
      <point x="268.39196780480364" y="184.33333333333334"/>
      <point x="214.12401861237248" y="183.33333333333334" type="curve" smooth="yes"/>
      <point x="191.12401861237248" y="183.33333333333334"/>
      <point x="126.58812022751025" y="181.33333333333334"/>
      <point x="75.1240186123725" y="183.33333333333334" type="curve" smooth="yes"/>
      <point x="43.39196780480362" y="184.33333333333334"/>
      <point x="47.3603650667271" y="229"/>
    </contour>
    <contour>
      <point x="169.01678386382062" y="247" type="curve"/>
      <point x="52.451399722918424" y="248" type="line"/>
      <point x="67.4565544990613" y="304"/>
      <point x="128.63862381144395" y="342"/>
      <point x="252.64893336372972" y="454" type="curve" smooth="yes"/>
      <point x="339.8169195657884" y="533"/>
      <point x="430.44900738298486" y="610"/>
      <point x="478.44900738298486" y="610" type="curve"/>
      <point x="446.13399112404863" y="485.6666666666667" type="line"/>
      <point x="377.8147409010393" y="444.6666666666667"/>
      <point x="343.1271180891914" y="411"/>
      <point x="302.6476138283377" y="375" type="curve" smooth="yes"/>
      <point x="254.56041441289716" y="333"/>
      <point x="199.42300329925303" y="295.1666666666667"/>
    </contour>
  </outline>
</glyph>
<glyph name="five" format="2">
  <advance width="500.0"/>
  <unicode hex="0035"/>
  <anchor x="200.0" y="0.0" name="bottom"/>
  <anchor x="360.7695154586736" y="600.0" name="top"/>
  <outline>
    <contour>
      <point x="158.46950312213107" y="574" type="curve" smooth="yes"/>
      <point x="163.56053777832244" y="593"/>
      <point x="192.03746465110473" y="601"/>
      <point x="224.30541384353586" y="602" type="curve" smooth="yes"/>
      <point x="276.8413122283981" y="604"/>
      <point x="330.30541384353586" y="602"/>
      <point x="353.30541384353586" y="602" type="curve" smooth="yes"/>
      <point x="407.03746465110476" y="601"/>
      <point x="445.8413122283981" y="604"/>
      <point x="499.30541384353586" y="602" type="curve" smooth="yes"/>
      <point x="526.0374646511048" y="601"/>
      <point x="537.546224464981" y="599.1666666666666"/>
      <point x="522.6303860863152" y="543.5" type="curve" smooth="yes"/>
      <point x="513.698746338611" y="510.1666666666667"/>
      <point x="492.143610067282" y="493.1666666666667"/>
      <point x="459.8756608748509" y="492.1666666666667" type="curve" smooth="yes"/>
      <point x="411.6077116824198" y="491.1666666666667"/>
      <point x="363.0718132975575" y="489.1666666666667"/>
      <point x="326.6077116824198" y="491.1666666666667" type="curve" smooth="yes"/>
      <point x="287.143610067282" y="493.1666666666667"/>
      <point x="250.10771168241976" y="491.1666666666667"/>
      <point x="228.64361006728203" y="493.1666666666667" type="curve" smooth="yes"/>
      <point x="201.4474576445754" y="496.1666666666667"/>
      <point x="153.11051927350866" y="554"/>
    </contour>
    <contour>
      <point x="337.1423973694822" y="189" type="curve" smooth="yes"/>
      <point x="353.84891418602376" y="251.34956957683713"/>
      <point x="345.2228549634225" y="296"/>
      <point x="276.3129609596123" y="296" type="curve" smooth="yes"/>
      <point x="232.31296095961233" y="296"/>
      <point x="172.6667900320919" y="260"/>
      <point x="127.39884083966078" y="259" type="curve"/>
      <point x="157.0694044297909" y="366" type="line"/>
      <point x="199.5360834330001" y="392"/>
      <point x="267.7523328715307" y="413.3333333333333"/>
      <point x="306.7523328715307" y="413.3333333333333" type="curve" smooth="yes"/>
      <point x="453.87076508518976" y="413.3333333333333"/>
      <point x="492.7856882130718" y="320.1565469734466"/>
      <point x="456.3026514073266" y="184" type="curve" smooth="yes"/>
      <point x="417.1820693123827" y="38"/>
      <point x="279.856406460551" y="-8"/>
      <point x="169.85640646055103" y="-8" type="curve" smooth="yes"/>
      <point x="97.85640646055103" y="-8"/>
      <point x="64.94744111674234" y="11"/>
      <point x="14.880799123160728" y="63" type="curve" smooth="yes"/>
      <point x="-9.152521873630079" y="89"/>
      <point x="-7.185842870420888" y="115"/>
      <point x="30.192378864668406" y="150" type="curve" smooth="yes"/>
      <point x="71.10649898461995" y="187"/>
      <point x="83.0872610981531" y="172"/>
      <point x="100.06802321168627" y="157" type="curve" smooth="yes"/>
      <point x="125.90519178577044" y="134"/>
      <point x="175.35005551444135" y="117"/>
      <point x="211.35005551444135" y="117" type="curve" smooth="yes"/>
      <point x="298.35005551444135" y="117"/>
      <point x="333.74837426535464" y="176.33333333333331"/>
    </contour>
    <contour>
      <point x="158.46950312213107" y="574" type="curve"/>
      <point x="246.8590003764555" y="505.1666666666667" type="line"/>
      <point x="245.83976248998866" y="490.1666666666667"/>
      <point x="242.50001652783303" y="485.1666666666667"/>
      <point x="237.1935915624682" y="454.1666666666667" type="curve" smooth="yes"/>
      <point x="229.2794714425167" y="417.1666666666667"/>
      <point x="223.16301647405368" y="413"/>
      <point x="213.5694044297909" y="366" type="curve" smooth="yes"/>
      <point x="205.72708107956385" y="333"/>
      <point x="143.6667900320919" y="260"/>
      <point x="127.39884083966078" y="259" type="curve" smooth="yes"/>
      <point x="108.13089164722966" y="258"/>
      <point x="76.54884700793204" y="272"/>
      <point x="84.97962762627898" y="296" type="curve" smooth="yes"/>
      <point x="95.75015420678154" y="325"/>
      <point x="127.85149841525862" y="456"/>
      <point x="136.96177095791677" y="490" type="curve" smooth="yes"/>
      <point x="140.17716126709024" y="502"/>
      <point x="146.5361451157127" y="522"/>
    </contour>
  </outline>
</glyph>
<glyph name="six" format="2">
  <advance width="500.0"/>
  <unicode hex="0036"/>
  <anchor x="200.0" y="0.0" name="bottom"/>
  <anchor x="380.7695154586736" y="600.0" name="top"/>
  <outline>
    <contour>
      <point x="183.30780618346944" y="240" type="curve" smooth="yes"/>
      <point x="190.82069312382663" y="380"/>
      <point x="244.68225436052052" y="428"/>
      <point x="296.52457771074756" y="461" type="curve" smooth="yes"/>
      <point x="352.9027994458369" y="496"/>
      <point x="391.56305348368124" y="491"/>
      <point x="451.6156123669389" y="480" type="curve" smooth="yes"/>
      <point x="479.00791721235214" y="474"/>
      <point x="504.88356155937004" y="481"/>
      <point x="532.6207671430818" y="536" type="curve" smooth="yes"/>
      <point x="554.4105316100512" y="580"/>
      <point x="522.8413122283981" y="604"/>
      <point x="481.98490576784707" y="612" type="curve" smooth="yes"/>
      <point x="411.93234688458944" y="623"/>
      <point x="364.2528549602782" y="613"/>
      <point x="301.8220743419313" y="589" type="curve" smooth="yes"/>
      <point x="184.76436068253074" y="544"/>
      <point x="90.38974398517486" y="451.1666666666667"/>
      <point x="58.86466071351283" y="275.6666666666667" type="curve" smooth="yes"/>
      <point x="39.97721875851237" y="172.83333333333331"/>
      <point x="27.84513094131593" y="95.83333333333333"/>
      <point x="58.31690303795537" y="47.83333333333333" type="curve" smooth="yes"/>
      <point x="110.77413161823597" y="-28.83333333333333"/>
      <point x="164.5166604983954" y="-13.0"/>
      <point x="197.5166604983954" y="-13.0" type="curve" smooth="yes"/>
      <point x="341.1833271650621" y="-13.0"/>
      <point x="443.4679985386012" y="105.0"/>
      <point x="469.99496858928234" y="204.0" type="curve" smooth="yes"/>
      <point x="489.5552596367543" y="277.0"/>
      <point x="511.9976076600664" y="362"/>
      <point x="384.57198181786237" y="394" type="curve" smooth="yes"/>
      <point x="299.19891485891594" y="415"/>
      <point x="204.6578616979108" y="357"/>
      <point x="152.15654216251875" y="278.0" type="curve"/>
      <point x="168.3359724041174" y="158" type="line"/>
      <point x="196.39884083966078" y="259"/>
      <point x="281.7578246882832" y="279"/>
      <point x="306.68602791855875" y="275" type="curve" smooth="yes"/>
      <point x="348.54243437910975" y="267"/>
      <point x="364.3988408396608" y="259"/>
      <point x="348.85778767865565" y="201" type="curve" smooth="yes"/>
      <point x="333.24493774792603" y="139"/>
      <point x="260.08210632201025" y="116"/>
      <point x="225.81415712957912" y="115" type="curve" smooth="yes"/>
      <point x="152.54620793714798" y="114"/>
      <point x="180.1590578678776" y="176"/>
    </contour>
  </outline>
</glyph>
<glyph name="seven" format="2">
  <advance width="500.0"/>
  <unicode hex="0037"/>
  <anchor x="193.0" y="0.0" name="bottom"/>
  <anchor x="353.7695154586736" y="600.0" name="top"/>
  <outline>
    <contour>
      <point x="400.3925515762637" y="514" type="curve"/>
      <point x="551.6592429160155" y="566" type="line"/>
      <point x="528.4386978306991" y="498"/>
      <point x="442.8142804950043" y="375"/>
      <point x="368.6988531762033" y="285" type="curve" smooth="yes"/>
      <point x="296.1193242422645" y="197"/>
      <point x="257.8205697584014" y="120"/>
      <point x="227.58078678661823" y="37" type="curve" smooth="yes"/>
      <point x="216.88205697584016" y="12"/>
      <point x="189.2487113059643" y="-14"/>
      <point x="139.20405310722577" y="-14.166666666666666" type="curve" smooth="yes"/>
      <point x="67.24871130596429" y="-14"/>
      <point x="79.15641879709355" y="18"/>
      <point x="85.44360587599152" y="34" type="curve" smooth="yes"/>
      <point x="139.2962387785043" y="179"/>
      <point x="228.6796152897365" y="270"/>
      <point x="297.723245838813" y="356" type="curve" smooth="yes"/>
      <point x="356.28353688628494" y="429"/>
      <point x="359.5643113363607" y="440"/>
    </contour>
    <contour>
      <point x="551.6592429160155" y="566" type="curve" smooth="yes"/>
      <point x="544.300259067393" y="546"/>
      <point x="471.2168948927033" y="481"/>
      <point x="442.94894570027225" y="480" type="curve" smooth="yes"/>
      <point x="420.6809965078411" y="479"/>
      <point x="348.00791721235214" y="474"/>
      <point x="308.3412505456855" y="474" type="curve" smooth="yes"/>
      <point x="285.00791721235214" y="474"/>
      <point x="277.00791721235214" y="474"/>
      <point x="234.6156123669389" y="480" type="curve" smooth="yes"/>
      <point x="203.68740913666338" y="484"/>
      <point x="151.17590341441084" y="553"/>
      <point x="154.19514130087768" y="568" type="curve" smooth="yes"/>
      <point x="158.62592191922462" y="592"/>
      <point x="175.30541384353586" y="602"/>
      <point x="201.5015662662425" y="599" type="curve" smooth="yes"/>
      <point x="252.1618203040869" y="594"/>
      <point x="325.3579727267935" y="591"/>
      <point x="380.16182030408686" y="594" type="curve" smooth="yes"/>
      <point x="430.9656678813802" y="597"/>
      <point x="471.30541384353586" y="602"/>
      <point x="521.9656678813802" y="597" type="curve" smooth="yes"/>
      <point x="556.1618203040869" y="594"/>
      <point x="557.7502775722068" y="585"/>
    </contour>
    <contour>
      <point x="173.25788637099583" y="409" type="curve" smooth="yes"/>
      <point x="123.59121970432918" y="409"/>
      <point x="110.53866082107153" y="420"/>
      <point x="120.57713659400521" y="450" type="curve" smooth="yes"/>
      <point x="131.68740913666338" y="484"/>
      <point x="144.45793571716595" y="513"/>
      <point x="154.19514130087768" y="568" type="curve"/>
      <point x="250.17074863826798" y="497" type="line"/>
      <point x="244.07971398207664" y="478"/>
      <point x="239.79252690317867" y="462"/>
      <point x="228.8258478999695" y="436" type="curve" smooth="yes"/>
      <point x="218.39506728162254" y="412"/>
      <point x="191.48117736468845" y="409.8333333333333"/>
    </contour>
  </outline>
</glyph>
<glyph name="eight" format="2">
  <advance width="500.0"/>
  <unicode hex="0038"/>
  <anchor x="200.0" y="0.0" name="bottom"/>
  <anchor x="360.7695154586736" y="600.0" name="top"/>
  <outline>
    <contour>
      <point x="367.98490576784707" y="612.0" type="curve" smooth="yes"/>
      <point x="400.98490576784707" y="612.0"/>
      <point x="454.6451598056915" y="607.0"/>
      <point x="488.33873484032665" y="576.0" type="curve" smooth="yes"/>
      <point x="509.97975099170424" y="556.0"/>
      <point x="519.6733260263394" y="525.0"/>
      <point x="499.3985037990511" y="449.3333333333333" type="curve" smooth="yes"/>
      <point x="490.73481324377815" y="417.0"/>
      <point x="450.0213097136238" y="328.5"/>
      <point x="336.1071895936723" y="291.5" type="curve"/>
      <point x="319.3040326254312" y="393" type="line"/>
      <point x="376.3040326254312" y="393"/>
      <point x="387.70149224698736" y="443"/>
      <point x="389.041238209143" y="448" type="curve" smooth="yes"/>
      <point x="396.5438155972144" y="476"/>
      <point x="385.7784437928547" y="503"/>
      <point x="344.7784437928547" y="503" type="curve" smooth="yes"/>
      <point x="289.7784437928547" y="503"/>
      <point x="273.2758664047833" y="475"/>
      <point x="266.84508578643636" y="451" type="curve" smooth="yes"/>
      <point x="260.14635597565825" y="426"/>
      <point x="257.3040326254312" y="393"/>
      <point x="319.3040326254312" y="393" type="curve" smooth="yes"/>
      <point x="376.3040326254312" y="393"/>
      <point x="414.1219633130486" y="355"/>
      <point x="444.351436732546" y="326.0" type="curve" smooth="yes"/>
      <point x="480.9732149974567" y="291"/>
      <point x="474.5757553759006" y="241.0"/>
      <point x="460.6423973694822" y="189.0" type="curve" smooth="yes"/>
      <point x="444.5654458236148" y="129.0"/>
      <point x="417.5077321642143" y="84.0"/>
      <point x="378.66540881398726" y="51.0" type="curve" smooth="yes"/>
      <point x="334.4833395016046" y="13.0"/>
      <point x="269.5884572681199" y="-9.0"/>
      <point x="192.5884572681199" y="-9.0" type="curve" smooth="yes"/>
      <point x="109.5884572681199" y="-9.0"/>
      <point x="7.59361204426277" y="47.0"/>
      <point x="41.62315948301535" y="174.0" type="curve" smooth="yes"/>
      <point x="59.30780618346945" y="240.0"/>
      <point x="142.35487324997456" y="363.3333333333333"/>
      <point x="241.9625684045613" y="369.3333333333333" type="curve"/>
      <point x="292.7385868018164" y="264" type="line"/>
      <point x="188.6667900320919" y="260"/>
      <point x="169.75266991214036" y="223"/>
      <point x="155.81931190572197" y="171" type="curve" smooth="yes"/>
      <point x="153.675718366273" y="163"/>
      <point x="157.2641756343929" y="154"/>
      <point x="165.8526329025128" y="145" type="curve" smooth="yes"/>
      <point x="177.1013442084771" y="131"/>
      <point x="199.15390309173472" y="120"/>
      <point x="230.15390309173472" y="120" type="curve" smooth="yes"/>
      <point x="282.1539030917347" y="120"/>
      <point x="305.5654458236148" y="129"/>
      <point x="309.6372425933393" y="133" type="curve" smooth="yes"/>
      <point x="332.99622644196177" y="153"/>
      <point x="340.6039215965485" y="159"/>
      <point x="347.8385497921888" y="186" type="curve" smooth="yes"/>
      <point x="357.7526699121404" y="223"/>
      <point x="325.7385868018164" y="264"/>
      <point x="292.7385868018164" y="264" type="curve" smooth="yes"/>
      <point x="215.73858680181638" y="264"/>
      <point x="127.51426815846182" y="349.0"/>
      <point x="155.64893336372972" y="454.0" type="curve" smooth="yes"/>
      <point x="184.85539533872208" y="563.0"/>
      <point x="280.98490576784707" y="612.0"/>
    </contour>
  </outline>
</glyph>
<glyph name="nine" format="2">
  <advance width="500.0"/>
  <unicode hex="0039"/>
  <anchor x="200.0" y="0.0" name="bottom"/>
  <anchor x="372.7695154586736" y="600.0" name="top"/>
  <outline>
    <contour>
      <point x="363.64887168101706" y="324.0" type="curve" smooth="yes"/>
      <point x="346.72576154417186" y="254.0"/>
      <point x="329.6026637438691" y="210.0"/>
      <point x="152.4820816489252" y="64.0" type="curve" smooth="yes"/>
      <point x="125.5871994154405" y="42.0"/>
      <point x="138.14679985386013" y="10.5"/>
      <point x="162.9282032302755" y="-4.0" type="curve" smooth="yes"/>
      <point x="203.27413161823597" y="-28.833333333333332"/>
      <point x="229.71922554992435" y="-11.0"/>
      <point x="269.02565051528916" y="20.0" type="curve" smooth="yes"/>
      <point x="396.6244173356948" y="123.0"/>
      <point x="449.68087314241586" y="219.0"/>
      <point x="479.1552843098394" y="329.0" type="curve" smooth="yes"/>
      <point x="506.754051130245" y="432.0"/>
      <point x="517.5040819716013" y="497.0"/>
      <point x="498.04513513260645" y="555.0" type="curve" smooth="yes"/>
      <point x="490.94001736609107" y="577.0"/>
      <point x="489.36759167002697" y="598.5"/>
      <point x="403.1810581905537" y="609.0" type="curve" smooth="yes"/>
      <point x="300.48576489720426" y="621.3333333333334"/>
      <point x="204.4011428698352" y="607.3333333333334"/>
      <point x="107.81302264232494" y="426.0" type="curve" smooth="yes"/>
      <point x="69.67858764007448" y="355.8333333333333"/>
      <point x="75.02061910457148" y="224.0"/>
      <point x="213.6090763726914" y="215.0" type="curve" smooth="yes"/>
      <point x="248.07317798782913" y="213.0"/>
      <point x="381.0731779878291" y="213.0"/>
      <point x="443.7104205811685" y="346.0" type="curve"/>
      <point x="386.5194229346047" y="405" type="line"/>
      <point x="361.13604642337253" y="314"/>
      <point x="294.64887168101706" y="324.0"/>
      <point x="255.6488716810171" y="324.0" type="curve" smooth="yes"/>
      <point x="192.65763149489334" y="322.1666666666667"/>
      <point x="186.82069312382663" y="380"/>
      <point x="216.07455920593378" y="422" type="curve" smooth="yes"/>
      <point x="256.3476631745078" y="479"/>
      <point x="279.38613894744145" y="509"/>
      <point x="354.02887335753326" y="507.6666666666667" type="curve" smooth="yes"/>
      <point x="431.5822913701481" y="506"/>
      <point x="381.0608748189321" y="402.6666666666667"/>
    </contour>
  </outline>
</glyph>
<glyph name="less" format="2">
  <advance width="500.0"/>
  <unicode hex="003C"/>
  <outline>
    <contour>
      <point x="191.3847577293368" y="300" type="curve"/>
      <point x="218.77706257475006" y="294"/>
      <point x="233.02577388071435" y="280"/>
      <point x="244.81038357154088" y="268" type="curve" smooth="yes"/>
      <point x="275.8437045683317" y="242"/>
      <point x="308.805228795398" y="212"/>
      <point x="319.1257368710868" y="202" type="curve" smooth="yes"/>
      <point x="340.2308546376021" y="180"/>
      <point x="416.546207937148" y="114"/>
      <point x="439.38337651123214" y="91" type="curve" smooth="yes"/>
      <point x="460.75644347017857" y="70"/>
      <point x="439.4692563912806" y="54"/>
      <point x="403.0910346561913" y="19" type="curve" smooth="yes"/>
      <point x="388.0717967697245" y="4"/>
      <point x="362.8914457160561" y="-15.333333333333332"/>
      <point x="348.3747852176607" y="-2.333333333333332" type="curve" smooth="yes"/>
      <point x="326.9299214889898" y="14.666666666666668"/>
      <point x="230.31329800022198" y="105.66666666666667"/>
      <point x="209.94023104127555" y="126.66666666666667" type="curve" smooth="yes"/>
      <point x="203.54792619586226" y="132.66666666666666"/>
      <point x="108.98386159035209" y="212.66666666666666"/>
      <point x="76.02233736328577" y="242.66666666666666" type="curve" smooth="yes"/>
      <point x="62.25058791772644" y="255.43819173177084"/>
      <point x="66.16936742016334" y="288"/>
      <point x="69.38475772933681" y="300" type="curve" smooth="yes"/>
      <point x="72.60014803851028" y="312"/>
      <point x="86.13118899521152" y="344.5618082682292"/>
      <point x="106.74717809538784" y="357.3333333333333" type="curve" smooth="yes"/>
      <point x="155.7856538683215" y="387.3333333333333"/>
      <point x="293.22158926281134" y="467.3333333333333"/>
      <point x="302.82928441739807" y="473.3333333333333" type="curve" smooth="yes"/>
      <point x="334.45621745845165" y="494.3333333333333"/>
      <point x="479.83959396968385" y="585.3333333333334"/>
      <point x="510.3947302410129" y="602.3333333333334" type="curve" smooth="yes"/>
      <point x="531.8780697426175" y="615.3333333333334"/>
      <point x="547.1618203040869" y="594"/>
      <point x="553.6784808024822" y="581" type="curve" smooth="yes"/>
      <point x="567.443852606842" y="554"/>
      <point x="590.0848687582195" y="534"/>
      <point x="548.8502405625792" y="507" type="curve" smooth="yes"/>
      <point x="509.88356155937004" y="481"/>
      <point x="404.8066100135027" y="421"/>
      <point x="371.91172778001794" y="399" type="curve" smooth="yes"/>
      <point x="356.23223585570673" y="389"/>
      <point x="307.46170927520416" y="360"/>
      <point x="263.22708107956385" y="333" type="curve" smooth="yes"/>
      <point x="244.2796399628215" y="322"/>
      <point x="221.99245288392353" y="306"/>
    </contour>
  </outline>
</glyph>
<glyph name="equal" format="2">
  <advance width="500.0"/>
  <unicode hex="003D"/>
  <outline>
    <contour>
      <point x="89.17967697244907" y="400" type="curve" smooth="yes"/>
      <point x="104.18483174859195" y="456"/>
      <point x="118.65855230696313" y="461.5"/>
      <point x="147.65855230696314" y="461.5" type="curve" smooth="yes"/>
      <point x="199.65855230696314" y="461.5"/>
      <point x="307.1226539221009" y="459.5"/>
      <point x="319.1226539221009" y="459.5" type="curve" smooth="yes"/>
      <point x="352.1226539221009" y="459.5"/>
      <point x="472.92650149939425" y="462.5"/>
      <point x="504.390603114532" y="460.5" type="curve" smooth="yes"/>
      <point x="527.1226539221009" y="459.5"/>
      <point x="540.9886793258853" y="459"/>
      <point x="525.1796769724491" y="400" type="curve" smooth="yes"/>
      <point x="508.8347762341506" y="339"/>
      <point x="491.96875083036616" y="339.5"/>
      <point x="456.700801637935" y="338.5" type="curve" smooth="yes"/>
      <point x="409.4328524455039" y="337.5"/>
      <point x="315.700801637935" y="338.5"/>
      <point x="278.4328524455039" y="337.5" type="curve" smooth="yes"/>
      <point x="247.4328524455039" y="337.5"/>
      <point x="128.1649032530728" y="336.5"/>
      <point x="110.96875083036616" y="339.5" type="curve" smooth="yes"/>
      <point x="84.04054760009065" y="343.5"/>
      <point x="74.17452219630621" y="344"/>
    </contour>
    <contour>
      <point x="35.58983848622454" y="200" type="curve" smooth="yes"/>
      <point x="50.59499326236741" y="256"/>
      <point x="65.33666301316971" y="262.5"/>
      <point x="94.33666301316971" y="262.5" type="curve" smooth="yes"/>
      <point x="146.3366630131697" y="262.5"/>
      <point x="253.80076462830746" y="260.5"/>
      <point x="265.80076462830743" y="260.5" type="curve" smooth="yes"/>
      <point x="298.80076462830743" y="260.5"/>
      <point x="419.6046122056008" y="263.5"/>
      <point x="451.0687138207386" y="261.5" type="curve" smooth="yes"/>
      <point x="473.80076462830743" y="260.5"/>
      <point x="487.3988408396608" y="259"/>
      <point x="471.58983848622455" y="200" type="curve" smooth="yes"/>
      <point x="455.24493774792603" y="139"/>
      <point x="438.6468615365727" y="140.5"/>
      <point x="403.3789123441416" y="139.5" type="curve" smooth="yes"/>
      <point x="356.1109631517105" y="138.5"/>
      <point x="262.3789123441416" y="139.5"/>
      <point x="225.1109631517105" y="138.5" type="curve" smooth="yes"/>
      <point x="194.1109631517105" y="138.5"/>
      <point x="74.84301395927938" y="137.5"/>
      <point x="57.646861536572736" y="140.5" type="curve" smooth="yes"/>
      <point x="30.71865830629723" y="144.5"/>
      <point x="20.58468371008167" y="144"/>
    </contour>
  </outline>
</glyph>
<glyph name="question" format="2">
  <advance width="500.0"/>
  <unicode hex="003F"/>
  <outline>
    <contour>
      <point x="231.2702512226055" y="349.3333333333333" type="curve" smooth="yes"/>
      <point x="252.48564153177898" y="361.3333333333333"/>
      <point x="304.8189748651123" y="361.3333333333333"/>
      <point x="321.62282244240566" y="364.3333333333333" type="curve" smooth="yes"/>
      <point x="364.49846678942356" y="371.3333333333333"/>
      <point x="392.08864231625773" y="381"/>
      <point x="415.70149224698736" y="443" type="curve" smooth="yes"/>
      <point x="433.29510429125014" y="490"/>
      <point x="406.5104946004236" y="502"/>
      <point x="347.314342177717" y="505" type="curve" smooth="yes"/>
      <point x="278.38613894744145" y="509"/>
      <point x="249.8222428622361" y="493.8333333333333"/>
      <point x="233.6786493227871" y="485.8333333333333" type="curve" smooth="yes"/>
      <point x="217.53505578333812" y="477.8333333333333"/>
      <point x="205.7837670893024" y="463.8333333333333"/>
      <point x="185.4440211271468" y="458.8333333333333" type="curve" smooth="yes"/>
      <point x="172.64017354985344" y="455.8333333333333"/>
      <point x="150.66817125019656" y="469"/>
      <point x="141.408352945302" y="491.6666666666667" type="curve" smooth="yes"/>
      <point x="128.13742764147716" y="523"/>
      <point x="170.17590341441084" y="553"/>
      <point x="209.60668403275778" y="577" type="curve" smooth="yes"/>
      <point x="237.429769496518" y="595"/>
      <point x="296.833411543879" y="615.1666666666666"/>
      <point x="380.98490576784707" y="612" type="curve" smooth="yes"/>
      <point x="522.4425947541625" y="605"/>
      <point x="557.1152136436166" y="540.3333333333334"/>
      <point x="525.6950796181651" y="438" type="curve" smooth="yes"/>
      <point x="503.46170927520416" y="360"/>
      <point x="434.24437050429896" y="294.5"/>
      <point x="395.68923423296985" y="277.5" type="curve" smooth="yes"/>
      <point x="359.4020471540719" y="261.5"/>
      <point x="347.04798787857493" y="262.6666666666667"/>
      <point x="322.24414030128156" y="259.6666666666667" type="curve"/>
      <point x="318.8851564526591" y="239.66666666666666"/>
      <point x="320.58216800472286" y="246"/>
      <point x="316.562930118256" y="231" type="curve" smooth="yes"/>
      <point x="301.70136888156213" y="183"/>
      <point x="287.1894027532747" y="182.33333333333334"/>
      <point x="241.58812022751025" y="181.33333333333334" type="curve" smooth="yes"/>
      <point x="190.21012869543839" y="181.16666666666666"/>
      <point x="196.5962511150468" y="205"/>
      <point x="199.02703173339376" y="229" type="curve" smooth="yes"/>
      <point x="200.58216800472286" y="246"/>
      <point x="207.87279160104939" y="299.3333333333333"/>
      <point x="207.87279160104939" y="299.3333333333333" type="curve" smooth="yes"/>
      <point x="213.98306414370757" y="333.3333333333333"/>
      <point x="220.39460687558767" y="342.3333333333333"/>
    </contour>
    <component base="period"/>
  </outline>
</glyph>
<glyph name="at" format="2">
  <advance width="500.0"/>
  <unicode hex="0040"/>
  <outline>
    <contour>
      <point x="306.7910840023614" y="123" type="curve" smooth="yes"/>
      <point x="259.962905445171" y="179"/>
      <point x="305.77706257475006" y="294"/>
      <point x="325.60530281465316" y="368" type="curve"/>
      <point x="283.60530281465316" y="368"/>
      <point x="267.88733511740827" y="328"/>
      <point x="256.9014182277322" y="287" type="curve" smooth="yes"/>
      <point x="241.89626345158933" y="231"/>
      <point x="239.80522879539802" y="212"/>
      <point x="261.805228795398" y="212" type="curve" smooth="yes"/>
      <point x="282.805228795398" y="212"/>
      <point x="286.3603650667271" y="229"/>
      <point x="298.8103835715409" y="268" type="curve"/>
      <point x="359.32188929379345" y="199" type="line"/>
      <point x="312.61800470687245" y="118"/>
      <point x="241.93851278256125" y="108"/>
      <point x="209.74236035985462" y="111" type="curve" smooth="yes"/>
      <point x="176.54620793714798" y="114"/>
      <point x="139.58468371008166" y="144"/>
      <point x="176.2937230731455" y="281" type="curve" smooth="yes"/>
      <point x="197.99760766006642" y="362"/>
      <point x="244.897644669694" y="440"/>
      <point x="295.25662851831646" y="460" type="curve" smooth="yes"/>
      <point x="340.07971398207667" y="478"/>
      <point x="379.2040696350588" y="471"/>
      <point x="393.25662851831646" y="460" type="curve" smooth="yes"/>
      <point x="407.3091874015741" y="449"/>
      <point x="412.55789870753836" y="435"/>
      <point x="407.5912197043292" y="409" type="curve" smooth="yes"/>
      <point x="399.87325200708426" y="369"/>
      <point x="387.63862381144395" y="342"/>
      <point x="377.77706257475006" y="294" type="curve" smooth="yes"/>
      <point x="362.7526699121404" y="223"/>
      <point x="357.805228795398" y="212"/>
      <point x="370.805228795398" y="212" type="curve" smooth="yes"/>
      <point x="387.805228795398" y="212"/>
      <point x="383.48472071970923" y="222"/>
      <point x="395.4898754958521" y="278" type="curve" smooth="yes"/>
      <point x="421.91172778001794" y="399"/>
      <point x="480.7258849095971" y="514"/>
      <point x="360.9938341020282" y="515" type="curve" smooth="yes"/>
      <point x="246.26178329445932" y="516"/>
      <point x="179.4476261648802" y="401"/>
      <point x="147.92065611419906" y="302" type="curve" smooth="yes"/>
      <point x="120.8770255651225" y="216"/>
      <point x="115.87187078897963" y="160"/>
      <point x="129.68980147659698" y="122" type="curve" smooth="yes"/>
      <point x="157.32566285183165" y="46"/>
      <point x="279.45517328095667" y="95"/>
      <point x="283.45517328095667" y="95" type="curve" smooth="yes"/>
      <point x="301.25902085825004" y="98"/>
      <point x="320.1872240885255" y="94.0"/>
      <point x="305.5393349022908" y="39.33333333333333" type="curve" smooth="yes"/>
      <point x="291.72477904938944" y="-15.333333333333332"/>
      <point x="274.5884572681199" y="-9.0"/>
      <point x="263.05255888325763" y="-11.0" type="curve" smooth="yes"/>
      <point x="203.90896534380866" y="-19.0"/>
      <point x="78.83716857408417" y="-23.0"/>
      <point x="44.14874831559185" y="64.0" type="curve" smooth="yes"/>
      <point x="23.350055514441355" y="117.0"/>
      <point x="38.230854637602086" y="180.0"/>
      <point x="67.97321499745671" y="291.0" type="curve" smooth="yes"/>
      <point x="110.38098417129858" y="453.0"/>
      <point x="164.79768167932156" y="518.0"/>
      <point x="221.1233445311532" y="564.0" type="curve" smooth="yes"/>
      <point x="272.37721061326033" y="606.0"/>
      <point x="321.86055011486496" y="619.0"/>
      <point x="394.0567025375716" y="616.0" type="curve" smooth="yes"/>
      <point x="482.98490576784707" y="612.0"/>
      <point x="508.4630904933088" y="569.0"/>
      <point x="516.9027994458369" y="496.0" type="curve" smooth="yes"/>
      <point x="521.7732890167118" y="447.0"/>
      <point x="503.53991867375095" y="369.0"/>
      <point x="475.6142311488343" y="271.0" type="curve" smooth="yes"/>
      <point x="455.0005220887475" y="199.66666666666666"/>
      <point x="447.80453818634567" y="107.5"/>
      <point x="384.12504626203446" y="97.5" type="curve" smooth="yes"/>
      <point x="363.1130801337471" y="96.83333333333334"/>
      <point x="325.79491924311225" y="100"/>
    </contour>
  </outline>
</glyph>
<glyph name="A" format="2">
  <advance width="500.0"/>
  <unicode hex="0041"/>
  <anchor x="384.7695154586736" y="600.0" name="top"/>
  <anchor x="57.85640646055102" y="-8" name="cedilla"/>
  <anchor x="339.856406460551" y="-8" name="ogonek"/>
  <anchor x="200.0" y="0.0" name="bottom"/>
  <outline>
    <contour>
      <point x="57.85640646055102" y="-8" type="curve" smooth="yes"/>
      <point x="5.856406460551021" y="-8"/>
      <point x="-0.39230484541326405" y="6"/>
      <point x="11.796177095791677" y="49" type="curve" smooth="yes"/>
      <point x="80.92065611419905" y="302"/>
      <point x="155.65918123330283" y="436"/>
      <point x="224.82716743536153" y="515" type="curve" smooth="yes"/>
      <point x="281.77976332824676" y="582"/>
      <point x="336.1810581905537" y="609"/>
      <point x="381.84772485722044" y="609" type="curve" smooth="yes"/>
      <point x="433.9131089981226" y="608"/>
      <point x="470.8874584828335" y="588"/>
      <point x="483.5617956310018" y="542" type="curve" smooth="yes"/>
      <point x="500.94894570027225" y="480"/>
      <point x="486.09505494508005" y="386"/>
      <point x="453.3283019226157" y="204" type="curve" smooth="yes"/>
      <point x="442.0359600675749" y="132"/>
      <point x="427.42311013684525" y="70"/>
      <point x="419.92053274877384" y="42" type="curve" smooth="yes"/>
      <point x="412.6859045531335" y="15"/>
      <point x="395.856406460551" y="-8"/>
      <point x="339.856406460551" y="-8" type="curve" smooth="yes"/>
      <point x="275.856406460551" y="-8"/>
      <point x="275.9897521304269" y="18"/>
      <point x="283.68848194120494" y="43" type="curve" smooth="yes"/>
      <point x="298.05645580672115" y="96"/>
      <point x="335.720606768029" y="198"/>
      <point x="357.35784936136827" y="331" type="curve" smooth="yes"/>
      <point x="372.1630164740537" y="413"/>
      <point x="393" y="464"/>
      <point x="348" y="465" type="curve" smooth="yes"/>
      <point x="299" y="465"/>
      <point x="265.1630164740537" y="413"/>
      <point x="233.35784936136827" y="331" type="curve" smooth="yes"/>
      <point x="202.820631441114" y="250"/>
      <point x="176.47956594356637" y="166"/>
      <point x="143.0089900168937" y="33" type="curve" smooth="yes"/>
      <point x="136.81667283493792" y="13"/>
      <point x="120.85640646055103" y="-8"/>
    </contour>
    <contour>
      <point x="430.6879763802905" y="328.5" type="curve"/>
      <point x="401.5436922317892" y="216" type="line"/>
      <point x="308.5436922317892" y="216"/>
      <point x="175.46227651883123" y="204.5"/>
      <point x="117.54369223178918" y="216" type="curve"/>
      <point x="156.95592557272158" y="329.5" type="line"/>
      <point x="240.1424590521948" y="319"/>
      <point x="348.6879763802905" y="328.5"/>
    </contour>
  </outline>
</glyph>
<glyph name="B" format="2">
  <advance width="500.0"/>
  <unicode hex="0042"/>
  <anchor x="335.9361821253403" y="600.0" name="top"/>
  <anchor x="154.78460969082653" y="-12" name="cedilla"/>
  <anchor x="154.78460969082653" y="-12" name="ogonek"/>
  <anchor x="190.0" y="0" name="bottom"/>
  <outline>
    <contour>
      <point x="52.135923057947295" y="54" type="curve" smooth="yes"/>
      <point x="37.441090170632684" y="136"/>
      <point x="135.14635597565825" y="426"/>
      <point x="157.41945994423227" y="483" type="curve" smooth="yes"/>
      <point x="206.9131089981226" y="608"/>
      <point x="230.18105819055373" y="609"/>
      <point x="341.5797756647893" y="608" type="curve" smooth="yes"/>
      <point x="490.6451598056915" y="607"/>
      <point x="538.2156370400239" y="532"/>
      <point x="521.0668887244321" y="468" type="curve" smooth="yes"/>
      <point x="502.5783944466846" y="399"/>
      <point x="437.5924775570086" y="358"/>
      <point x="380.6257985537994" y="332" type="curve" smooth="yes"/>
      <point x="349.1424590521948" y="319"/>
      <point x="347.68602791855875" y="275"/>
      <point x="193.71934891534954" y="249" type="curve" smooth="yes"/>
      <point x="188.45139972291844" y="248"/>
      <point x="195.98729810778067" y="250"/>
      <point x="153.57575537590057" y="241" type="curve"/>
      <point x="209.9642866632756" y="388" type="line"/>
      <point x="364.60530281465316" y="368"/>
      <point x="389.02200032267615" y="433"/>
      <point x="395.00619895363786" y="455.3333333333333" type="curve" smooth="yes"/>
      <point x="401.6156123669389" y="480"/>
      <point x="371.7592059063879" y="488"/>
      <point x="349.29510429125014" y="490" type="curve" smooth="yes"/>
      <point x="288.6348502534057" y="495"/>
      <point x="287.07971398207667" y="478"/>
      <point x="268.6822543605205" y="428" type="curve" smooth="yes"/>
      <point x="233.95913188713274" y="332"/>
      <point x="184.51804171650005" y="196"/>
      <point x="189.53212482682403" y="155" type="curve" smooth="yes"/>
      <point x="191.90519178577046" y="134"/>
      <point x="204.29749663118372" y="128"/>
      <point x="243.29749663118372" y="128" type="curve" smooth="yes"/>
      <point x="269.2974966311837" y="128"/>
      <point x="326.0487853252194" y="142"/>
      <point x="337.2372672664244" y="185" type="curve" smooth="yes"/>
      <point x="350.77190779860723" y="238"/>
      <point x="347.68602791855875" y="275"/>
      <point x="193.71934891534954" y="249" type="curve"/>
      <point x="339.74889635410216" y="376" type="line"/>
      <point x="463.5860649281863" y="353"/>
      <point x="490.13089164722965" y="258"/>
      <point x="469.16547049669987" y="181" type="curve" smooth="yes"/>
      <point x="426.56154890015137" y="22"/>
      <point x="260.98076211353316" y="-15"/>
      <point x="154.78460969082653" y="-12" type="curve" smooth="yes"/>
      <point x="94.32050807568876" y="-10"/>
      <point x="61.4151799986618" y="0.21562395532689038"/>
    </contour>
  </outline>
</glyph>
<glyph name="C" format="2">
  <advance width="500.0"/>
  <unicode hex="0043"/>
  <anchor x="376.7695154586736" y="600.0" name="top"/>
  <anchor x="213.05255888325766" y="-11" name="cedilla"/>
  <anchor x="213.05255888325766" y="-11" name="ogonek"/>
  <anchor x="200.0" y="0" name="bottom"/>
  <outline>
    <contour>
      <point x="450.7097916548288" y="371.5" type="curve" smooth="yes"/>
      <point x="404.67709958437763" y="372"/>
      <point x="386.0232581753555" y="382"/>
      <point x="387.77454686939126" y="396" type="curve" smooth="yes"/>
      <point x="394.59614427745464" y="430.1666666666667"/>
      <point x="384.42587257305456" y="488"/>
      <point x="349.2592059063879" y="488" type="curve" smooth="yes"/>
      <point x="307.92587257305456" y="488"/>
      <point x="242.1726354172871" y="420.5"/>
      <point x="207.87513878610338" y="292.5" type="curve" smooth="yes"/>
      <point x="175.22999550824494" y="170.66666666666666"/>
      <point x="228.66117484991412" y="134.33333333333331"/>
      <point x="248.9945081832475" y="134.33333333333331" type="curve" smooth="yes"/>
      <point x="289.6611748499142" y="134.33333333333331"/>
      <point x="322.992391201211" y="176"/>
      <point x="332.101804614512" y="200.66666666666666" type="curve" smooth="yes"/>
      <point x="339.2582234116055" y="218.66666666666666"/>
      <point x="363.93450902150556" y="226.16666666666666"/>
      <point x="427.76784235483893" y="226.16666666666666" type="curve" smooth="yes"/>
      <point x="491.60117568817225" y="226.16666666666666"/>
      <point x="460.6039215965485" y="159"/>
      <point x="442.49364905389035" y="125" type="curve" smooth="yes"/>
      <point x="416.63208781719646" y="77"/>
      <point x="332.05255888325763" y="-11"/>
      <point x="213.05255888325766" y="-11" type="curve" smooth="yes"/>
      <point x="76.05255888325766" y="-11"/>
      <point x="17.90003700962757" y="78"/>
      <point x="72.5616722655766" y="282" type="curve" smooth="yes"/>
      <point x="113.82584789996949" y="436"/>
      <point x="195.71695657541596" y="611"/>
      <point x="378.71695657541596" y="611" type="curve" smooth="yes"/>
      <point x="561.7169565754159" y="611"/>
      <point x="542.0797139820767" y="478"/>
      <point x="536.9886793258853" y="459" type="curve" smooth="yes"/>
      <point x="531.0937970924006" y="437"/>
      <point x="518.6770995843776" y="372"/>
    </contour>
  </outline>
</glyph>
<glyph name="D" format="2">
  <advance width="500.0"/>
  <unicode hex="0044"/>
  <anchor x="298.10284879200697" y="600.0" name="top"/>
  <anchor x="111.85640646055103" y="-8" name="cedilla"/>
  <anchor x="111.85640646055103" y="-8" name="ogonek"/>
  <anchor x="130.0" y="0" name="bottom"/>
  <outline>
    <contour>
      <point x="31.535898384862243" y="2" type="curve" smooth="yes"/>
      <point x="10.679491924311229" y="10"/>
      <point x="8.306424965364805" y="31"/>
      <point x="21.02439266260971" y="71" type="curve" smooth="yes"/>
      <point x="32.742360359854615" y="111"/>
      <point x="66.55651748943373" y="226"/>
      <point x="94.63862381144396" y="342" type="curve" smooth="yes"/>
      <point x="108.57198181786234" y="394"/>
      <point x="130.68740913666338" y="484"/>
      <point x="141.01307198849503" y="530" type="curve" smooth="yes"/>
      <point x="149.07078564789555" y="575"/>
      <point x="164.55412514950015" y="588"/>
      <point x="179.1618203040869" y="594" type="curve" smooth="yes"/>
      <point x="196.03746465110473" y="601"/>
      <point x="232.18105819055373" y="609"/>
      <point x="292.1810581905537" y="609" type="curve" smooth="yes"/>
      <point x="485.1810581905537" y="609"/>
      <point x="527.7732890167118" y="447"/>
      <point x="491.86809723094143" y="313" type="curve" smooth="yes"/>
      <point x="444.6372425933393" y="133"/>
      <point x="292.5884572681199" y="-9"/>
      <point x="111.85640646055103" y="-8" type="curve" smooth="yes"/>
      <point x="83.85640646055103" y="-8"/>
      <point x="56.12435565298214" y="-7"/>
    </contour>
    <contour>
      <point x="175.24493774792606" y="139" type="curve" smooth="yes"/>
      <point x="173.90519178577046" y="134"/>
      <point x="189.63724259333932" y="133"/>
      <point x="194.63724259333932" y="133" type="curve" smooth="yes"/>
      <point x="264.1013442084771" y="131"/>
      <point x="339.7001110288827" y="234"/>
      <point x="360.33219884607917" y="311" type="curve" smooth="yes"/>
      <point x="381" y="388"/>
      <point x="368" y="478"/>
      <point x="309" y="477" type="curve" smooth="yes"/>
      <point x="294" y="477"/>
      <point x="278" y="475"/>
      <point x="262.2040696350588" y="471" type="curve" smooth="yes"/>
      <point x="259.93612044262767" y="470"/>
      <point x="255.66817125019656" y="469"/>
      <point x="255.1322728653343" y="467" type="curve" smooth="yes"/>
      <point x="251.8258478999695" y="436"/>
      <point x="245.59121970432918" y="409"/>
      <point x="214.36551984286996" y="285" type="curve" smooth="yes"/>
      <point x="195.5372796029669" y="211"/>
      <point x="181.87187078897963" y="160"/>
    </contour>
  </outline>
</glyph>
<glyph name="E" format="2">
  <advance width="500.0"/>
  <unicode hex="0045"/>
  <anchor x="360.7695154586736" y="600.0" name="top"/>
  <anchor x="200.80384757729337" y="3" name="cedilla"/>
  <anchor x="348.53589838486226" y="2" name="ogonek"/>
  <anchor x="200.0" y="0.0" name="bottom"/>
  <outline>
    <contour>
      <point x="187.76951545867362" y="600" type="curve" smooth="yes"/>
      <point x="213.37721061326036" y="606"/>
      <point x="309.5015662662425" y="599"/>
      <point x="391.2336170738114" y="598" type="curve" smooth="yes"/>
      <point x="516.9656678813802" y="597"/>
      <point x="523.7695154586736" y="600"/>
      <point x="544.9656678813802" y="597" type="curve" smooth="yes"/>
      <point x="567.8938711116557" y="593"/>
      <point x="558.3177786951455" y="542.3333333333334"/>
      <point x="558.4421343481276" y="535.3333333333334" type="curve" smooth="yes"/>
      <point x="558.0831504995052" y="515.3333333333334"/>
      <point x="526.2391088905639" y="463.6666666666667"/>
      <point x="497.97115969813274" y="462.6666666666667" type="curve" smooth="yes"/>
      <point x="387.18483174859193" y="456"/>
      <point x="352.79252690317867" y="462"/>
      <point x="248.79252690317867" y="462" type="curve"/>
      <point x="220.71042058116845" y="346"/>
      <point x="193.1834505304873" y="247"/>
      <point x="160.70903936306382" y="137" type="curve"/>
      <point x="248.54370463098593" y="137"/>
      <point x="337.9050457492117" y="144.64450597574614"/>
      <point x="424.3789123441416" y="139.5" type="curve" smooth="yes"/>
      <point x="452.1109631517105" y="138.5"/>
      <point x="457.026110921324" y="89.66666666666666"/>
      <point x="445.32738111054596" y="64.66666666666666" type="curve" smooth="yes"/>
      <point x="441.45173676352806" y="57.666666666666664"/>
      <point x="423.60769515458674" y="6"/>
      <point x="398.80384757729337" y="3" type="curve" smooth="yes"/>
      <point x="376.7320508075689" y="-1"/>
      <point x="364.80384757729337" y="3"/>
      <point x="238.80384757729337" y="3" type="curve" smooth="yes"/>
      <point x="170.80384757729337" y="3"/>
      <point x="100.46410161513776" y="-2"/>
      <point x="32.46410161513776" y="-2" type="curve" smooth="yes"/>
      <point x="6.464101615137757" y="-2"/>
      <point x="8.842323350227048" y="33"/>
      <point x="19.02439266260971" y="71" type="curve" smooth="yes"/>
      <point x="30.278258744716865" y="113"/>
      <point x="62.09241587429597" y="228"/>
      <point x="93.44247138873733" y="345" type="curve" smooth="yes"/>
      <point x="141.4053768339083" y="524"/>
      <point x="140.20922441120166" y="527"/>
      <point x="151.51564937656647" y="558" type="curve" smooth="yes"/>
      <point x="158.02148164128639" y="574.2125979752697"/>
      <point x="168.429769496518" y="595"/>
    </contour>
    <contour>
      <point x="374.8347762341506" y="339" type="curve" smooth="yes"/>
      <point x="370.40399561580364" y="315"/>
      <point x="342.8279031992934" y="264.3333333333333"/>
      <point x="317.5599540068623" y="263.3333333333333" type="curve" smooth="yes"/>
      <point x="249.68430965984444" y="256.3333333333333"/>
      <point x="228.0065359942475" y="265"/>
      <point x="157.73858680181638" y="264" type="curve"/>
      <point x="192.0360834330001" y="392" type="line"/>
      <point x="198.64377858758684" y="398"/>
      <point x="248.76813424056897" y="391"/>
      <point x="296.768134240569" y="391" type="curve" smooth="yes"/>
      <point x="374.768134240569" y="391"/>
      <point x="346.36621045192226" y="389.5"/>
      <point x="358.09826125949115" y="388.5" type="curve" smooth="yes"/>
      <point x="381.0264644897667" y="384.5"/>
      <point x="375.4424713887373" y="345"/>
    </contour>
  </outline>
</glyph>
<glyph name="F" format="2">
  <advance width="500.0"/>
  <unicode hex="0046"/>
  <anchor x="364.7695154586736" y="600" name="top"/>
  <anchor x="72.85640646055103" y="-8" name="cedilla"/>
  <anchor x="72.85640646055103" y="-8" name="ogonek"/>
  <anchor x="204.0" y="0" name="bottom"/>
  <outline>
    <contour>
      <point x="193.5015662662425" y="599" type="curve" smooth="yes"/>
      <point x="222.8413122283981" y="604"/>
      <point x="315.2336170738114" y="598"/>
      <point x="398.5015662662425" y="599" type="curve" smooth="yes"/>
      <point x="525.0374646511048" y="601"/>
      <point x="527.0374646511048" y="601"/>
      <point x="547.9656678813802" y="597" type="curve" smooth="yes"/>
      <point x="571.1618203040869" y="594"/>
      <point x="572.6066840327578" y="577"/>
      <point x="561.3528179506507" y="535" type="curve" smooth="yes"/>
      <point x="545.0079172123521" y="474"/>
      <point x="529.328425288041" y="464"/>
      <point x="501.06047609560983" y="463" type="curve" smooth="yes"/>
      <point x="390.18483174859193" y="456"/>
      <point x="360.9886793258853" y="459"/>
      <point x="255.9886793258853" y="459" type="curve"/>
      <point x="216.40399561580364" y="315"/>
      <point x="181.6207878016823" y="210.09360472938437"/>
      <point x="150.6846467004541" y="66" type="curve" smooth="yes"/>
      <point x="142.2346281956403" y="27"/>
      <point x="122.85640646055103" y="-8"/>
      <point x="72.85640646055103" y="-8" type="curve" smooth="yes"/>
      <point x="9.856406460551021" y="-8"/>
      <point x="12.234628195640312" y="27"/>
      <point x="22.416697508022978" y="65" type="curve" smooth="yes"/>
      <point x="33.67056359013013" y="107"/>
      <point x="67.09241587429597" y="228"/>
      <point x="98.71042058116845" y="346" type="curve" smooth="yes"/>
      <point x="146.4053768339083" y="524"/>
      <point x="144.94127521877053" y="526"/>
      <point x="156.24770018413534" y="557" type="curve" smooth="yes"/>
      <point x="162.64818282062322" y="573.5989233963297"/>
      <point x="173.69771868894912" y="596"/>
    </contour>
    <contour>
      <point x="423.18860530663017" y="303" type="curve" smooth="yes"/>
      <point x="407.9155013380562" y="246"/>
      <point x="387.7001110288827" y="234"/>
      <point x="358.4321618364516" y="233" type="curve" smooth="yes"/>
      <point x="291.82446668186486" y="227"/>
      <point x="242.62831425915823" y="230"/>
      <point x="172.3603650667271" y="229" type="curve"/>
      <point x="208.0694044297909" y="366" type="line"/>
      <point x="213.0694044297909" y="366"/>
      <point x="214.0694044297909" y="366"/>
      <point x="253.33735362222203" y="367" type="curve" smooth="yes"/>
      <point x="352.1412011995154" y="370"/>
      <point x="393.87325200708426" y="369"/>
      <point x="405.60530281465316" y="368" type="curve" smooth="yes"/>
      <point x="431.5335060449287" y="364"/>
      <point x="437.1219633130486" y="355"/>
    </contour>
  </outline>
</glyph>
<glyph name="G" format="2">
  <advance width="500.0"/>
  <unicode hex="0047"/>
  <anchor x="394.7695154586736" y="600.0" name="top"/>
  <anchor x="221.39230484541326" y="-6" name="cedilla"/>
  <anchor x="221.39230484541326" y="-6" name="ogonek"/>
  <anchor x="223.0" y="0.0" name="bottom"/>
  <outline>
    <contour>
      <point x="498.49165543727906" y="426.6666666666667" type="curve" smooth="yes"/>
      <point x="470.66942910287594" y="418"/>
      <point x="442.7219879861336" y="407"/>
      <point x="437.4207177969117" y="432" type="curve" smooth="yes"/>
      <point x="420.87073630172546" y="471"/>
      <point x="421.0940272954181" y="471.83333333333337"/>
      <point x="359.0940272954181" y="471.83333333333337" type="curve" smooth="yes"/>
      <point x="279.4273606287514" y="471.83333333333337"/>
      <point x="235.72112885677646" y="397.6666666666667"/>
      <point x="216.25015420678153" y="325" type="curve" smooth="yes"/>
      <point x="162.39236652812588" y="124"/>
      <point x="193.05347969532738" y="128.33333333333331"/>
      <point x="239.38681302866075" y="128.33333333333331" type="curve" smooth="yes"/>
      <point x="279.7201463619941" y="128.33333333333331"/>
      <point x="311.37249971531935" y="134.5"/>
      <point x="331.6473219426077" y="210.16666666666669" type="curve"/>
      <point x="307.1178361865677" y="213.16666666666669"/>
      <point x="294.4152711350387" y="211.16666666666669"/>
      <point x="288.5819378017054" y="211.16666666666669" type="curve" smooth="yes"/>
      <point x="254.90330500675134" y="210.5"/>
      <point x="262.7409339868704" y="257.1666666666667"/>
      <point x="266.2394459311735" y="273.3333333333333" type="curve" smooth="yes"/>
      <point x="281.67601025200304" y="327.8333333333333"/>
      <point x="299.26383859378325" y="344.3333333333333"/>
      <point x="324.79973697864546" y="346.3333333333333" type="curve" smooth="yes"/>
      <point x="351.3356353635077" y="348.3333333333333"/>
      <point x="403.9958894013521" y="343.3333333333333"/>
      <point x="466.26383859378325" y="344.3333333333333" type="curve" smooth="yes"/>
      <point x="494.26383859378325" y="344.3333333333333"/>
      <point x="491.6719448082348" y="316"/>
      <point x="480.41807872612765" y="274" type="curve" smooth="yes"/>
      <point x="433.79491924311225" y="100"/>
      <point x="372.39230484541326" y="-6"/>
      <point x="221.39230484541326" y="-6" type="curve" smooth="yes"/>
      <point x="67.39230484541326" y="-6"/>
      <point x="12.560291047471956" y="73"/>
      <point x="77.67194480823477" y="316" type="curve" smooth="yes"/>
      <point x="128.04639298528585" y="504"/>
      <point x="285.9131089981226" y="608"/>
      <point x="398.9131089981226" y="608" type="curve" smooth="yes"/>
      <point x="528.9131089981227" y="608"/>
      <point x="538.1286678276009" y="524.8333333333334"/>
      <point x="540.8414807487029" y="508.8333333333333" type="curve" smooth="yes"/>
      <point x="542.8748017454938" y="482.8333333333333"/>
      <point x="534.9239241113228" y="434.5"/>
    </contour>
  </outline>
</glyph>
<glyph name="H" format="2">
  <advance width="500.0"/>
  <unicode hex="0048"/>
  <anchor x="360.7695154586736" y="600.0" name="top"/>
  <anchor x="60.12435565298214" y="-7" name="cedilla"/>
  <anchor x="336.12435565298216" y="-7" name="ogonek"/>
  <anchor x="200.0" y="0.0" name="bottom"/>
  <outline>
    <contour>
      <point x="174.23600941374497" y="236" type="curve"/>
      <point x="204.85401412061742" y="354" type="line"/>
      <point x="279.5860649281863" y="353"/>
      <point x="324.6578616979108" y="357"/>
      <point x="399.05016654332405" y="351" type="curve"/>
      <point x="362.23600941374497" y="236" type="line"/>
      <point x="291.1116537607628" y="243"/>
      <point x="250.23600941374497" y="236"/>
    </contour>
    <contour>
      <point x="223.77592808749588" y="605" type="curve" smooth="yes"/>
      <point x="284.1092614208292" y="605"/>
      <point x="284.74386494338444" y="580"/>
      <point x="277.8489827098998" y="558" type="curve" smooth="yes"/>
      <point x="273.29384643857065" y="541"/>
      <point x="245.40233903980197" y="426.3333333333333"/>
      <point x="203.28731044432317" y="276" type="curve" smooth="yes"/>
      <point x="188.81805405304254" y="222"/>
      <point x="169.87187078897963" y="160"/>
      <point x="144.6846467004541" y="66" type="curve" smooth="yes"/>
      <point x="132.09103465619134" y="19"/>
      <point x="128.12435565298213" y="-7"/>
      <point x="60.12435565298214" y="-7" type="curve" smooth="yes"/>
      <point x="16.12435565298214" y="-7"/>
      <point x="-0.9089653438086671" y="19"/>
      <point x="14.07695154586736" y="60" type="curve" smooth="yes"/>
      <point x="28.062868435543393" y="101"/>
      <point x="56.693698400060434" y="229"/>
      <point x="91.71042058116845" y="346" type="curve" smooth="yes"/>
      <point x="141.60301731231178" y="504.8333333333333"/>
      <point x="139.54897037335726" y="532"/>
      <point x="150.85539533872208" y="563" type="curve" smooth="yes"/>
      <point x="163.69771868894912" y="596"/>
      <point x="187.10926142082923" y="605"/>
    </contour>
    <contour>
      <point x="500.44259475416254" y="605" type="curve" smooth="yes"/>
      <point x="540.1092614208292" y="605"/>
      <point x="555.6977186889492" y="596"/>
      <point x="550.855395338722" y="563" type="curve" smooth="yes"/>
      <point x="545.5489703733573" y="532"/>
      <point x="547.1733260263394" y="525"/>
      <point x="493.7104205811685" y="346" type="curve" smooth="yes"/>
      <point x="454.76377691107064" y="214.33333333333334"/>
      <point x="426.0628684355434" y="101"/>
      <point x="418.07695154586736" y="60" type="curve" smooth="yes"/>
      <point x="411.0910346561913" y="19"/>
      <point x="390.12435565298216" y="-7"/>
      <point x="336.12435565298216" y="-7" type="curve" smooth="yes"/>
      <point x="271.12435565298216" y="-7"/>
      <point x="277.0910346561913" y="19"/>
      <point x="290.6846467004541" y="66" type="curve" smooth="yes"/>
      <point x="292.29234185504083" y="72"/>
      <point x="328.3180540530426" y="222"/>
      <point x="344.62064377765654" y="276" type="curve" smooth="yes"/>
      <point x="384.0162166201936" y="402.5"/>
      <point x="416.627179771904" y="541"/>
      <point x="421.1823160432332" y="558" type="curve" smooth="yes"/>
      <point x="426.0771982767178" y="580"/>
      <point x="437.1092614208292" y="605"/>
    </contour>
  </outline>
</glyph>
<glyph name="I" format="2">
  <advance width="500.0"/>
  <unicode hex="0049"/>
  <anchor x="360.7695154586736" y="600.0" name="top"/>
  <anchor x="200.0" y="0.0" name="cedilla"/>
  <anchor x="200.0" y="0.0" name="ogonek"/>
  <anchor x="200.0" y="0.0" name="bottom"/>
  <outline>
    <contour>
      <point x="397.9027994458369" y="496" type="line"/>
      <point x="384.18483174859193" y="456"/>
      <point x="394.2527932775656" y="483"/>
      <point x="348.4334813718436" y="312" type="curve" smooth="yes"/>
      <point x="326.99754597735375" y="232"/>
      <point x="306.561610582864" y="152"/>
      <point x="296.0103095522857" y="112" type="curve"/>
      <point x="162.27825874471688" y="113" type="line"/>
      <point x="153.33465286872539" y="79"/>
      <point x="199.6898631593096" y="252"/>
      <point x="211.13988166412338" y="291" type="curve" smooth="yes"/>
      <point x="204.97705023820757" y="268"/>
      <point x="271.6963991535571" y="517"/>
      <point x="264.56305348368124" y="491" type="curve"/>
    </contour>
    <contour>
      <point x="171.13914590019144" y="541.6666666666666" type="curve" smooth="yes"/>
      <point x="178.55240689078587" y="569.3333333333334"/>
      <point x="196.01032608011877" y="597.1666666666666"/>
      <point x="226.76951545867362" y="600" type="curve" smooth="yes"/>
      <point x="279.03746465110476" y="601"/>
      <point x="322.7695154586736" y="600"/>
      <point x="345.7695154586736" y="600" type="curve" smooth="yes"/>
      <point x="399.0103260801188" y="597.1666666666666"/>
      <point x="442.79665402965963" y="603.8333333333334"/>
      <point x="495.7695154586736" y="600" type="curve" smooth="yes"/>
      <point x="519.0103260801188" y="597.1666666666666"/>
      <point x="528.1154438466341" y="575.1666666666666"/>
      <point x="518.1120073292055" y="537.8333333333334" type="curve" smooth="yes"/>
      <point x="509.89489876131773" y="507.1666666666667"/>
      <point x="483.9186008148751" y="473.6666666666667"/>
      <point x="451.9186008148751" y="473.6666666666667" type="curve" smooth="yes"/>
      <point x="403.9186008148751" y="473.6666666666667"/>
      <point x="352.9457393858611" y="477.5"/>
      <point x="314.9186008148751" y="473.6666666666667" type="curve" smooth="yes"/>
      <point x="273.8914622438891" y="469.83333333333337"/>
      <point x="210.15941143632028" y="470.83333333333337"/>
      <point x="193.9457393858611" y="477.5" type="curve" smooth="yes"/>
      <point x="161.97287795684704" y="481.3333333333333"/>
      <point x="161.89489876131773" y="507.1666666666667"/>
    </contour>
    <contour>
      <point x="41.36242036605103" y="57.33333333333333" type="curve" smooth="yes"/>
      <point x="52.12504626203446" y="97.5"/>
      <point x="76.28787768795029" y="120.5"/>
      <point x="106.0742056374911" y="127.16666666666666" type="curve" smooth="yes"/>
      <point x="129.1013442084771" y="131"/>
      <point x="182.0742056374911" y="127.16666666666666"/>
      <point x="223.1013442084771" y="131" type="curve" smooth="yes"/>
      <point x="261.6197229655868" y="136.66666666666666"/>
      <point x="312.1013442084771" y="131"/>
      <point x="359.8333950160459" y="130" type="curve" smooth="yes"/>
      <point x="391.0742056374911" y="127.16666666666666"/>
      <point x="398.60666750492476" y="91.83333333333333"/>
      <point x="391.14874831559183" y="64" type="curve" smooth="yes"/>
      <point x="380.65407161203956" y="24.833333333333332"/>
      <point x="362.7591893785549" y="2.833333333333333"/>
      <point x="335.4912401861237" y="1.8333333333333333" type="curve" smooth="yes"/>
      <point x="279.972861429014" y="-3.833333333333333"/>
      <point x="239.75918937855485" y="2.833333333333333"/>
      <point x="185.49124018612372" y="1.8333333333333333" type="curve" smooth="yes"/>
      <point x="162.49124018612372" y="1.8333333333333333"/>
      <point x="116.97286142901403" y="-3.833333333333333"/>
      <point x="66.49124018612372" y="1.8333333333333333" type="curve" smooth="yes"/>
      <point x="34.75918937855485" y="2.833333333333333"/>
      <point x="31.358983848622458" y="20"/>
    </contour>
  </outline>
</glyph>
<glyph name="J" format="2">
  <advance width="500.0"/>
  <unicode hex="004A"/>
  <anchor x="427.7695154586736" y="600.0" name="top"/>
  <anchor x="190.05255888325766" y="-11" name="cedilla"/>
  <anchor x="190.05255888325766" y="-11" name="ogonek"/>
  <anchor x="195.0" y="0.0" name="bottom"/>
  <outline>
    <contour>
      <point x="290.6750442850537" y="543.6666666666666" type="curve" smooth="yes"/>
      <point x="299.0883052756481" y="571.3333333333334"/>
      <point x="316.2782752725499" y="598.1666666666666"/>
      <point x="346.2782752725499" y="598.1666666666666" type="curve" smooth="yes"/>
      <point x="355.2782752725499" y="598.1666666666666"/>
      <point x="396.5015662662425" y="599"/>
      <point x="409.2336170738114" y="598" type="curve" smooth="yes"/>
      <point x="429.9656678813802" y="597"/>
      <point x="461.30541384353586" y="602"/>
      <point x="485.5015662662425" y="599" type="curve" smooth="yes"/>
      <point x="552.1618203040869" y="594"/>
      <point x="556.7821105133007" y="575.1666666666666"/>
      <point x="541.8615777645269" y="533.1666666666666" type="curve" smooth="yes"/>
      <point x="507.49165543727906" y="426.6666666666667"/>
      <point x="487.05016654332405" y="351"/>
      <point x="464.22576154417186" y="254" type="curve" smooth="yes"/>
      <point x="431.8859538993036" y="119"/>
      <point x="345.05255888325763" y="-11"/>
      <point x="190.05255888325766" y="-11" type="curve" smooth="yes"/>
      <point x="108.05255888325766" y="-11"/>
      <point x="47.141246354394994" y="14.833333333333334"/>
      <point x="36.91927489609441" y="93" type="curve" smooth="yes"/>
      <point x="24.500291885730054" y="164.83333333333331"/>
      <point x="34.75181078278322" y="213.66666666666666"/>
      <point x="88.45288777861526" y="231.83333333333331" type="curve" smooth="yes"/>
      <point x="137.82939125499027" y="248.16666666666666"/>
      <point x="136" y="234"/>
      <point x="150" y="168" type="curve" smooth="yes"/>
      <point x="163" y="109"/>
      <point x="181" y="107"/>
      <point x="219" y="107" type="curve" smooth="yes"/>
      <point x="266" y="107"/>
      <point x="293" y="125"/>
      <point x="317.3744481770511" y="188" type="curve" smooth="yes"/>
      <point x="339.64755214562507" y="245"/>
      <point x="358.63604642337253" y="314"/>
      <point x="365.44888401755964" y="350" type="curve" smooth="yes"/>
      <point x="365.1035845559388" y="349.3333333333333"/>
      <point x="383.31943527114726" y="431"/>
      <point x="399.94488025650395" y="468.1666666666667" type="curve"/>
      <point x="370.17693106407285" y="467.1666666666667"/>
      <point x="362.17693106407285" y="467.1666666666667"/>
      <point x="311.47201882748993" y="472" type="curve" smooth="yes"/>
      <point x="279.49915739847586" y="475.83333333333337"/>
      <point x="280.1803675815014" y="504.5"/>
    </contour>
  </outline>
</glyph>
<glyph name="K" format="2">
  <advance width="500.0"/>
  <unicode hex="004B"/>
  <anchor x="357.7695154586736" y="600" name="top"/>
  <anchor x="59.588457268119896" y="-9" name="cedilla"/>
  <anchor x="369.46410161513774" y="-2" name="ogonek"/>
  <anchor x="180.0" y="0" name="bottom"/>
  <outline>
    <contour>
      <point x="225.10926142082923" y="605" type="curve" smooth="yes"/>
      <point x="275.71695657541596" y="611"/>
      <point x="284.48232837977565" y="584"/>
      <point x="278.1233445311532" y="564" type="curve" smooth="yes"/>
      <point x="222.17967697244907" y="400"/>
      <point x="190.1116537607628" y="243"/>
      <point x="141.95259589288523" y="67" type="curve" smooth="yes"/>
      <point x="130.9666790032092" y="26"/>
      <point x="125.5884572681199" y="-9"/>
      <point x="59.588457268119896" y="-9" type="curve" smooth="yes"/>
      <point x="4.588457268119896" y="-9"/>
      <point x="1.9666790032091939" y="26"/>
      <point x="16.148748315591853" y="64" type="curve" smooth="yes"/>
      <point x="38.02954743875258" y="127"/>
      <point x="63.70011102888271" y="234"/>
      <point x="89.37067461901285" y="341" type="curve" smooth="yes"/>
      <point x="110.14635597565827" y="426"/>
      <point x="131.18998652473482" y="512"/>
      <point x="156.85539533872208" y="563" type="curve" smooth="yes"/>
      <point x="171.89387111165576" y="593"/>
      <point x="196.03746465110473" y="601"/>
    </contour>
    <contour>
      <point x="543.8938711116557" y="593" type="curve" smooth="yes"/>
      <point x="572.3194969538598" y="561"/>
      <point x="568.7451227960639" y="529"/>
      <point x="544.6540881398726" y="510" type="curve" smooth="yes"/>
      <point x="408.64377858758684" y="398"/>
      <point x="394.768134240569" y="391"/>
      <point x="338.78221735089295" y="350" type="curve" smooth="yes"/>
      <point x="310.4232335022705" y="330"/>
      <point x="282.60014803851027" y="312"/>
      <point x="147.8770255651225" y="216" type="curve"/>
      <point x="166.46170927520416" y="360" type="line"/>
      <point x="191.2129979692399" y="374"/>
      <point x="192.94504877680876" y="373"/>
      <point x="299.6489333637297" y="454" type="curve" smooth="yes"/>
      <point x="398.7451227960639" y="529"/>
      <point x="422.300259067393" y="546"/>
      <point x="459.80283645546444" y="574" type="curve" smooth="yes"/>
      <point x="482.0900235343624" y="590"/>
      <point x="516.9323468845894" y="623"/>
    </contour>
    <contour>
      <point x="436.3256628518316" y="46" type="curve" smooth="yes"/>
      <point x="433.6461709275204" y="36"/>
      <point x="412.46410161513774" y="-2"/>
      <point x="369.46410161513774" y="-2" type="curve" smooth="yes"/>
      <point x="303.46410161513774" y="-2"/>
      <point x="292.33974596215563" y="5"/>
      <point x="275.3782217350893" y="35" type="curve" smooth="yes"/>
      <point x="264.66540881398726" y="51"/>
      <point x="251.84747812636994" y="89"/>
      <point x="234.2641756343929" y="154" type="curve" smooth="yes"/>
      <point x="226.69495625273984" y="178"/>
      <point x="222.32188929379342" y="199"/>
      <point x="194.50911338231896" y="293" type="curve"/>
      <point x="310.5527439313955" y="379" type="line"/>
      <point x="335.58091015204343" y="297"/>
      <point x="363.00138121810465" y="209"/>
      <point x="383.85263290251277" y="145" type="curve" smooth="yes"/>
      <point x="401.1872240885255" y="94"/>
      <point x="402.7423603598546" y="111"/>
      <point x="426.1346652052679" y="105" type="curve" smooth="yes"/>
      <point x="443.79491924311225" y="100"/>
      <point x="446.5077321642143" y="84"/>
    </contour>
  </outline>
</glyph>
<glyph name="L" format="2">
  <advance width="500.0"/>
  <unicode hex="004C"/>
  <anchor x="314.7695154586736" y="600" name="top"/>
  <anchor x="199.3397459621556" y="5" name="cedilla"/>
  <anchor x="265.33974596215563" y="5" name="ogonek"/>
  <anchor x="204.0" y="0" name="bottom"/>
  <outline>
    <contour>
      <point x="225.5015662662425" y="599" type="curve" smooth="yes"/>
      <point x="276.03746465110476" y="601"/>
      <point x="286.8746332251889" y="578"/>
      <point x="284.51564937656644" y="558" type="curve" smooth="yes"/>
      <point x="277.8502405625792" y="507"/>
      <point x="259.70149224698736" y="443"/>
      <point x="238.480947161671" y="375" type="curve" smooth="yes"/>
      <point x="208.73858680181638" y="264"/>
      <point x="155.58468371008166" y="144"/>
      <point x="169.29749663118372" y="128" type="curve"/>
      <point x="218.90519178577046" y="134"/>
      <point x="221.90519178577046" y="134"/>
      <point x="232.90519178577046" y="134" type="curve" smooth="yes"/>
      <point x="287.90519178577046" y="134"/>
      <point x="331.90519178577046" y="134"/>
      <point x="402.76159824632146" y="126" type="curve" smooth="yes"/>
      <point x="429.9577506690281" y="123"/>
      <point x="440.7231224733878" y="96"/>
      <point x="423.39745962155615" y="50" type="curve" smooth="yes"/>
      <point x="417.6461709275204" y="36"/>
      <point x="405.87564434701784" y="7"/>
      <point x="380.53589838486226" y="2" type="curve" smooth="yes"/>
      <point x="368.7320508075689" y="-1"/>
      <point x="360.46410161513774" y="-2"/>
      <point x="338.7320508075689" y="-1" type="curve" smooth="yes"/>
      <point x="326.7320508075689" y="-1"/>
      <point x="322.33974596215563" y="5"/>
      <point x="199.3397459621556" y="5" type="curve" smooth="yes"/>
      <point x="117.3397459621556" y="5"/>
      <point x="126.9282032302755" y="-4"/>
      <point x="62.92820323027551" y="-4" type="curve" smooth="yes"/>
      <point x="8.928203230275507" y="-4"/>
      <point x="13.148748315591853" y="64"/>
      <point x="33.24493774792605" y="139" type="curve" smooth="yes"/>
      <point x="55.21677152727811" y="221"/>
      <point x="65.948822334847" y="220"/>
      <point x="97.29887784928835" y="337" type="curve" smooth="yes"/>
      <point x="115.51942293460469" y="405"/>
      <point x="134.47201882748993" y="472"/>
      <point x="152.24770018413534" y="557" type="curve" smooth="yes"/>
      <point x="157.28617595706902" y="587"/>
      <point x="185.69771868894912" y="596"/>
    </contour>
  </outline>
</glyph>
<glyph name="M" format="2">
  <advance width="500.0"/>
  <unicode hex="004D"/>
  <anchor x="360.7695154586736" y="600.0" name="top"/>
  <anchor x="52.392304845413264" y="-6" name="cedilla"/>
  <anchor x="345.39230484541326" y="-6" name="ogonek"/>
  <anchor x="200.0" y="0.0" name="bottom"/>
  <outline>
    <contour>
      <point x="520.600501606953" y="606.8333333333334" type="curve" smooth="yes"/>
      <point x="554.3325524145218" y="605.8333333333334"/>
      <point x="561.0789165354322" y="598.6666666666666"/>
      <point x="550.855395338722" y="563" type="curve" smooth="yes"/>
      <point x="545.097694015864" y="544"/>
      <point x="544.5489703733573" y="532"/>
      <point x="530.8267555316579" y="486.0133768717448" type="curve" smooth="yes"/>
      <point x="523.4527809410231" y="457"/>
      <point x="511.9821683192743" y="414.1910909016927"/>
      <point x="493.7104205811685" y="346" type="curve" smooth="yes"/>
      <point x="484.41578986840665" y="311.3119659423828"/>
      <point x="474.8026868078423" y="274.86676534016925"/>
      <point x="466.19347542986577" y="242.20126342773438" type="curve" smooth="yes"/>
      <point x="445.819311905722" y="171"/>
      <point x="424.8299584986174" y="92.66666666666667"/>
      <point x="415.8440416089413" y="51.66666666666667" type="curve" smooth="yes"/>
      <point x="407.85812471926533" y="10.666666666666668"/>
      <point x="368.19615242270663" y="-3"/>
      <point x="345.39230484541326" y="-6" type="curve" smooth="yes"/>
      <point x="308.05255888325763" y="-11"/>
      <point x="279.72735643746086" y="12.666666666666668"/>
      <point x="294.32096848172364" y="59.66666666666667" type="curve" smooth="yes"/>
      <point x="297.00046040603485" y="69.66666666666667"/>
      <point x="318.26417563439287" y="154"/>
      <point x="338.09241587429597" y="228" type="curve" smooth="yes"/>
      <point x="345.59499326236744" y="256"/>
      <point x="365.7052658050256" y="290"/>
      <point x="378.6193859249771" y="327" type="curve"/>
      <point x="370.9398940006659" y="317"/>
      <point x="351.9014182277322" y="287"/>
      <point x="340.221926303421" y="277" type="curve" smooth="yes"/>
      <point x="330.8103835715409" y="268"/>
      <point x="332.078332763972" y="269"/>
      <point x="315.0590948775052" y="254" type="curve" smooth="yes"/>
      <point x="291.7001110288827" y="234"/>
      <point x="290.96806022131386" y="235"/>
      <point x="262.8340856250983" y="234.5" type="curve" smooth="yes"/>
      <point x="237.7001110288827" y="234"/>
      <point x="236.4321618364516" y="233"/>
      <point x="221.05909487750517" y="254" type="curve" smooth="yes"/>
      <point x="211.61423114883425" y="271"/>
      <point x="214.27448518667865" y="266"/>
      <point x="209.48987549585212" y="278" type="curve" smooth="yes"/>
      <point x="207.5616722655766" y="282"/>
      <point x="203.33219884607917" y="311"/>
      <point x="196.6193859249771" y="327" type="curve"/>
      <point x="190.90141822773222" y="287"/>
      <point x="192.934739224523" y="261"/>
      <point x="186.50395860617607" y="237" type="curve" smooth="yes"/>
      <point x="172.03470221489545" y="183"/>
      <point x="151.1235582063376" y="113.66666666666667"/>
      <point x="138.38635262262585" y="58.66666666666667" type="curve" smooth="yes"/>
      <point x="126.7927405783631" y="11.666666666666668"/>
      <point x="85.78460969082653" y="-12"/>
      <point x="52.392304845413264" y="-6" type="curve" smooth="yes"/>
      <point x="29.196152422706632" y="-3"/>
      <point x="-2.1418752807346877" y="10.666666666666668"/>
      <point x="11.844041608941339" y="51.66666666666667" type="curve" smooth="yes"/>
      <point x="21.346618997012776" y="79.66666666666667"/>
      <point x="43.94366755870412" y="164"/>
      <point x="63.60179363156665" y="242.20126342773438" type="curve" smooth="yes"/>
      <point x="72.49797514809296" y="274.86676534016925"/>
      <point x="82.33219884607915" y="311"/>
      <point x="91.71042058116845" y="346" type="curve" smooth="yes"/>
      <point x="109.9309656664848" y="414"/>
      <point x="121.71706916280972" y="457.094731648763"/>
      <point x="129.62702134105552" y="486.0133514404297" type="curve" smooth="yes"/>
      <point x="140.97418840286508" y="534.216064453125"/>
      <point x="143.76436068253074" y="544"/>
      <point x="150.85539533872208" y="563" type="curve" smooth="yes"/>
      <point x="159.28617595706902" y="587"/>
      <point x="177.9784931390248" y="607"/>
      <point x="202.9784931390248" y="607" type="curve" smooth="yes"/>
      <point x="230.31182647235812" y="607"/>
      <point x="237.64515980569146" y="607"/>
      <point x="250.11865016104522" y="577.6666666666666" type="curve" smooth="yes"/>
      <point x="258.7835985689976" y="559"/>
      <point x="260.7835985689976" y="559"/>
      <point x="277.97459621556135" y="500" type="curve" smooth="yes"/>
      <point x="288.79252690317867" y="462"/>
      <point x="292.6822543605205" y="428"/>
      <point x="305.9292474077705" y="395.3333333333333" type="curve"/>
      <point x="324.69015504503966" y="416.8333333333333"/>
      <point x="350.6489333637297" y="454"/>
      <point x="389.97459621556135" y="500" type="curve" smooth="yes"/>
      <point x="437.97975099170424" y="556"/>
      <point x="444.0699265185384" y="565.6666666666666"/>
      <point x="461.71437918734455" y="583" type="curve" smooth="yes"/>
      <point x="476.5549842788573" y="597.3333333333334"/>
      <point x="493.600501606953" y="606.8333333333334"/>
    </contour>
  </outline>
</glyph>
<glyph name="N" format="2">
  <advance width="500.0"/>
  <unicode hex="004E"/>
  <anchor x="360.7695154586736" y="600.0" name="top"/>
  <anchor x="51.85640646055102" y="-8" name="cedilla"/>
  <anchor x="324.46410161513774" y="-2" name="ogonek"/>
  <anchor x="200.0" y="0.0" name="bottom"/>
  <outline>
    <contour>
      <point x="504.47849313902475" y="607" type="curve" smooth="yes"/>
      <point x="518.8118264723581" y="607"/>
      <point x="559.9361821253403" y="600"/>
      <point x="548.9502652356642" y="559" type="curve" smooth="yes"/>
      <point x="504.65660384523136" y="408"/>
      <point x="531.5104946004236" y="502"/>
      <point x="476.58091015204343" y="297" type="curve" smooth="yes"/>
      <point x="465.59499326236744" y="256"/>
      <point x="441.1821309950953" y="168"/>
      <point x="414.2961770957917" y="49" type="curve" smooth="yes"/>
      <point x="405.94744111674237" y="11"/>
      <point x="377.46410161513774" y="-2"/>
      <point x="324.46410161513774" y="-2" type="curve" smooth="yes"/>
      <point x="252.46410161513776" y="-2"/>
      <point x="239.16283142591584" y="23"/>
      <point x="236.21327332713696" y="53.666666666666664" type="curve" smooth="yes"/>
      <point x="231.13466520526788" y="105"/>
      <point x="235.61800470687248" y="118"/>
      <point x="232.2641756343929" y="154" type="curve" smooth="yes"/>
      <point x="223.39884083966078" y="259"/>
      <point x="234.91172778001794" y="399"/>
      <point x="231.38098417129856" y="453" type="curve"/>
      <point x="235.05532131946694" y="407"/>
      <point x="202.7719077986072" y="238"/>
      <point x="144.357725995943" y="71" type="curve" smooth="yes"/>
      <point x="129.50257738807144" y="28"/>
      <point x="117.85640646055103" y="-8"/>
      <point x="51.85640646055102" y="-8" type="curve" smooth="yes"/>
      <point x="7.856406460551021" y="-8"/>
      <point x="2.669244054738101" y="28"/>
      <point x="16.416697508022978" y="65" type="curve" smooth="yes"/>
      <point x="69.06676535900687" y="208"/>
      <point x="96.34760149179516" y="349"/>
      <point x="131.25279327756562" y="483" type="curve" smooth="yes"/>
      <point x="137.26178329445932" y="516"/>
      <point x="145.24002970263365" y="603"/>
      <point x="247.573363035967" y="603" type="curve" smooth="yes"/>
      <point x="299.24002970263365" y="603"/>
      <point x="311.26630914426244" y="597.5"/>
      <point x="320.71437918734455" y="583" type="curve" smooth="yes"/>
      <point x="366.74105735229557" y="517.1666666666666"/>
      <point x="313.44624494677555" y="192"/>
      <point x="322.1205820949439" y="146" type="curve"/>
      <point x="317.6423973694822" y="189"/>
      <point x="370.67709958437763" y="372"/>
      <point x="376.83993101029347" y="395" type="curve" smooth="yes"/>
      <point x="385.87840678322715" y="425"/>
      <point x="400.2233075215256" y="486"/>
      <point x="420.443852606842" y="554" type="curve" smooth="yes"/>
      <point x="429.48232837977565" y="584"/>
      <point x="446.1451598056915" y="607"/>
    </contour>
  </outline>
</glyph>
<glyph name="O" format="2">
  <advance width="500.0"/>
  <unicode hex="004F"/>
  <anchor x="360.7695154586736" y="600.0" name="top"/>
  <anchor x="196.5166604983954" y="-13" name="cedilla"/>
  <anchor x="196.5166604983954" y="-13" name="ogonek"/>
  <anchor x="200.0" y="0" name="bottom"/>
  <anchor x="450" y="525" name="horn"/>
  <outline>
    <contour>
      <point x="364.2528549602782" y="613" type="curve" smooth="yes"/>
      <point x="454.2528549602782" y="613"/>
      <point x="489.6784808024823" y="581"/>
      <point x="503.4579357171659" y="513" type="curve" smooth="yes"/>
      <point x="512.8643236729032" y="466"/>
      <point x="511.1796769724491" y="400"/>
      <point x="484.65270692176796" y="301.0" type="curve" smooth="yes"/>
      <point x="459.4654828332424" y="207"/>
      <point x="433.9769885554949" y="138"/>
      <point x="398.11542731880104" y="90" type="curve" smooth="yes"/>
      <point x="341.75128869403574" y="14"/>
      <point x="288.5166604983954" y="-13"/>
      <point x="196.5166604983954" y="-13" type="curve" smooth="yes"/>
      <point x="119.5166604983954" y="-13"/>
      <point x="91.4115427318801" y="9"/>
      <point x="64.54105316100512" y="58" type="curve" smooth="yes"/>
      <point x="37.67056359013013" y="107"/>
      <point x="46.910346561913315" y="190"/>
      <point x="76.65270692176793" y="301.0" type="curve" smooth="yes"/>
      <point x="108.00276243620928" y="418"/>
      <point x="154.83100267611238" y="492"/>
      <point x="203.300259067393" y="546" type="curve" smooth="yes"/>
      <point x="243.35797272679352" y="591"/>
      <point x="291.2528549602782" y="613"/>
    </contour>
    <contour>
      <point x="330.2233075215256" y="486" type="curve" smooth="yes"/>
      <point x="303.2233075215256" y="486"/>
      <point x="285.5940272954181" y="471.83333333333337"/>
      <point x="268.4542689967199" y="440.8333333333333" type="curve" smooth="yes"/>
      <point x="253.63908421747882" y="411.6666666666667"/>
      <point x="233.4179102058228" y="369.1666666666667"/>
      <point x="215.64394710789165" y="302.8333333333333" type="curve" smooth="yes"/>
      <point x="195" y="227"/>
      <point x="185" y="178"/>
      <point x="187" y="157" type="curve" smooth="yes"/>
      <point x="191" y="138"/>
      <point x="195" y="123"/>
      <point x="232.9577506690281" y="123" type="curve" smooth="yes"/>
      <point x="265.9577506690281" y="123"/>
      <point x="279.8190817027045" y="136.16666666666666"/>
      <point x="303.9389731885961" y="177.66666666666666" type="curve" smooth="yes"/>
      <point x="320.55800554513064" y="209.83333333333331"/>
      <point x="331.4155013380562" y="246"/>
      <point x="346.6439471078917" y="302.8333333333333" type="curve" smooth="yes"/>
      <point x="371" y="395"/>
      <point x="378" y="429"/>
      <point x="378" y="442" type="curve" smooth="yes"/>
      <point x="378" y="472"/>
      <point x="368" y="486"/>
    </contour>
  </outline>
</glyph>
<glyph name="P" format="2">
  <advance width="500.0"/>
  <unicode hex="0050"/>
  <anchor x="338.7695154586736" y="600" name="top"/>
  <anchor x="65.85640646055103" y="-8" name="cedilla"/>
  <anchor x="65.85640646055103" y="-8" name="ogonek"/>
  <anchor x="160.0" y="0" name="bottom"/>
  <outline>
    <contour>
      <point x="150.31949695385984" y="561" type="curve" smooth="yes"/>
      <point x="157.14258241762005" y="579"/>
      <point x="184.9131089981226" y="608"/>
      <point x="311.52080415270933" y="614" type="curve" smooth="yes"/>
      <point x="354.0567025375716" y="616"/>
      <point x="387.71695657541596" y="611"/>
      <point x="424.03746465110476" y="601" type="curve" smooth="yes"/>
      <point x="519.3387348403267" y="576"/>
      <point x="541.7258849095971" y="514"/>
      <point x="519.9502035529516" y="429" type="curve" smooth="yes"/>
      <point x="496.8347762341506" y="339"/>
      <point x="441.4898754958521" y="278"/>
      <point x="369.5231964926429" y="252" type="curve" smooth="yes"/>
      <point x="332.23600941374497" y="236"/>
      <point x="279.6090763726914" y="215"/>
      <point x="186.89626345158933" y="231" type="curve" smooth="yes"/>
      <point x="175.4321618364516" y="233"/>
      <point x="179.89626345158933" y="231"/>
      <point x="170.7001110288827" y="234" type="curve"/>
      <point x="227.87325200708426" y="369" type="line"/>
      <point x="230.60530281465316" y="368"/>
      <point x="233.33735362222203" y="367"/>
      <point x="236.33735362222203" y="367" type="curve" smooth="yes"/>
      <point x="300.46170927520416" y="360"/>
      <point x="333.87325200708426" y="369"/>
      <point x="352.82069312382663" y="380" type="curve" smooth="yes"/>
      <point x="374.57198181786237" y="394"/>
      <point x="380.3950672816226" y="412"/>
      <point x="383.87840678322715" y="425" type="curve" smooth="yes"/>
      <point x="393" y="462"/>
      <point x="386" y="471"/>
      <point x="368" y="478" type="curve" smooth="yes"/>
      <point x="347" y="486"/>
      <point x="329" y="488"/>
      <point x="310" y="488" type="curve" smooth="yes"/>
      <point x="298" y="488"/>
      <point x="273" y="485"/>
      <point x="259.00791721235214" y="474" type="curve"/>
      <point x="245.64377858758684" y="398"/>
      <point x="194.16111277563982" y="183.44178293559438"/>
      <point x="129.52181527453828" y="43" type="curve" smooth="yes"/>
      <point x="113.14359353944897" y="8"/>
      <point x="111.85640646055103" y="-8"/>
      <point x="65.85640646055103" y="-8" type="curve" smooth="yes"/>
      <point x="3.856406460551021" y="-8"/>
      <point x="2.091034656191333" y="19"/>
      <point x="17.005154776142874" y="56" type="curve" smooth="yes"/>
      <point x="38.742360359854615" y="111"/>
      <point x="91.67194480823477" y="316"/>
      <point x="121.89764466969399" y="440" type="curve" smooth="yes"/>
      <point x="131.66768033968356" y="479.1165407385739"/>
      <point x="134.86947844904606" y="522"/>
    </contour>
  </outline>
</glyph>
<glyph name="Q" format="2">
  <advance width="500.0"/>
  <unicode hex="0051"/>
  <anchor x="351.7695154586736" y="600" name="top"/>
  <anchor x="176.73205080756887" y="-1" name="cedilla"/>
  <anchor x="317.5499814951862" y="-39" name="ogonek"/>
  <anchor x="211.0" y="0" name="bottom"/>
  <outline>
    <contour>
      <point x="232" y="137" type="curve" smooth="yes"/>
      <point x="291" y="137"/>
      <point x="352" y="250"/>
      <point x="369" y="311" type="curve" smooth="yes"/>
      <point x="384" y="366"/>
      <point x="427" y="498"/>
      <point x="338" y="498" type="curve" smooth="yes"/>
      <point x="271" y="498"/>
      <point x="224" y="382"/>
      <point x="202" y="324" type="curve" smooth="yes"/>
      <point x="182" y="265"/>
      <point x="141" y="137"/>
    </contour>
    <contour>
      <point x="389.8859538993036" y="119" type="curve" smooth="yes"/>
      <point x="343.80900235343626" y="59"/>
      <point x="287.7320508075689" y="-1"/>
      <point x="176.73205080756887" y="-1" type="curve" smooth="yes"/>
      <point x="56.732050807568875" y="-1"/>
      <point x="39.316734517650545" y="143"/>
      <point x="84.52835126878578" y="308" type="curve" smooth="yes"/>
      <point x="120.70149224698736" y="443"/>
      <point x="196.9849057678471" y="612"/>
      <point x="361.98490576784707" y="612" type="curve" smooth="yes"/>
      <point x="439.98490576784707" y="612"/>
      <point x="465.48232837977565" y="584"/>
      <point x="486.56820825982413" y="547" type="curve" smooth="yes"/>
      <point x="512.7066470231302" y="499"/>
      <point x="507.5386608210715" y="420"/>
      <point x="475.65270692176796" y="301" type="curve" smooth="yes"/>
      <point x="457.7001110288827" y="234"/>
      <point x="423.4795659435664" y="166"/>
    </contour>
    <contour>
      <point x="259.3129609596123" y="296" type="curve" smooth="yes"/>
      <point x="313.88733511740827" y="328"/>
      <point x="332.06424965364806" y="310"/>
      <point x="345.5616722655766" y="282" type="curve" smooth="yes"/>
      <point x="353.7385868018164" y="264"/>
      <point x="374.0539401013623" y="198"/>
      <point x="387.94366755870413" y="164" type="curve" smooth="yes"/>
      <point x="400.90519178577046" y="134"/>
      <point x="423.56029104747194" y="73"/>
      <point x="436.84232335022705" y="33" type="curve" smooth="yes"/>
      <point x="444.0717967697245" y="4"/>
      <point x="438.71281292110206" y="-16"/>
      <point x="396.74613391789285" y="-42" type="curve" smooth="yes"/>
      <point x="359.3153532995459" y="-66"/>
      <point x="326.19099764656374" y="-59"/>
      <point x="317.5499814951862" y="-39" type="curve" smooth="yes"/>
      <point x="299.87564434701784" y="7"/>
      <point x="279.34490073829846" y="61"/>
      <point x="263.67056359013014" y="107" type="curve" smooth="yes"/>
      <point x="256.49364905389035" y="125"/>
      <point x="236.55136271329087" y="170"/>
      <point x="219.6090763726914" y="215" type="curve" smooth="yes"/>
      <point x="210.7719077986072" y="238"/>
      <point x="229.48987549585212" y="278"/>
    </contour>
  </outline>
</glyph>
<glyph name="R" format="2">
  <advance width="500.0"/>
  <unicode hex="0052"/>
  <anchor x="330.7695154586736" y="600" name="top"/>
  <anchor x="67.32050807568876" y="-10" name="cedilla"/>
  <anchor x="320.5884572681199" y="-9" name="ogonek"/>
  <anchor x="190.0" y="0" name="bottom"/>
  <outline>
    <contour>
      <point x="159.85539533872208" y="563" type="curve" smooth="yes"/>
      <point x="175.76951545867362" y="600"/>
      <point x="211.10926142082923" y="605"/>
      <point x="320.6451598056915" y="607" type="curve" smooth="yes"/>
      <point x="502.1810581905537" y="609"/>
      <point x="526.9938341020281" y="515"/>
      <point x="502.3425083983649" y="423" type="curve" smooth="yes"/>
      <point x="480.9065730038751" y="343"/>
      <point x="424.68602791855875" y="275"/>
      <point x="358.79114568507407" y="253" type="curve" smooth="yes"/>
      <point x="314.77190779860723" y="238"/>
      <point x="243.41292394998476" y="218"/>
      <point x="214.41292394998476" y="218" type="curve" smooth="yes"/>
      <point x="202.41292394998476" y="218"/>
      <point x="185.14497475755363" y="217"/>
      <point x="182.14497475755363" y="217" type="curve"/>
      <point x="216.63862381144395" y="342" type="line"/>
      <point x="218.63862381144395" y="342"/>
      <point x="216.63862381144395" y="342"/>
      <point x="218.63862381144395" y="342" type="curve" smooth="yes"/>
      <point x="321" y="344"/>
      <point x="362" y="364"/>
      <point x="380" y="430" type="curve" smooth="yes"/>
      <point x="388" y="457"/>
      <point x="374" y="487"/>
      <point x="320" y="487" type="curve" smooth="yes"/>
      <point x="300" y="487"/>
      <point x="281" y="483"/>
      <point x="262.6156123669389" y="480" type="curve"/>
      <point x="237.87325200708426" y="369"/>
      <point x="177.38622028346617" y="165.5382339669316"/>
      <point x="136.98591688967605" y="41" type="curve" smooth="yes"/>
      <point x="128.7512886940357" y="14"/>
      <point x="113.32050807568876" y="-10"/>
      <point x="67.32050807568876" y="-10" type="curve" smooth="yes"/>
      <point x="16.052558883257653" y="-11"/>
      <point x="4.091034656191333" y="19"/>
      <point x="18.469256391280624" y="54" type="curve" smooth="yes"/>
      <point x="39.20646197499237" y="109"/>
      <point x="97.13604642337252" y="314"/>
      <point x="129.36174628483172" y="438" type="curve" smooth="yes"/>
      <point x="138.7446780978745" y="475.4257654607779"/>
      <point x="142.64517280429382" y="526.8655176214894"/>
    </contour>
    <contour>
      <point x="340.54243437910975" y="267" type="line"/>
      <point x="397.86294245479854" y="257"/>
      <point x="401.55651748943376" y="226"/>
      <point x="400.44624494677555" y="192" type="curve" smooth="yes"/>
      <point x="398.9769885554949" y="138"/>
      <point x="388.79491924311225" y="100"/>
      <point x="414.8615612366939" y="48" type="curve" smooth="yes"/>
      <point x="427.16283142591584" y="23"/>
      <point x="403.46410161513774" y="-2"/>
      <point x="382.66025403784437" y="-5" type="curve" smooth="yes"/>
      <point x="286.9089653438087" y="-19"/>
      <point x="276.0" y="0"/>
      <point x="269.3782217350893" y="35" type="curve" smooth="yes"/>
      <point x="263.6128499307296" y="62"/>
      <point x="293" y="155"/>
      <point x="276" y="190" type="curve" smooth="yes"/>
      <point x="263" y="216"/>
      <point x="188.00138121810465" y="209"/>
      <point x="155.34112718026026" y="214" type="curve"/>
    </contour>
  </outline>
</glyph>
<glyph name="S" format="2">
  <advance width="500.0"/>
  <unicode hex="0053"/>
  <anchor x="365.2695154586736" y="600.0" name="top"/>
  <anchor x="182.5884572681199" y="-9" name="cedilla"/>
  <anchor x="182.5884572681199" y="-9" name="ogonek"/>
  <anchor x="191.66666666666666" y="0.0" name="bottom"/>
  <outline>
    <contour>
      <point x="357.98490576784707" y="612" type="curve" smooth="yes"/>
      <point x="435.98490576784707" y="612"/>
      <point x="475.429769496518" y="595"/>
      <point x="506.443852606842" y="554" type="curve" smooth="yes"/>
      <point x="523.2810211809261" y="531"/>
      <point x="516.5630534836812" y="491"/>
      <point x="471.52457771074756" y="461" type="curve" smooth="yes"/>
      <point x="424.2181527453828" y="430"/>
      <point x="391.4002220577654" y="468"/>
      <point x="385.73996801992104" y="473" type="curve" smooth="yes"/>
      <point x="378.88356155937004" y="481"/>
      <point x="367.0989518685435" y="493"/>
      <point x="336.0989518685435" y="493" type="curve" smooth="yes"/>
      <point x="310.0989518685435" y="493"/>
      <point x="274.15151075180114" y="482"/>
      <point x="266.5053398242807" y="446" type="curve" smooth="yes"/>
      <point x="260.2707116286404" y="419"/>
      <point x="243.91172778001794" y="399"/>
      <point x="307.50018504813784" y="390" type="curve" smooth="yes"/>
      <point x="424.01684554653326" y="377"/>
      <point x="434.87325200708426" y="369"/>
      <point x="456.0309286568572" y="336" type="curve" smooth="yes"/>
      <point x="474.5283512687858" y="308"/>
      <point x="464.5757553759006" y="241"/>
      <point x="450.6423973694822" y="189" type="curve" smooth="yes"/>
      <point x="434.5654458236148" y="129"/>
      <point x="407.5077321642143" y="84"/>
      <point x="368.66540881398726" y="51" type="curve" smooth="yes"/>
      <point x="324.4833395016046" y="13"/>
      <point x="259.5884572681199" y="-9"/>
      <point x="182.5884572681199" y="-9" type="curve" smooth="yes"/>
      <point x="115.5884572681199" y="-9"/>
      <point x="62.4833395016046" y="13"/>
      <point x="33.325662851831645" y="46" type="curve" smooth="yes"/>
      <point x="16.416697508022978" y="65"/>
      <point x="13.134665205267883" y="105"/>
      <point x="60.24493774792605" y="139" type="curve" smooth="yes"/>
      <point x="110.35521029058422" y="173"/>
      <point x="140.47956594356637" y="166"/>
      <point x="173.17314097820156" y="135" type="curve" smooth="yes"/>
      <point x="191.08210632201025" y="116"/>
      <point x="211.54620793714798" y="114"/>
      <point x="227.54620793714798" y="114" type="curve" smooth="yes"/>
      <point x="255.54620793714798" y="114"/>
      <point x="280.689801476597" y="122"/>
      <point x="294.90519178577046" y="134" type="curve" smooth="yes"/>
      <point x="308.85263290251277" y="145"/>
      <point x="320.7475151359975" y="167"/>
      <point x="324.76675302246434" y="182" type="curve" smooth="yes"/>
      <point x="327.7141941392067" y="193"/>
      <point x="330.948822334847" y="220"/>
      <point x="326.62831425915823" y="230" type="curve" smooth="yes"/>
      <point x="314.86294245479854" y="257"/>
      <point x="261.86294245479854" y="257"/>
      <point x="238.47063760938528" y="263" type="curve" smooth="yes"/>
      <point x="136.75782468828322" y="279"/>
      <point x="106.67194480823477" y="316"/>
      <point x="141.62969547726286" y="439" type="curve" smooth="yes"/>
      <point x="181.21437918734452" y="583"/>
      <point x="270.98490576784707" y="612"/>
    </contour>
  </outline>
</glyph>
<glyph name="T" format="2">
  <advance width="500.0"/>
  <unicode hex="0054"/>
  <anchor x="360.7695154586736" y="600.0" name="top"/>
  <anchor x="197.85640646055103" y="-8" name="cedilla"/>
  <anchor x="197.85640646055103" y="-8" name="ogonek"/>
  <anchor x="200.0" y="0" name="bottom"/>
  <outline>
    <contour>
      <point x="395.2233075215256" y="486" type="line"/>
      <point x="387.6489333637297" y="454"/>
      <point x="380.4861019378139" y="431"/>
      <point x="356.73990633720837" y="343" type="curve" smooth="yes"/>
      <point x="322.0731779878291" y="213"/>
      <point x="289.4128622672721" y="88"/>
      <point x="285.12567518837415" y="72" type="curve" smooth="yes"/>
      <point x="270.3884696046624" y="17"/>
      <point x="263.856406460551" y="-8"/>
      <point x="197.85640646055103" y="-8" type="curve" smooth="yes"/>
      <point x="134.85640646055103" y="-8"/>
      <point x="136.56796152897365" y="27"/>
      <point x="151.72695771413865" y="73" type="curve" smooth="yes"/>
      <point x="153.33465286872539" y="79"/>
      <point x="202.36935508362083" y="262"/>
      <point x="213.81937358843462" y="301" type="curve" smooth="yes"/>
      <point x="207.6565421625188" y="278"/>
      <point x="252.77328901671183" y="447"/>
      <point x="261.88356155937004" y="481" type="curve"/>
    </contour>
    <contour>
      <point x="117.13914590019144" y="541.6666666666666" type="curve" smooth="yes"/>
      <point x="124.19514130087768" y="568"/>
      <point x="145.76951545867362" y="600"/>
      <point x="172.76951545867362" y="600" type="curve" smooth="yes"/>
      <point x="246.76951545867362" y="600"/>
      <point x="252.69771868894912" y="596"/>
      <point x="286.0103260801188" y="597.1666666666666" type="curve" smooth="yes"/>
      <point x="338.5015662662425" y="599"/>
      <point x="419.03746465110476" y="601"/>
      <point x="456.7695154586736" y="600" type="curve" smooth="yes"/>
      <point x="502.5015662662425" y="599"/>
      <point x="529.7695154586736" y="600"/>
      <point x="545.7695154586736" y="600" type="curve" smooth="yes"/>
      <point x="575.7695154586736" y="600"/>
      <point x="583.14258241762" y="579"/>
      <point x="572.8711967077603" y="540.6666666666666" type="curve" smooth="yes"/>
      <point x="562.8677601903318" y="503.3333333333333"/>
      <point x="539.9186008148752" y="473.6666666666667"/>
      <point x="512.650651622444" y="472.6666666666667" type="curve" smooth="yes"/>
      <point x="520.9186008148752" y="473.6666666666667"/>
      <point x="465.59637448047204" y="465"/>
      <point x="385.9186008148751" y="473.6666666666667" type="curve" smooth="yes"/>
      <point x="383.9186008148751" y="473.6666666666667"/>
      <point x="346.9457393858611" y="477.5"/>
      <point x="309.9186008148751" y="473.6666666666667" type="curve" smooth="yes"/>
      <point x="220.8643236729032" y="466"/>
      <point x="163.650651622444" y="472.6666666666667"/>
      <point x="139.9457393858611" y="477.5" type="curve" smooth="yes"/>
      <point x="110.97287795684704" y="481.3333333333333"/>
      <point x="108.85024056257922" y="507"/>
    </contour>
  </outline>
</glyph>
<glyph name="U" format="2">
  <advance width="500.0"/>
  <unicode hex="0055"/>
  <anchor x="360.7695154586736" y="600.0" name="top"/>
  <anchor x="195.71281292110203" y="-16" name="cedilla"/>
  <anchor x="195.71281292110203" y="-16" name="ogonek"/>
  <anchor x="200.0" y="0" name="bottom"/>
  <anchor x="471" y="524" name="horn"/>
  <outline>
    <contour>
      <point x="275.8735438928143" y="533.8333333333334" type="curve" smooth="yes"/>
      <point x="265.8350681198806" y="503.8333333333333"/>
      <point x="225.4696099597233" y="348.8333333333333"/>
      <point x="214.93262224248645" y="302.6666666666667" type="curve" smooth="yes"/>
      <point x="192.24860446837206" y="211.16666666666666"/>
      <point x="186.70926956608125" y="171.83333333333334"/>
      <point x="189.10626878160247" y="152.16666666666666" type="curve" smooth="yes"/>
      <point x="190.42591772793412" y="132.83333333333331"/>
      <point x="200.61800470687248" y="118"/>
      <point x="231.61800470687248" y="118" type="curve" smooth="yes"/>
      <point x="264.61800470687245" y="118"/>
      <point x="282.039166381986" y="134.5"/>
      <point x="300.69644430843664" y="161.83333333333331" type="curve" smooth="yes"/>
      <point x="318.42465987525475" y="183.83333333333334"/>
      <point x="331.38023187953365" y="218.5"/>
      <point x="349.3106137745583" y="302.8333333333333" type="curve" smooth="yes"/>
      <point x="359.42815807539597" y="351.1666666666667"/>
      <point x="405.47866165932965" y="511.8333333333333"/>
      <point x="411.94854697694996" y="540.3333333333334" type="curve" smooth="yes"/>
      <point x="416.0419288181953" y="552.5"/>
      <point x="438.83255241452184" y="605.8333333333334"/>
      <point x="489.97849313902475" y="607.0" type="curve" smooth="yes"/>
      <point x="531.3564846710967" y="607.1666666666666"/>
      <point x="550.7502775722068" y="585.0"/>
      <point x="547.0515477614288" y="560.0" type="curve" smooth="yes"/>
      <point x="538.9220373323037" y="511.0"/>
      <point x="499.84634363911573" y="400.0"/>
      <point x="480.65270692176796" y="301.0" type="curve" smooth="yes"/>
      <point x="459.85137504983334" y="196.0"/>
      <point x="435.58468371008166" y="144.0"/>
      <point x="399.7231224733878" y="96.0" type="curve" smooth="yes"/>
      <point x="342.6269330410536" y="21.0"/>
      <point x="287.71281292110206" y="-16"/>
      <point x="195.71281292110203" y="-16" type="curve" smooth="yes"/>
      <point x="118.71281292110203" y="-16"/>
      <point x="92.75128869403571" y="14.0"/>
      <point x="65.88079912316073" y="63.0" type="curve" smooth="yes"/>
      <point x="39.01030955228574" y="112.0"/>
      <point x="48.910346561913315" y="190.0"/>
      <point x="80.65270692176793" y="301.0" type="curve" smooth="yes"/>
      <point x="114.80661001350265" y="421.0"/>
      <point x="138.13742764147716" y="523.0"/>
      <point x="151.92719210844658" y="567.0" type="curve" smooth="yes"/>
      <point x="158.55412514950015" y="588.0"/>
      <point x="186.73768251757969" y="609.8333333333334"/>
      <point x="233.57977566478925" y="608.0" type="curve" smooth="yes"/>
      <point x="286.2639619592085" y="604.3333333333334"/>
      <point x="281.83060395279006" y="552.3333333333334"/>
    </contour>
  </outline>
</glyph>
<glyph name="V" format="2">
  <advance width="500.0"/>
  <unicode hex="0056"/>
  <anchor x="350.7695154586736" y="600" name="top"/>
  <anchor x="125.79491924311228" y="100" name="cedilla"/>
  <anchor x="127.79491924311228" y="100" name="ogonek"/>
  <anchor x="200.0" y="0" name="bottom"/>
  <outline>
    <contour>
      <point x="202.71695657541596" y="611" type="curve" smooth="yes"/>
      <point x="254.05670253757157" y="616"/>
      <point x="253.8413122283981" y="604"/>
      <point x="254.5348872630333" y="573" type="curve" smooth="yes"/>
      <point x="257.73996801992104" y="473"/>
      <point x="260.29510429125014" y="490"/>
      <point x="258.480947161671" y="375" type="curve" smooth="yes"/>
      <point x="257.6719448082348" y="316"/>
      <point x="256.9398940006659" y="317"/>
      <point x="255.82962145800772" y="283" type="curve" smooth="yes"/>
      <point x="252.00138121810465" y="209"/>
      <point x="244.39368606351792" y="203"/>
      <point x="245.0872610981531" y="172" type="curve"/>
      <point x="269.77190779860723" y="238"/>
      <point x="285.5616722655766" y="282"/>
      <point x="316.3181157357552" y="352" type="curve" smooth="yes"/>
      <point x="342.46686405134705" y="416"/>
      <point x="369.00791721235214" y="474"/>
      <point x="443.5348872630333" y="573" type="curve" smooth="yes"/>
      <point x="467.8413122283981" y="604"/>
      <point x="501.5926009224338" y="618"/>
      <point x="533.6451598056915" y="607" type="curve" smooth="yes"/>
      <point x="571.1618203040869" y="594"/>
      <point x="581.7310396857399" y="570"/>
      <point x="563.7643606825308" y="544" type="curve" smooth="yes"/>
      <point x="539.1181897550103" y="508"/>
      <point x="528.0989518685435" y="493"/>
      <point x="513.9361204426277" y="470" type="curve" smooth="yes"/>
      <point x="478.6630164740537" y="413"/>
      <point x="420.33219884607917" y="311"/>
      <point x="416.18860530663017" y="303" type="curve" smooth="yes"/>
      <point x="360.661635255949" y="204"/>
      <point x="316.0103095522857" y="112"/>
      <point x="276.7179676972449" y="40" type="curve" smooth="yes"/>
      <point x="260.94744111674237" y="11"/>
      <point x="216.78460969082653" y="-12"/>
      <point x="196.78460969082653" y="-12" type="curve" smooth="yes"/>
      <point x="177.78460969082653" y="-12"/>
      <point x="151.14359353944897" y="8"/>
      <point x="147.71796769724492" y="40" type="curve" smooth="yes"/>
      <point x="147.32566285183165" y="46"/>
      <point x="135.37960295319394" y="244"/>
      <point x="134.58091015204343" y="297" type="curve" smooth="yes"/>
      <point x="134.19376008277305" y="359"/>
      <point x="132.50018504813784" y="390"/>
      <point x="130.47201882748993" y="472" type="curve" smooth="yes"/>
      <point x="129.38613894744145" y="509"/>
      <point x="128.69256391280626" y="540"/>
      <point x="128.37205583711747" y="550" type="curve" smooth="yes"/>
      <point x="126.73103968573994" y="570"/>
      <point x="153.10926142082923" y="605"/>
    </contour>
  </outline>
</glyph>
<glyph name="W" format="2">
  <advance width="500.0"/>
  <unicode hex="0057"/>
  <anchor x="360.7695154586736" y="600.0" name="top"/>
  <anchor x="103.5884572681199" y="-9" name="cedilla"/>
  <anchor x="292.5884572681199" y="-9" name="ogonek"/>
  <anchor x="200.0" y="0.0" name="bottom"/>
  <outline>
    <contour>
      <point x="198.8413122283981" y="604" type="curve" smooth="yes"/>
      <point x="245.2528549602782" y="613"/>
      <point x="256.4105316100512" y="580"/>
      <point x="249.83615745225524" y="548" type="curve" smooth="yes"/>
      <point x="242.65408813987258" y="510"/>
      <point x="210.42838827841337" y="386"/>
      <point x="196.83477623415058" y="339" type="curve" smooth="yes"/>
      <point x="181.9732149974567" y="291"/>
      <point x="182.078332763972" y="269"/>
      <point x="179.58983848622455" y="200" type="curve"/>
      <point x="208.47063760938528" y="263"/>
      <point x="206.5949932623674" y="256"/>
      <point x="231.67194480823477" y="316" type="curve" smooth="yes"/>
      <point x="236.88733511740824" y="328"/>
      <point x="236.6578616979108" y="357"/>
      <point x="295.6578616979108" y="357" type="curve" smooth="yes"/>
      <point x="361.6578616979108" y="357"/>
      <point x="345.81553834768374" y="324"/>
      <point x="344.6719448082348" y="316" type="curve" smooth="yes"/>
      <point x="336.86294245479854" y="257"/>
      <point x="338.54243437910975" y="267"/>
      <point x="328.58983848622455" y="200" type="curve"/>
      <point x="361.27448518667865" y="266"/>
      <point x="370.5616722655766" y="282"/>
      <point x="386.2988778492884" y="337" type="curve" smooth="yes"/>
      <point x="399.08864231625773" y="381"/>
      <point x="449.28102118092613" y="531"/>
      <point x="460.3194969538598" y="561" type="curve" smooth="yes"/>
      <point x="467.9464299949134" y="582"/>
      <point x="493.52080415270933" y="614"/>
      <point x="545.573363035967" y="603" type="curve" smooth="yes"/>
      <point x="576.6977186889492" y="596"/>
      <point x="582.3387348403267" y="576"/>
      <point x="559.6733260263394" y="525" type="curve" smooth="yes"/>
      <point x="545.3669010609747" y="494"/>
      <point x="497.4232335022705" y="330"/>
      <point x="480.4898754958521" y="278" type="curve" smooth="yes"/>
      <point x="441.1923788646684" y="150"/>
      <point x="405.7231224733878" y="96"/>
      <point x="352.4850577603189" y="31.666666666666668" type="curve" smooth="yes"/>
      <point x="327.53589838486226" y="2"/>
      <point x="318.5884572681199" y="-9"/>
      <point x="292.5884572681199" y="-9" type="curve" smooth="yes"/>
      <point x="241.5884572681199" y="-9"/>
      <point x="237.39230484541326" y="-6"/>
      <point x="238.43078061834694" y="24" type="curve" smooth="yes"/>
      <point x="239.88079912316073" y="63"/>
      <point x="242.36413862476533" y="76"/>
      <point x="233.22569986145922" y="124" type="curve"/>
      <point x="198.36413862476533" y="76"/>
      <point x="192.14874831559186" y="64"/>
      <point x="175.03847577293368" y="30" type="curve" smooth="yes"/>
      <point x="156.39230484541326" y="-6"/>
      <point x="152.5884572681199" y="-9"/>
      <point x="103.5884572681199" y="-9" type="curve" smooth="yes"/>
      <point x="78.5884572681199" y="-9"/>
      <point x="70.0717967697245" y="4"/>
      <point x="66.24424713887373" y="34.5" type="curve" smooth="yes"/>
      <point x="51.28341352085974" y="169"/>
      <point x="51.374448177051065" y="188"/>
      <point x="69.02577388071435" y="280" type="curve" smooth="yes"/>
      <point x="73.18860530663018" y="303"/>
      <point x="126.24254540799248" y="501"/>
      <point x="132.08486875821953" y="534" type="curve" smooth="yes"/>
      <point x="135.82207434193126" y="589"/>
      <point x="168.573363035967" y="603"/>
    </contour>
  </outline>
</glyph>
<glyph name="X" format="2">
  <advance width="500.0"/>
  <unicode hex="0058"/>
  <anchor x="360.7695154586736" y="600.0" name="top"/>
  <anchor x="35.78460969082653" y="-12" name="cedilla"/>
  <anchor x="364.12435565298216" y="-7" name="ogonek"/>
  <anchor x="200.0" y="0.0" name="bottom"/>
  <outline>
    <contour>
      <point x="559.1092614208292" y="605.0" type="curve" smooth="yes"/>
      <point x="577.6586139896758" y="591.5"/>
      <point x="591.087446146291" y="562.0"/>
      <point x="572.5323098749618" y="545.0" type="curve" smooth="yes"/>
      <point x="546.5656308717527" y="519.0"/>
      <point x="330.0129486230698" y="270.0"/>
      <point x="346.1039832792611" y="289.0" type="curve" smooth="yes"/>
      <point x="317.5296091214652" y="257.0"/>
      <point x="194.48082379624577" y="115.0"/>
      <point x="127.18848194120494" y="43.0" type="curve" smooth="yes"/>
      <point x="93.81026020611563" y="8.0"/>
      <point x="39.949558098778894" y="-30.666666666666664"/>
      <point x="9.464101615137757" y="-2" type="curve" smooth="yes"/>
      <point x="-6.924137786507224" y="15.833333333333334"/>
      <point x="-19.78203230275509" y="40.0"/>
      <point x="16.667986202058692" y="79.0" type="curve" smooth="yes"/>
      <point x="34.4910716658189" y="97.0"/>
      <point x="180.2155136745987" y="272.0"/>
      <point x="260.25914422367526" y="358.0" type="curve" smooth="yes"/>
      <point x="394.11177712618803" y="503.0"/>
      <point x="442.1887286720554" y="563.0"/>
      <point x="470.3515600979712" y="586.0" type="curve" smooth="yes"/>
      <point x="498.7823407163181" y="610.0"/>
      <point x="527.1229458078309" y="624.3333333333334"/>
    </contour>
    <contour>
      <point x="165.5015662662425" y="599.0" type="curve" smooth="yes"/>
      <point x="214.33106435882496" y="622.0"/>
      <point x="219" y="609"/>
      <point x="232" y="584" type="curve" smooth="yes"/>
      <point x="248" y="552"/>
      <point x="259" y="502"/>
      <point x="317" y="358" type="curve" smooth="yes"/>
      <point x="353" y="273"/>
      <point x="415" y="99"/>
      <point x="422" y="80" type="curve" smooth="yes"/>
      <point x="436" y="41"/>
      <point x="429.06303695584825" y="5.833333333333334"/>
      <point x="398.7320508075689" y="-1.0" type="curve" smooth="yes"/>
      <point x="337.6170838948027" y="-21.333333333333332"/>
      <point x="320.0128252576445" y="10.0"/>
      <point x="306.65899618516494" y="46.0" type="curve" smooth="yes"/>
      <point x="280.21928723263693" y="119.0"/>
      <point x="240.36294245479854" y="257.0"/>
      <point x="228.93731661259446" y="289.0" type="curve" smooth="yes"/>
      <point x="234.84628195640312" y="270.0"/>
      <point x="140.22588490959706" y="514.0"/>
      <point x="124.92461472037513" y="539.0" type="curve" smooth="yes"/>
      <point x="114.2118017992731" y="555.0"/>
      <point x="141.16416748914088" y="587.1666666666666"/>
    </contour>
  </outline>
</glyph>
<glyph name="Y" format="2">
  <advance width="500.0"/>
  <unicode hex="0059"/>
  <anchor x="360.7695154586736" y="600.0" name="top"/>
  <anchor x="197.85640646055103" y="-8" name="cedilla"/>
  <anchor x="197.85640646055103" y="-8" name="ogonek"/>
  <anchor x="200.0" y="0" name="bottom"/>
  <outline>
    <contour>
      <point x="221" y="316" type="curve"/>
      <point x="214" y="332"/>
      <point x="183" y="393"/>
      <point x="169" y="424" type="curve" smooth="yes"/>
      <point x="162" y="439"/>
      <point x="129" y="515"/>
      <point x="120" y="538" type="curve" smooth="yes"/>
      <point x="107" y="569"/>
      <point x="130" y="587"/>
      <point x="153.5015662662425" y="599" type="curve" smooth="yes"/>
      <point x="200" y="622"/>
      <point x="215" y="604"/>
      <point x="236" y="559" type="curve" smooth="yes"/>
      <point x="243" y="542"/>
      <point x="258" y="514"/>
      <point x="276" y="475" type="curve" smooth="yes"/>
      <point x="292" y="441"/>
      <point x="305" y="421"/>
      <point x="309" y="411" type="curve"/>
      <point x="331" y="434"/>
      <point x="352" y="456"/>
      <point x="375" y="478" type="curve" smooth="yes"/>
      <point x="403" y="505"/>
      <point x="460.65924291601544" y="566"/>
      <point x="467.33552852591555" y="573.5" type="curve" smooth="yes"/>
      <point x="511.12849930729607" y="620"/>
      <point x="528.2720928467451" y="628"/>
      <point x="565.573363035967" y="603" type="curve" smooth="yes"/>
      <point x="586.8220743419313" y="589"/>
      <point x="592.0515477614288" y="560"/>
      <point x="576.4964114900996" y="543" type="curve" smooth="yes"/>
      <point x="566.8169195657883" y="533"/>
      <point x="516" y="476"/>
      <point x="447" y="407" type="curve" smooth="yes"/>
      <point x="420" y="380"/>
      <point x="339" y="303"/>
      <point x="337" y="301" type="curve"/>
      <point x="320.919336578807" y="223" type="line" smooth="yes"/>
      <point x="294" y="91"/>
      <point x="285.74619560060546" y="88"/>
      <point x="281.4590085217075" y="72" type="curve" smooth="yes"/>
      <point x="266.7218029379958" y="17"/>
      <point x="246.39230484541326" y="-6"/>
      <point x="199.85640646055103" y="-8" type="curve" smooth="yes"/>
      <point x="139.32050807568876" y="-10"/>
      <point x="140.2346281956403" y="27"/>
      <point x="155.3936243808053" y="73" type="curve" smooth="yes"/>
      <point x="156.19747195809867" y="76"/>
      <point x="176" y="145"/>
      <point x="185.33213716336655" y="181" type="curve" smooth="yes"/>
      <point x="196" y="224"/>
      <point x="212" y="282"/>
    </contour>
  </outline>
</glyph>
<glyph name="Z" format="2">
  <advance width="500.0"/>
  <unicode hex="005A"/>
  <anchor x="360.7695154586736" y="600.0" name="top"/>
  <anchor x="200.80384757729337" y="3" name="cedilla"/>
  <anchor x="300.80384757729337" y="3" name="ogonek"/>
  <anchor x="208.0" y="0.0" name="bottom"/>
  <outline>
    <contour>
      <point x="546.3054138435359" y="602" type="curve" smooth="yes"/>
      <point x="585.8413122283981" y="604"/>
      <point x="591.587446146291" y="562"/>
      <point x="575.0130719884951" y="530" type="curve" smooth="yes"/>
      <point x="560.314342177717" y="505"/>
      <point x="527.0604760956098" y="463"/>
      <point x="465.64377858758684" y="398" type="curve" smooth="yes"/>
      <point x="427.6578616979108" y="357"/>
      <point x="371.58091015204343" y="297"/>
      <point x="342.54243437910975" y="267" type="curve" smooth="yes"/>
      <point x="229.65648047980616" y="148"/>
      <point x="193.4410901706327" y="136"/>
      <point x="158.27825874471688" y="113" type="curve"/>
      <point x="177.68980147659698" y="122"/>
      <point x="218.68980147659698" y="122"/>
      <point x="247.68980147659698" y="122" type="curve" smooth="yes"/>
      <point x="341.9577506690281" y="123"/>
      <point x="389.4218522841658" y="121"/>
      <point x="412.61800470687245" y="118" type="curve" smooth="yes"/>
      <point x="441.8141571295791" y="115"/>
      <point x="442.93335800641836" y="52"/>
      <point x="441.3256628518316" y="46" type="curve" smooth="yes"/>
      <point x="432.2153903091735" y="12"/>
      <point x="419.7320508075689" y="-1"/>
      <point x="392.2679491924311" y="1" type="curve" smooth="yes"/>
      <point x="357.80384757729337" y="3"/>
      <point x="321.53589838486226" y="2"/>
      <point x="300.80384757729337" y="3" type="curve" smooth="yes"/>
      <point x="238.3397459621556" y="5"/>
      <point x="203.53589838486224" y="2"/>
      <point x="109.0" y="0" type="curve" smooth="yes"/>
      <point x="60.732050807568875" y="-1"/>
      <point x="35.46410161513776" y="-2"/>
      <point x="19.464101615137757" y="-2" type="curve" smooth="yes"/>
      <point x="2.464101615137757" y="-2"/>
      <point x="-24.12435565298214" y="7"/>
      <point x="-18.30127018922193" y="25" type="curve" smooth="yes"/>
      <point x="-12.746133917892848" y="42"/>
      <point x="-19.38715006927039" y="62"/>
      <point x="20.062868435543393" y="101" type="curve" smooth="yes"/>
      <point x="37.8859538993036" y="119"/>
      <point x="190.54243437910975" y="267"/>
      <point x="272.5860649281863" y="353" type="curve" smooth="yes"/>
      <point x="339.0745592059338" y="422"/>
      <point x="385.11303497886746" y="452"/>
      <point x="428.027155098819" y="489" type="curve"/>
      <point x="408.07971398207667" y="478"/>
      <point x="378.6156123669389" y="480"/>
      <point x="355.88356155937004" y="481" type="curve" smooth="yes"/>
      <point x="316.88356155937004" y="481" type="line" smooth="yes"/>
      <point x="300.88356155937004" y="481"/>
      <point x="285.88356155937004" y="481"/>
      <point x="271.88356155937004" y="481" type="curve" smooth="yes"/>
      <point x="220.88356155937" y="481"/>
      <point x="183.88356155937" y="481"/>
      <point x="166.41945994423227" y="483" type="curve" smooth="yes"/>
      <point x="136.9553583290945" y="485"/>
      <point x="131.45793571716595" y="513"/>
      <point x="141.08486875821953" y="534" type="curve" smooth="yes"/>
      <point x="153.65924291601544" y="566"/>
      <point x="170.76951545867362" y="600"/>
      <point x="197.76951545867362" y="600" type="curve" smooth="yes"/>
      <point x="271.7695154586736" y="600"/>
      <point x="265.5015662662425" y="599"/>
      <point x="291.5015662662425" y="599" type="curve" smooth="yes"/>
      <point x="312.5015662662425" y="599"/>
      <point x="337.5015662662425" y="599"/>
      <point x="362.7695154586736" y="600" type="curve" smooth="yes"/>
      <point x="400.7695154586736" y="600"/>
      <point x="439.03746465110476" y="601"/>
      <point x="468.7695154586736" y="600" type="curve" smooth="yes"/>
      <point x="503.5015662662425" y="599"/>
      <point x="530.0374646511048" y="601"/>
    </contour>
  </outline>
</glyph>
<glyph name="bracketleft" format="2">
  <advance width="500.0"/>
  <unicode hex="005B"/>
  <outline>
    <contour>
      <point x="231.87978800133178" y="634" type="curve"/>
      <point x="353.75543234834964" y="641" type="line"/>
      <point x="323.1374276414772" y="523"/>
      <point x="324.6015292566149" y="521"/>
      <point x="265.33219884607917" y="311" type="curve" smooth="yes"/>
      <point x="208.402614397699" y="106"/>
      <point x="227.55136271329087" y="170"/>
      <point x="185.67949192431124" y="10" type="curve"/>
      <point x="46.19099764656376" y="-59" type="line"/>
      <point x="47.530743608719376" y="-54"/>
      <point x="48.87048957087499" y="-49"/>
      <point x="50.2102355330306" y="-44" type="curve" smooth="yes"/>
      <point x="51.817930687617334" y="-38"/>
      <point x="81.43593539448982" y="80"/>
      <point x="140.9732149974567" y="291" type="curve" smooth="yes"/>
      <point x="208.01307198849503" y="530"/>
      <point x="212.1233445311532" y="564"/>
    </contour>
    <contour>
      <point x="46.19099764656376" y="-59" type="curve" smooth="yes"/>
      <point x="48.94228634059948" y="-45"/>
      <point x="74.28718707889797" y="16"/>
      <point x="106.82308546376021" y="18" type="curve" smooth="yes"/>
      <point x="159.62693304105358" y="21"/>
      <point x="183.35898384862247" y="20"/>
      <point x="206.35898384862247" y="20" type="curve" smooth="yes"/>
      <point x="260.3589838486225" y="20"/>
      <point x="253.43078061834694" y="24"/>
      <point x="307.16283142591584" y="23" type="curve" smooth="yes"/>
      <point x="334.16283142591584" y="23"/>
      <point x="343.2153903091735" y="12"/>
      <point x="328.2995519305076" y="-43.66666666666667" type="curve" smooth="yes"/>
      <point x="313.622176988233" y="-95.33333333333333"/>
      <point x="298.81277591147443" y="-94"/>
      <point x="266.2768775266122" y="-96" type="curve" smooth="yes"/>
      <point x="216.74097914174996" y="-98"/>
      <point x="178.20508075688772" y="-100"/>
      <point x="178.20508075688772" y="-100" type="curve" smooth="yes"/>
      <point x="138.74097914174996" y="-98"/>
      <point x="103.66918237202549" y="-102"/>
      <point x="82.20508075688772" y="-100" type="curve" smooth="yes"/>
      <point x="54.740979141749975" y="-98"/>
      <point x="40.224318643354565" y="-85"/>
    </contour>
    <contour>
      <point x="231.87978800133178" y="634" type="curve" smooth="yes"/>
      <point x="239.84646700454098" y="660"/>
      <point x="261.3298065061456" y="673"/>
      <point x="289.8657048910078" y="675" type="curve" smooth="yes"/>
      <point x="312.40160327587006" y="677"/>
      <point x="345.0618573137144" y="672"/>
      <point x="385.5977556985767" y="674" type="curve" smooth="yes"/>
      <point x="385.5977556985767" y="674"/>
      <point x="424.5977556985767" y="674"/>
      <point x="471.7939081212833" y="671" type="curve" smooth="yes"/>
      <point x="503.25800973642106" y="669"/>
      <point x="520.6152753263293" y="670.3333333333334"/>
      <point x="505.7712337173879" y="618.6666666666666" type="curve" smooth="yes"/>
      <point x="489.02206200538876" y="563"/>
      <point x="475.9079542219797" y="552"/>
      <point x="448.9079542219797" y="552" type="curve" smooth="yes"/>
      <point x="394.6400050295486" y="551"/>
      <point x="403.7118017992731" y="555"/>
      <point x="349.7118017992731" y="555" type="curve" smooth="yes"/>
      <point x="326.7118017992731" y="555"/>
      <point x="302.443852606842" y="554"/>
      <point x="251.24770018413534" y="557" type="curve" smooth="yes"/>
      <point x="219.78359856899758" y="559"/>
      <point x="227.12849930729607" y="620"/>
    </contour>
  </outline>
</glyph>
<glyph name="asciicircum" format="2">
  <advance width="500.0"/>
  <unicode hex="005E"/>
  <outline>
    <contour>
      <point x="109.44247138873733" y="345" type="curve" smooth="yes"/>
      <point x="99.12196331304855" y="355"/>
      <point x="102.48094716167101" y="375"/>
      <point x="127.64377858758684" y="398" type="curve" smooth="yes"/>
      <point x="171.09379709240062" y="437"/>
      <point x="201.06047609560983" y="463"/>
      <point x="209.73996801992104" y="473" type="curve" smooth="yes"/>
      <point x="236.97459621556135" y="500"/>
      <point x="308.2669380706022" y="572"/>
      <point x="337.89387111165576" y="593" type="curve" smooth="yes"/>
      <point x="351.8413122283981" y="604"/>
      <point x="364.9131089981226" y="608"/>
      <point x="374.1092614208292" y="605" type="curve" smooth="yes"/>
      <point x="380.8413122283981" y="604"/>
      <point x="385.7695154586736" y="600"/>
      <point x="391.16182030408686" y="594" type="curve" smooth="yes"/>
      <point x="409.5348872630333" y="573"/>
      <point x="431.4386978306991" y="498"/>
      <point x="446.66817125019656" y="469" type="curve" smooth="yes"/>
      <point x="453.6489333637297" y="454"/>
      <point x="459.0937970924006" y="437"/>
      <point x="487.37582939515573" y="397" type="curve" smooth="yes"/>
      <point x="502.480947161671" y="375"/>
      <point x="488.8540141206174" y="354"/>
      <point x="472.9065730038751" y="343" type="curve" smooth="yes"/>
      <point x="458.495030271995" y="334"/>
      <point x="428.94607642647077" y="287.1666666666667"/>
      <point x="414.3050602750932" y="307.1666666666667" type="curve" smooth="yes"/>
      <point x="404.52045058426665" y="319.1666666666667"/>
      <point x="390.63072312692486" y="353.1666666666667"/>
      <point x="377.79355455284065" y="376.1666666666667" type="curve" smooth="yes"/>
      <point x="361.8320303257743" y="406.1666666666667"/>
      <point x="336.3730834867795" y="464.1666666666667"/>
      <point x="333.1961689505397" y="482.1666666666667" type="curve"/>
      <point x="318.6410326792106" y="465.1666666666667"/>
      <point x="258.6358779030677" y="409.1666666666667"/>
      <point x="230.86535132256515" y="380.1666666666667" type="curve" smooth="yes"/>
      <point x="207.16662151178707" y="355.1666666666667"/>
      <point x="165.25250139183555" y="318.1666666666667"/>
      <point x="148.03711108266208" y="306.1666666666667" type="curve" smooth="yes"/>
      <point x="122.21402561890186" y="288.1666666666667"/>
      <point x="117.76297946442611" y="335"/>
    </contour>
  </outline>
</glyph>
<glyph name="underscore" format="2">
  <advance width="500.0"/>
  <unicode hex="005F"/>
  <outline>
    <contour>
      <point x="-7.352801422817613" y="-49.833333333333336" type="curve" smooth="yes"/>
      <point x="7.563036955848212" y="5.833333333333329"/>
      <point x="16.590175526834187" y="9.666666666666664"/>
      <point x="48.858124719265305" y="10.666666666666664" type="curve" smooth="yes"/>
      <point x="101.39402310412756" y="12.666666666666664"/>
      <point x="164.8581247192653" y="10.666666666666664"/>
      <point x="187.8581247192653" y="10.666666666666664" type="curve" smooth="yes"/>
      <point x="241.59017552683417" y="9.666666666666664"/>
      <point x="304.39402310412754" y="12.666666666666664"/>
      <point x="357.85812471926533" y="10.666666666666664" type="curve" smooth="yes"/>
      <point x="384.5901755268342" y="9.666666666666664"/>
      <point x="394.7591893785548" y="2.8333333333333286"/>
      <point x="379.843350999889" y="-52.833333333333336" type="curve" smooth="yes"/>
      <point x="365.9993093909477" y="-104.5"/>
      <point x="346.90037405023725" y="-112.33333333333333"/>
      <point x="314.6324248578061" y="-113.33333333333333" type="curve" smooth="yes"/>
      <point x="266.364475665375" y="-114.33333333333333"/>
      <point x="193.82857728051272" y="-116.33333333333333"/>
      <point x="157.36447566537498" y="-114.33333333333333" type="curve" smooth="yes"/>
      <point x="117.90037405023722" y="-112.33333333333333"/>
      <point x="43.36447566537497" y="-114.33333333333333"/>
      <point x="21.900374050237218" y="-112.33333333333333" type="curve" smooth="yes"/>
      <point x="-5.295778372469414" y="-109.33333333333333"/>
      <point x="-22.536588993914563" y="-106.5"/>
    </contour>
  </outline>
</glyph>
<glyph name="grave" format="2">
  <advance width="500"/>
  <unicode hex="0060"/>
  <anchor x="360.7695154586736" y="600" name="top"/>
  <outline>
    <contour>
      <point x="412.3425083983649" y="423" type="curve" smooth="yes"/>
      <point x="370.3425083983649" y="423"/>
      <point x="359.0386608210715" y="420"/>
      <point x="339.8617462848317" y="438" type="curve" smooth="yes"/>
      <point x="316.4886793258853" y="459"/>
      <point x="282.527155098819" y="489"/>
      <point x="248.12076714308176" y="536" type="curve" smooth="yes"/>
      <point x="241.800259067393" y="546"/>
      <point x="243.09299964575607" y="557.6666666666666"/>
      <point x="283.3579727267935" y="591" type="curve" smooth="yes"/>
      <point x="329.5280759108888" y="628.3333333333334"/>
      <point x="345.7823407163182" y="610"/>
      <point x="358.95925525255797" y="592" type="curve" smooth="yes"/>
      <point x="388.2412875553131" y="552"/>
      <point x="424.9156247034814" y="506"/>
      <point x="438.2168948927033" y="481" type="curve" smooth="yes"/>
      <point x="449.125860236512" y="462"/>
      <point x="444.3425083983649" y="423"/>
    </contour>
  </outline>
</glyph>
<glyph name="a" format="2">
  <advance width="500.0"/>
  <unicode hex="0061"/>
  <anchor x="290.1796769724491" y="400.0" name="top"/>
  <anchor x="136.85640646055103" y="-8" name="cedilla"/>
  <anchor x="341.856406460551" y="-8" name="ogonek"/>
  <anchor x="201.0" y="0.0" name="bottom"/>
  <outline>
    <contour>
      <point x="260.0590948775052" y="254" type="curve" smooth="yes"/>
      <point x="317.86294245479854" y="257"/>
      <point x="322.9872981077807" y="250"/>
      <point x="342.9155013380562" y="246" type="curve"/>
      <point x="335.85263290251277" y="145" type="line"/>
      <point x="308.58468371008166" y="144"/>
      <point x="314.99622644196177" y="153"/>
      <point x="289.26417563439287" y="154" type="curve" smooth="yes"/>
      <point x="222.80007401925513" y="156"/>
      <point x="154" y="150"/>
      <point x="140" y="118" type="curve" smooth="yes"/>
      <point x="128" y="91"/>
      <point x="168" y="90"/>
      <point x="190" y="91" type="curve" smooth="yes"/>
      <point x="271" y="95"/>
      <point x="295.35005551444135" y="117"/>
      <point x="319.17829575434445" y="191" type="curve"/>
      <point x="319.4500185048138" y="39" type="line"/>
      <point x="270.6794919243112" y="10"/>
      <point x="243.80384757729337" y="3"/>
      <point x="205.19615242270663" y="-3" type="curve" smooth="yes"/>
      <point x="147.78460969082653" y="-12"/>
      <point x="-5.430780618346944" y="-24"/>
      <point x="28.062868435543393" y="101" type="curve" smooth="yes"/>
      <point x="62.3603650667271" y="229"/>
      <point x="188.5231964926429" y="252"/>
    </contour>
    <contour>
      <point x="445.77190779860723" y="238" type="curve" smooth="yes"/>
      <point x="432.91034656191334" y="190"/>
      <point x="419.80007401925513" y="156"/>
      <point x="412.97183377935204" y="82" type="curve" smooth="yes"/>
      <point x="417.11027254265815" y="34"/>
      <point x="424.4115427318801" y="9"/>
      <point x="380.39230484541326" y="-6" type="curve" smooth="yes"/>
      <point x="349.71281292110206" y="-16"/>
      <point x="325.12435565298216" y="-7"/>
      <point x="312.75128869403574" y="14" type="curve" smooth="yes"/>
      <point x="278.56029104747194" y="73"/>
      <point x="312.4795659435664" y="166"/>
      <point x="328.55651748943376" y="226" type="curve" smooth="yes"/>
      <point x="345.7052658050256" y="290"/>
      <point x="333" y="310"/>
      <point x="263" y="307" type="curve" smooth="yes"/>
      <point x="218" y="305"/>
      <point x="195.09757065043885" y="284"/>
      <point x="157.48987549585212" y="278" type="curve" smooth="yes"/>
      <point x="112.61423114883425" y="271"/>
      <point x="102.16936742016334" y="288"/>
      <point x="97.26040207635467" y="307" type="curve" smooth="yes"/>
      <point x="92.49503027199498" y="334"/>
      <point x="127.67709958437764" y="372"/>
      <point x="189.57198181786234" y="394" type="curve" smooth="yes"/>
      <point x="228.05532131946694" y="407"/>
      <point x="246.8591688967603" y="410"/>
      <point x="286.8591688967603" y="410" type="curve" smooth="yes"/>
      <point x="308.8591688967603" y="410"/>
      <point x="492.9309656664848" y="414"/>
    </contour>
  </outline>
</glyph>
<glyph name="b" format="2">
  <advance width="500.0"/>
  <unicode hex="0062"/>
  <anchor x="370.7695154586736" y="600.0" name="top"/>
  <anchor x="131.78460969082653" y="-12" name="cedilla"/>
  <anchor x="131.78460969082653" y="-12" name="ogonek"/>
  <anchor x="200.0" y="0.0" name="bottom"/>
  <outline>
    <contour>
      <point x="33.94744111674235" y="11" type="curve" smooth="yes"/>
      <point x="31.751288694035715" y="14"/>
      <point x="15.182069312382666" y="38"/>
      <point x="20.560291047471956" y="73" type="curve" smooth="yes"/>
      <point x="23.383376511232164" y="91"/>
      <point x="35.28341352085974" y="169"/>
      <point x="81.65270692176793" y="301" type="curve" smooth="yes"/>
      <point x="128.02200032267612" y="433"/>
      <point x="143.20922441120166" y="527"/>
      <point x="152.31949695385984" y="561" type="curve" smooth="yes"/>
      <point x="156.94642999491342" y="582"/>
      <point x="142.8413122283981" y="604"/>
      <point x="221.2528549602782" y="613" type="curve" smooth="yes"/>
      <point x="280.52080415270933" y="614"/>
      <point x="282.5015662662425" y="599"/>
      <point x="276.65924291601544" y="566" type="curve" smooth="yes"/>
      <point x="271.0848687582195" y="534"/>
      <point x="252.2373906318496" y="445"/>
      <point x="217.90657300387508" y="343" type="curve" smooth="yes"/>
      <point x="171.73343202567352" y="208"/>
      <point x="152.71419413920668" y="193"/>
      <point x="149.8526329025128" y="145" type="curve" smooth="yes"/>
      <point x="147.27825874471688" y="113"/>
      <point x="165" y="106"/>
      <point x="178" y="106" type="curve" smooth="yes"/>
      <point x="248" y="106"/>
      <point x="325.90519178577046" y="134"/>
      <point x="350.0206191045715" y="224" type="curve" smooth="yes"/>
      <point x="363.95397711098985" y="276"/>
      <point x="369" y="301"/>
      <point x="293" y="290" type="curve" smooth="yes"/>
      <point x="258" y="283"/>
      <point x="193.0065359942475" y="265"/>
      <point x="164.1975336408113" y="206" type="curve"/>
      <point x="201.60530281465316" y="368" type="line"/>
      <point x="246.25147374217357" y="404"/>
      <point x="341.46686405134705" y="416"/>
      <point x="356.9309656664848" y="414" type="curve" smooth="yes"/>
      <point x="450.9309656664848" y="414"/>
      <point x="516.9642866632756" y="388"/>
      <point x="475.1642126440205" y="232" type="curve" smooth="yes"/>
      <point x="433.63208781719646" y="77"/>
      <point x="364.7846096908265" y="-12"/>
      <point x="131.78460969082653" y="-12" type="curve" smooth="yes"/>
      <point x="104.78460969082653" y="-12"/>
      <point x="47.85640646055102" y="-8"/>
    </contour>
  </outline>
</glyph>
<glyph name="c" format="2">
  <advance width="500.0"/>
  <unicode hex="0063"/>
  <anchor x="307.1796769724491" y="400.0" name="top"/>
  <anchor x="208.32050807568876" y="-10" name="cedilla"/>
  <anchor x="208.32050807568876" y="-10" name="ogonek"/>
  <anchor x="200.0" y="0" name="bottom"/>
  <outline>
    <contour>
      <point x="368.819311905722" y="171" type="curve" smooth="yes"/>
      <point x="382.3026514073266" y="184"/>
      <point x="398.7475151359975" y="167"/>
      <point x="409.80007401925513" y="156" type="curve" smooth="yes"/>
      <point x="423.24493774792603" y="139"/>
      <point x="427.8859538993036" y="119"/>
      <point x="407.45517328095667" y="95" type="curve" smooth="yes"/>
      <point x="348.69872981077805" y="25"/>
      <point x="268.3205080756888" y="-10"/>
      <point x="208.32050807568876" y="-10" type="curve" smooth="yes"/>
      <point x="98.32050807568876" y="-10"/>
      <point x="25.201307198849506" y="53"/>
      <point x="64.58983848622454" y="200" type="curve" smooth="yes"/>
      <point x="108.26555685249754" y="363"/>
      <point x="210.8591688967603" y="410"/>
      <point x="320.8591688967603" y="410" type="curve" smooth="yes"/>
      <point x="392.8591688967603" y="410"/>
      <point x="430.23223585570673" y="389"/>
      <point x="462.81553834768374" y="324" type="curve" smooth="yes"/>
      <point x="469.7963004612169" y="309"/>
      <point x="458.82962145800775" y="283"/>
      <point x="439.3462819564031" y="270" type="curve" smooth="yes"/>
      <point x="414.79114568507407" y="253"/>
      <point x="385.64755214562507" y="245"/>
      <point x="372.4706376093853" y="263" type="curve" smooth="yes"/>
      <point x="351.9732149974567" y="291"/>
      <point x="326.24116418988785" y="292"/>
      <point x="290.24116418988785" y="292" type="curve" smooth="yes"/>
      <point x="219.24116418988783" y="292"/>
      <point x="202.27448518667865" y="266"/>
      <point x="184.58983848622455" y="200" type="curve" smooth="yes"/>
      <point x="171.72827724953066" y="152"/>
      <point x="165.20646197499238" y="109"/>
      <point x="241.20646197499238" y="109" type="curve" smooth="yes"/>
      <point x="272.20646197499235" y="109"/>
      <point x="321.5654458236148" y="129"/>
    </contour>
  </outline>
</glyph>
<glyph name="d" format="2">
  <advance width="500.0"/>
  <unicode hex="0064"/>
  <anchor x="350.7695154586736" y="600.0" name="top"/>
  <anchor x="170.32050807568876" y="-10" name="cedilla"/>
  <anchor x="308.19615242270663" y="-3" name="ogonek"/>
  <anchor x="185.5" y="0.0" name="bottom"/>
  <outline>
    <contour>
      <point x="455.87721061326033" y="606" type="curve" smooth="yes"/>
      <point x="487.7105439465937" y="606"/>
      <point x="515.5669504071446" y="598"/>
      <point x="509.99257624934876" y="566" type="curve" smooth="yes"/>
      <point x="504.41820209155287" y="534"/>
      <point x="485.93612044262767" y="470"/>
      <point x="451.23990633720837" y="343" type="curve" smooth="yes"/>
      <point x="418.2167715272781" y="221"/>
      <point x="419.7526699121404" y="223"/>
      <point x="405.62315948301534" y="174" type="curve" smooth="yes"/>
      <point x="392.02954743875256" y="127"/>
      <point x="388.402614397699" y="106"/>
      <point x="415.2479138593198" y="106.66666666666666" type="curve" smooth="yes"/>
      <point x="429.67056359013014" y="107"/>
      <point x="423.5077321642143" y="84"/>
      <point x="417.5235335332526" y="61.666666666666664" type="curve" smooth="yes"/>
      <point x="399.39230484541326" y="-6"/>
      <point x="394.19615242270663" y="-3"/>
      <point x="308.19615242270663" y="-3" type="curve" smooth="yes"/>
      <point x="258.19615242270663" y="-3"/>
      <point x="248.18206931238268" y="38"/>
      <point x="265.1872240885255" y="94" type="curve" smooth="yes"/>
      <point x="281.9244296722373" y="149"/>
      <point x="291.48300246099495" y="203.33333333333334"/>
      <point x="305.8279031992934" y="264.3333333333333" type="curve" smooth="yes"/>
      <point x="336.9292474077705" y="395.3333333333333"/>
      <point x="376.20922441120166" y="527"/>
      <point x="385.3194969538598" y="561" type="curve" smooth="yes"/>
      <point x="389.9464299949134" y="582"/>
      <point x="415.5438772799271" y="606"/>
    </contour>
    <contour>
      <point x="289.3902495460893" y="165.66666666666666" type="curve"/>
      <point x="278.0051547761429" y="56" type="line"/>
      <point x="273.8615612366939" y="48"/>
      <point x="255.32050807568876" y="-10"/>
      <point x="170.32050807568876" y="-10" type="curve" smooth="yes"/>
      <point x="71.32050807568876" y="-10"/>
      <point x="7.201307198849506" y="53"/>
      <point x="46.58983848622454" y="200" type="curve" smooth="yes"/>
      <point x="90.26555685249754" y="363"/>
      <point x="192.8591688967603" y="410"/>
      <point x="302.8591688967603" y="410" type="curve" smooth="yes"/>
      <point x="346.8591688967603" y="410"/>
      <point x="353.42838827841337" y="386"/>
      <point x="357.2129979692399" y="374" type="curve"/>
      <point x="305.6458338869108" y="226.33333333333334" type="line"/>
      <point x="299.2202080447067" y="258.3333333333333"/>
      <point x="333.32086164413147" y="284.83333333333337"/>
      <point x="252.32086164413147" y="284.83333333333337" type="curve" smooth="yes"/>
      <point x="191.32086164413147" y="284.83333333333337"/>
      <point x="180.61720726022793" y="238.66666666666669"/>
      <point x="170.25650515289118" y="200" type="curve" smooth="yes"/>
      <point x="161.7714473925723" y="168.33333333333331"/>
      <point x="178.32932957227766" y="118.16666666666666"/>
      <point x="205.662662905611" y="118.16666666666666" type="curve" smooth="yes"/>
      <point x="241.662662905611" y="118.16666666666666"/>
      <point x="242.4043326564133" y="124.66666666666666"/>
    </contour>
  </outline>
</glyph>
<glyph name="e" format="2">
  <advance width="500.0"/>
  <unicode hex="0065"/>
  <anchor x="317.1796769724491" y="400.0" name="top"/>
  <anchor x="158.5884572681199" y="-9" name="cedilla"/>
  <anchor x="305.0" y="0" name="ogonek"/>
  <anchor x="200.0" y="0.0" name="bottom"/>
  <outline>
    <contour>
      <point x="347" y="153" type="curve" smooth="yes"/>
      <point x="299" y="151"/>
      <point x="258.72827724953066" y="152"/>
      <point x="221.72827724953066" y="152" type="curve" smooth="yes"/>
      <point x="179.72827724953066" y="152"/>
      <point x="128.2641756343929" y="154"/>
      <point x="127.06802321168627" y="157" type="curve"/>
      <point x="152.2552473002118" y="251" type="line"/>
      <point x="190.71934891534954" y="249"/>
      <point x="244.45139972291844" y="248"/>
      <point x="266.45139972291844" y="248" type="curve" smooth="yes"/>
      <point x="301.45139972291844" y="248"/>
      <point x="338.2552473002118" y="251"/>
      <point x="371.5231964926429" y="252" type="curve"/>
      <point x="382.50911338231896" y="293"/>
      <point x="386" y="327"/>
      <point x="316" y="327" type="curve" smooth="yes"/>
      <point x="246" y="327"/>
      <point x="181.84885934447456" y="298"/>
      <point x="154.78599090893118" y="197" type="curve" smooth="yes"/>
      <point x="143.53212482682403" y="155"/>
      <point x="133" y="100"/>
      <point x="174" y="93" type="curve" smooth="yes"/>
      <point x="261" y="78"/>
      <point x="332.402614397699" y="106"/>
      <point x="345.93851278256125" y="108" type="curve" smooth="yes"/>
      <point x="380.546207937148" y="114"/>
      <point x="420.08210632201025" y="116"/>
      <point x="411.6846467004541" y="66" type="curve" smooth="yes"/>
      <point x="405.2346281956403" y="27"/>
      <point x="384.28718707889794" y="16"/>
      <point x="366.4115427318801" y="9" type="curve" smooth="yes"/>
      <point x="317.5884572681199" y="-9"/>
      <point x="276.5884572681199" y="-9"/>
      <point x="158.5884572681199" y="-9" type="curve" smooth="yes"/>
      <point x="70.5884572681199" y="-9"/>
      <point x="8.770526580502562" y="29"/>
      <point x="52.44624494677556" y="192" type="curve" smooth="yes"/>
      <point x="100.94504877680876" y="373"/>
      <point x="226.66301647405368" y="413"/>
      <point x="321.6630164740537" y="413" type="curve" smooth="yes"/>
      <point x="418.6630164740537" y="413"/>
      <point x="498.01684554653326" y="377"/>
      <point x="456.48472071970923" y="222" type="curve" smooth="yes"/>
      <point x="437.72827724953066" y="152"/>
      <point x="410" y="156"/>
    </contour>
  </outline>
</glyph>
